<svg width="56" height="56" viewBox="0 0 56 56" fill="none" xmlns="http://www.w3.org/2000/svg">
<path d="M28 56C43.464 56 56 43.464 56 28C56 12.536 43.464 0 28 0C12.536 0 0 12.536 0 28C0 43.464 12.536 56 28 56Z" fill="#446E1A"/>
<path fill-rule="evenodd" clip-rule="evenodd" d="M22.55 20.375C21.9732 20.375 21.42 20.6042 21.0121 21.012C20.6042 21.4199 20.375 21.9732 20.375 22.55L20.375 33.45L20.3751 33.453C20.3889 34.0207 20.6242 34.5603 21.0306 34.9568C21.437 35.3533 21.9823 35.5752 22.5501 35.575L33.45 35.575L33.4531 35.575C34.0116 35.5615 34.5435 35.3336 34.9386 34.9386C35.3336 34.5435 35.5616 34.0116 35.575 33.453V26.009C35.5828 25.9513 35.5797 25.8925 35.5657 25.8358C35.5509 25.7757 35.5243 25.7191 35.4874 25.6694C35.4504 25.6198 35.4039 25.5779 35.3506 25.5465C35.2973 25.515 35.2382 25.4945 35.1769 25.4861L35.1685 25.485H35.16C35.099 25.485 35.0385 25.497 34.9821 25.5204C34.9257 25.5438 34.8744 25.578 34.8312 25.6212C34.788 25.6644 34.7538 25.7156 34.7304 25.7721C34.7071 25.8285 34.695 25.8889 34.695 25.95V33.45C34.695 33.7802 34.5639 34.0969 34.3304 34.3303C34.0969 34.5638 33.7802 34.695 33.45 34.695H22.55C22.2198 34.695 21.9032 34.5638 21.6697 34.3303C21.4362 34.0969 21.305 33.7802 21.305 33.45V22.55C21.305 22.2198 21.4362 21.9031 21.6697 21.6697C21.9032 21.4362 22.2198 21.305 22.55 21.305H30.05C30.1734 21.305 30.2916 21.256 30.3788 21.1688C30.466 21.0816 30.515 20.9633 30.515 20.84C30.515 20.7167 30.466 20.5984 30.3788 20.5112C30.2916 20.424 30.1734 20.375 30.05 20.375H22.55ZM33.795 20.3759C33.5548 20.3759 33.317 20.4232 33.0951 20.5151C32.8731 20.607 32.6715 20.7418 32.5016 20.9116L24.6336 28.7797L24.0969 31.9031L27.2203 31.3665L35.0884 23.4984C35.2583 23.3285 35.393 23.1269 35.4849 22.905C35.5769 22.6831 35.6242 22.4452 35.6242 22.205C35.6242 21.9648 35.5769 21.7269 35.4849 21.505C35.393 21.2831 35.2583 21.0815 35.0884 20.9116C34.9186 20.7418 34.7169 20.607 34.495 20.5151C34.2731 20.4232 34.0352 20.3759 33.795 20.3759ZM33.8003 21.305C34.0323 21.3051 34.2547 21.3973 34.4188 21.5613C34.5828 21.7253 34.6749 21.9477 34.675 22.1796C34.6739 22.4199 34.5788 22.6508 34.4108 22.8225L34.06 23.1732L32.7909 21.9041L33.1544 21.5724L33.1575 21.5693C33.3293 21.401 33.5599 21.3062 33.8003 21.305ZM27.445 28.555H26.1718L32.15 22.5768L33.4233 23.85L27.445 29.8282V28.555ZM25.2539 30.7861L25.475 29.525H26.515V30.565L25.2539 30.7861Z" fill="white"/>
</svg>
