<svg width="73" height="73" viewBox="0 0 73 73" fill="none" xmlns="http://www.w3.org/2000/svg">
<circle cx="36.4138" cy="36.4138" r="33.4138" fill="white" stroke="#A3A3A3" stroke-width="6"/>
<path d="M25.6371 48.0954L24.1823 46.6405C22.9352 45.3935 23.0285 43.4297 24.1599 42.2983L41.9536 24.5047C43.085 23.3733 45.1527 23.3839 46.2958 24.527L47.7506 25.9818C48.9976 27.2288 48.9043 29.1926 47.7729 30.324L30.0821 48.0148C28.8479 49.2491 26.8841 49.3424 25.6371 48.0954Z" fill="#A3A3A3"/>
<path d="M24.7524 25.6373L26.2073 24.1825C27.4543 22.9355 29.4181 23.0288 30.5495 24.1602L48.3431 41.9538C49.4745 43.0852 49.4639 45.1529 48.3208 46.296L46.866 47.7509C45.619 48.9979 43.6552 48.9046 42.5238 47.7732L24.833 30.0824C23.5987 28.8481 23.5054 26.8843 24.7524 25.6373Z" fill="#A3A3A3"/>
</svg>
