<svg width="22" height="22" viewBox="0 0 22 22" fill="none" xmlns="http://www.w3.org/2000/svg">
<circle cx="11" cy="11" r="11" fill="#7AC819"/>
<circle cx="11" cy="11" r="11" fill="#7AC819"/>
<path d="M15.5 8.23334C15.5 8.09333 15.4165 8 15.2912 8C15.2286 8 15.1868 8.02333 15.1451 8.07L9.65342 14.4401L6.66747 11.1034C6.6257 11.0567 6.58394 11.0334 6.5213 11.0334C6.39602 11.0334 6.31249 11.1267 6.31249 11.2667C6.31249 11.3367 6.33337 11.3834 6.37513 11.43L9.50725 14.9301C9.54901 14.9767 9.59078 15.0001 9.65342 15.0001C9.71606 15.0001 9.75782 14.9767 9.79958 14.9301L15.4374 8.39667C15.4792 8.35 15.5 8.30334 15.5 8.23334Z" fill="#59A60B"/>
<path d="M15.5 8.23334C15.5 8.09333 15.4165 8 15.2912 8C15.2286 8 15.1868 8.02333 15.1451 8.07L9.65342 14.4401L6.66747 11.1034C6.6257 11.0567 6.58394 11.0334 6.5213 11.0334C6.39602 11.0334 6.31249 11.1267 6.31249 11.2667C6.31249 11.3367 6.33337 11.3834 6.37513 11.43L9.50725 14.9301C9.54901 14.9767 9.59078 15.0001 9.65342 15.0001C9.71606 15.0001 9.75782 14.9767 9.79958 14.9301L15.4374 8.39667C15.4792 8.35 15.5 8.30334 15.5 8.23334Z" fill="#5CB405" stroke="white" stroke-miterlimit="10"/>
</svg>
