<svg width="83" height="81" viewBox="0 0 83 81" fill="none" xmlns="http://www.w3.org/2000/svg">
<g filter="url(#filter0_d_1810_827)">
<path d="M17.6739 37.0213C19.0796 40.5418 19.6971 44.3014 20.8534 47.896C21.3921 49.571 22.0709 51.2247 23.0055 52.721C24.0858 54.4497 25.5972 55.8274 26.785 57.4718C29.1188 60.7042 30.5866 64.4601 33.1467 67.547C33.4379 67.8981 33.8885 67.8398 34.1982 67.6017C34.2964 67.6473 34.4007 67.6785 34.5079 67.6943C35.2043 67.7981 35.8988 67.899 36.5988 68.0047C37.425 68.1307 37.2655 68.1955 37.604 68.8709C37.9795 69.6195 38.8363 70.2087 39.6977 69.9141C40.1882 69.7464 40.4061 69.4036 40.6601 68.995C40.9244 68.5717 41.0097 68.6356 41.7487 68.5318C43.1528 68.3454 44.5728 68.3106 45.9843 68.4281C47.3752 68.53 48.7002 68.6059 50.0883 68.3854C51.5635 68.151 53.01 67.7786 54.4908 67.5711C55.9299 67.37 57.3745 67.3098 58.8256 67.282C59.7074 67.2654 60.5494 67.2552 61.369 67.0393C61.8327 68.3641 63.218 69.8187 64.6515 69.1701C65.3933 68.8357 65.6714 68.0853 65.6121 67.3098C65.5843 66.9689 65.5463 66.6178 65.4906 66.2685C65.4899 66.1542 65.4821 66.04 65.4674 65.9266C67.194 65.4903 69.0104 65.0131 70.4838 64.0098C71.985 62.9907 73.0068 61.4583 73.5669 59.7481C74.8974 55.6856 73.6327 50.843 72.9178 46.7639C72.1074 42.1137 71.1276 37.4984 69.9785 32.918C69.4221 30.701 68.8176 28.4998 68.124 26.3198C67.7531 25.1571 67.3942 23.9898 66.9705 22.8466C66.6738 22.0452 66.2621 21.2994 65.894 20.5304C66.8212 20.1219 67.6372 19.2769 67.9339 18.3922C68.0673 18.0055 68.1061 17.5925 68.047 17.1878C68.1295 16.4337 67.8866 15.6462 67.1569 14.905C66.1962 13.9285 64.6737 13.6756 63.3876 14.0462C62.718 14.2392 62.0895 14.5532 61.5332 14.9726C59.6694 13.2541 57.5257 11.9478 55.228 10.8425C53.9873 10.2414 52.7148 9.70821 51.4161 9.24531C50.6131 8.96089 49.6775 8.57641 48.7595 8.37908C48.9978 6.32513 47.3687 4.70291 45.1433 4.68438C43.0793 4.66771 42.0603 6.4326 41.898 8.40594C41.3741 8.42633 40.4422 8.68388 39.9044 8.75336C38.5738 8.92939 37.1431 9.06373 35.8793 9.5427C34.5877 10.0309 33.602 10.9583 32.5885 11.8588L31.6678 12.6797C29.8365 13.7219 28.365 15.1718 27.0715 17.0553C26.0812 18.495 25.1845 19.9922 24.338 21.5143C23.866 22.3676 23.2679 23.3116 22.8071 24.277C20.0857 22.5167 16.0587 24.0204 14.8282 27.0499C13.2575 30.9141 16.3331 33.6768 17.6739 37.0213Z" fill="white"/>
<path d="M30.9538 35.6103C31.0539 34.3531 32.1323 33.3868 33.4008 33.85C33.6171 33.9321 33.8223 34.0407 34.0118 34.1734C34.343 34.2613 34.6484 34.4268 34.9029 34.656C35.5724 35.2638 36.3772 36.2949 36.6035 37.176C36.8816 38.2803 36.0981 39.2763 35.0216 39.469C33.0948 39.8182 30.8045 37.491 30.9538 35.6103Z" fill="#FCB6D0"/>
<path d="M20.6234 24.4882C20.6382 24.4669 20.6549 24.4484 20.6707 24.4289C20.6707 24.4289 20.6753 24.4187 20.6781 24.4141C20.8803 24.101 21.1983 24.0018 21.5544 24.0574C21.4755 24.0454 21.4041 24.0361 21.5265 24.0445C21.6201 24.0508 21.7131 24.0641 21.8047 24.0843C21.8891 24.1037 21.9744 24.126 22.0551 24.1529C22.3424 24.2368 22.5965 24.4081 22.782 24.6429C23.1779 25.1553 23.1631 25.9733 22.5372 26.3106C22.017 26.5885 21.2827 26.4125 20.8738 26.0067C20.4797 25.6157 20.2896 24.9792 20.6234 24.4882Z" fill="#FCB6D0"/>
<path d="M63.5916 17.8687C63.5834 17.7523 63.6 17.6354 63.6402 17.5259C63.6805 17.4163 63.7436 17.3166 63.8253 17.2331C63.9548 17.1082 64.1145 17.0192 64.2889 16.9747C64.9176 16.8116 65.5787 17.2804 65.664 17.9122C65.6839 18.0625 65.6708 18.2153 65.6255 18.36C65.5802 18.5046 65.5039 18.6377 65.4018 18.7498C65.2998 18.8619 65.1744 18.9504 65.0346 19.0092C64.8947 19.0679 64.7437 19.0954 64.5921 19.0898C64.4174 19.0865 64.2462 19.0398 64.094 18.954C63.9419 18.8681 63.8135 18.7457 63.7205 18.5978C63.5851 18.3805 63.5389 18.1192 63.5916 17.8687Z" fill="#FCB6D0"/>
<path d="M21.6962 38.8381C22.2257 39.092 22.6235 39.4487 23.2206 39.5561C24.07 39.7099 23.8855 41.1811 23.0138 41.0783C22.1422 40.9754 21.1167 40.6586 20.7273 39.8063C20.4306 39.1559 21.0342 38.5213 21.6962 38.8381Z" fill="#FFDEE1"/>
<path d="M35.1644 66.8067C35.5075 66.0155 36.4347 66.0183 37.1663 66.2944C37.5459 66.4471 37.8803 66.6939 38.1381 67.0115C38.3085 67.2158 38.4635 67.4326 38.6017 67.66C38.7871 67.95 38.521 68.1334 38.7927 67.824C39.0375 67.546 39.0977 67.1328 39.3824 66.8521C39.7292 66.5093 40.1381 66.3611 40.6091 66.2879C42.0176 66.0693 43.5253 66.1554 44.9495 66.1026C50.513 65.9044 56.2201 66.0387 61.7242 65.1428C62.3955 65.0335 62.9797 65.8691 62.5522 66.3416C62.8063 66.6603 62.9927 67.0911 63.1883 67.3904C63.5351 67.9203 63.9839 68.3585 64.6533 68.3752C65.2885 68.39 65.2598 69.2748 64.6533 69.3406C63.8327 69.4332 63.0566 69.0626 62.4734 68.5067C62.096 68.1417 61.6204 67.4784 61.4942 66.8623C59.4469 67.6414 57.3217 67.8304 55.1074 67.9203C52.1987 68.037 49.289 68.1297 46.3793 68.2335L42.0899 68.3872C41.7738 68.3984 41.4529 68.3974 41.1367 68.4215C40.7213 68.453 40.8586 68.3242 40.6017 68.5827C40.3449 68.8412 40.2661 69.2312 39.9527 69.4906C39.2656 70.0595 38.3328 69.9363 37.6735 69.3915C37.2943 69.0784 37.157 68.6504 36.8529 68.2844C36.521 67.8888 36.4755 67.9194 35.9535 67.7739C35.7465 67.7295 35.5461 67.6585 35.3573 67.5627C35.0782 67.408 35.0504 67.0708 35.1644 66.8067Z" fill="#FFDEE1"/>
<path d="M27.5026 26.9007C27.452 26.7729 27.4288 26.6359 27.4345 26.4986C27.4403 26.3612 27.4749 26.2266 27.5361 26.1035C27.5973 25.9804 27.6838 25.8716 27.7898 25.784C27.8959 25.6965 28.0192 25.6322 28.1517 25.5953C29.3831 25.247 30.7359 26.5542 31.2255 27.5687C31.2796 27.6822 31.3261 27.7992 31.3646 27.9189L31.3776 27.9355C31.4483 28.0245 31.4947 28.1302 31.5123 28.2424C31.5298 28.3546 31.5179 28.4695 31.4777 28.5757C31.4927 28.9626 31.3563 29.34 31.0975 29.6282C30.5412 30.2304 29.7401 30.1414 29.1012 29.7273C28.3038 29.2122 27.0909 27.8531 27.5026 26.9007Z" fill="#FFDEE1"/>
<path d="M53.3809 54.5739H53.3901C53.5598 52.872 55.3809 51.1868 57.0703 52.2383C57.2737 52.3615 57.4242 52.5557 57.4927 52.7832C57.5612 53.0108 57.5429 53.2557 57.4412 53.4705C57.6471 53.6614 57.7194 53.9856 57.4542 54.2775C56.8376 54.9677 56.1913 55.6533 55.3336 56.0377C54.5594 56.3852 53.4142 56.501 52.8041 55.8006C52.3359 55.2595 52.831 54.535 53.3809 54.5739Z" fill="#FFDEE1"/>
<path d="M11.3288 54.0856C11.9469 53.0658 12.7274 52.1536 13.6395 51.385C15.5709 49.7701 17.9724 48.878 20.4788 48.7103C23.7297 48.4935 26.6746 49.5191 29.1568 51.296L29.2022 51.3229C30.1351 51.9235 31.0036 52.6186 31.7939 53.3972C32.2325 53.8179 32.5866 54.3185 32.837 54.8721C32.9909 55.0704 33.143 55.2714 33.2904 55.4762C33.4527 55.7022 33.3831 55.9533 33.2246 56.1247C33.2246 56.1423 33.232 56.1571 33.2357 56.1747C33.3284 56.6231 32.8045 57.0011 32.4596 56.8232C31.9561 57.5857 31.614 58.4557 31.5685 59.3738C31.5203 60.3308 32.0322 61.2267 31.906 62.1689C31.8448 62.6414 31.3321 63.415 31.5352 63.8569C31.8532 64.5378 32.6645 64.1033 33.1625 64.0422C33.9219 63.944 34.6507 64.2071 35.0086 64.9232C35.6576 66.2305 34.6127 68.5169 33.7596 69.5184C32.48 71.0212 30.938 70.7682 29.2801 70.4579C29.2019 70.6223 29.1088 70.7792 29.0019 70.9267C28.7465 71.2058 28.4052 71.392 28.032 71.4557C27.5925 71.5274 27.1416 71.4456 26.7552 71.224C26.5869 71.1231 26.4313 71.0024 26.2916 70.8646C26.1977 70.7708 26.1097 70.6711 26.0283 70.5663C25.9595 70.5846 25.8917 70.6065 25.8252 70.632C25.6075 70.7167 25.3785 70.7689 25.1456 70.7868C24.6309 70.8349 24.1173 70.7377 23.6147 70.6357C23.4005 70.5922 23.1872 70.5431 22.973 70.4996C22.2013 70.5133 21.4296 70.4703 20.6642 70.3708C19.9289 70.2707 18.9238 69.7454 18.22 70.0113C17.6934 70.2105 17.3558 70.5922 16.729 70.6126C16.2911 70.6275 15.8594 70.5064 15.4932 70.266C15.1271 70.0256 14.8445 69.6777 14.6845 69.2702C14.7119 69.2604 14.7344 69.2405 14.7475 69.2146C14.7748 69.149 14.7981 69.0819 14.8171 69.0135C14.8243 68.9884 14.8241 68.9616 14.8163 68.9366C14.8086 68.9116 14.7937 68.8894 14.7735 68.8727C14.7671 68.855 14.7583 68.8381 14.7475 68.8227C14.7299 68.7979 14.7054 68.7788 14.6771 68.7676C14.6488 68.7564 14.6179 68.7537 14.588 68.7597L14.5713 68.7411C14.5713 68.7134 14.5713 68.6846 14.5713 68.6559C14.5815 68.5549 14.5927 68.4539 14.6029 68.353C14.6517 68.0441 14.6468 68.0315 14.588 68.315C14.423 68.1417 14.1189 68.037 13.9269 67.8897C13.7305 67.7427 13.5508 67.5746 13.391 67.3885C13.2877 67.4736 13.1628 67.5284 13.0303 67.5469C13.0253 67.5222 13.0134 67.4994 12.996 67.4812C12.8858 67.3756 12.77 67.276 12.6492 67.1829C12.6036 67.1409 12.5556 67.1016 12.5055 67.0652L12.4934 67.0578L12.4647 67.0337C12.4425 67.0152 12.416 67.0028 12.3877 66.9976C12.3369 66.9736 12.2829 66.9574 12.2273 66.9494C12.1068 66.9358 11.985 66.9577 11.8768 67.0124H11.8694C11.6753 66.8186 11.5412 66.573 11.4831 66.305C11.4251 66.037 11.4455 65.758 11.5421 65.5013C11.8981 64.4656 13.1657 64.2238 13.582 63.2408C13.8277 62.6608 13.7266 61.9762 13.824 61.3564C13.9213 60.7366 14.2412 60.1122 14.2969 59.4822C14.3599 58.7512 13.9751 58.2861 13.7619 57.6293C13.7081 57.4653 13.7081 57.0419 13.6135 56.9214C13.4494 56.7139 13.072 56.6361 12.7122 56.6055C12.5691 56.9914 12.3801 57.3587 12.1494 57.6997C11.5374 58.5492 10.3524 58.2129 10.243 57.1836C10.1299 56.1442 10.7984 54.9592 11.3288 54.0856Z" fill="#FDE41B"/>
<path d="M20.3277 55.4494C20.9619 57.0698 23.5053 59.0404 24.9017 57.1272C25.1799 56.7455 25.0946 56.3055 24.8377 55.9831C24.8345 55.6392 24.7894 55.2969 24.7033 54.964C24.4789 54.0329 24.2202 53.0388 23.356 52.4922C21.4042 51.2544 19.6063 53.6067 20.3277 55.4494Z" fill="#FB7F1C"/>
<path d="M13.594 64.4434C13.5634 63.6865 14.5602 63.6874 14.8087 64.2785C14.9096 64.5151 15.0225 64.7464 15.1471 64.9714C15.6506 65.4606 16.1263 65.9822 16.6873 66.413C17.5469 67.0756 18.5129 67.5875 19.5441 67.9268C21.0462 68.4179 22.6114 68.5753 24.1803 68.5466C24.6014 68.4619 25.017 68.3514 25.4246 68.2159C26.5651 67.8323 27.8355 67.3126 28.6616 66.4251C29.664 65.3531 30.1452 63.9236 30.2379 62.4848C30.2415 62.4306 30.2656 62.3798 30.3053 62.3427C30.345 62.3056 30.3973 62.2849 30.4517 62.2849C30.506 62.2849 30.5584 62.3056 30.5981 62.3427C30.6377 62.3798 30.6618 62.4306 30.6654 62.4848C30.712 62.9799 30.6876 63.479 30.5931 63.9672C31.2848 64.9399 32.3706 66.0841 33.6761 65.3439C33.7449 65.3049 33.8246 65.2893 33.903 65.2995C33.9815 65.3097 34.0545 65.3451 34.111 65.4004C34.9845 66.4195 34.7508 67.7165 33.9524 68.6976C33.4276 69.3439 32.7546 69.8543 31.9904 70.1855C31.1856 70.5228 30.5356 70.4023 29.7178 70.4635C29.0622 70.5135 28.8666 71.0795 28.2388 71.2584C27.7242 71.4047 27.2717 71.2648 26.8248 71.0203C26.4687 70.8248 26.5383 70.5376 26.0338 70.4505C25.7047 70.394 25.05 70.6895 24.6921 70.7284C23.6907 70.8315 22.6788 70.7355 21.7148 70.4459C21.6407 70.4275 21.5722 70.3913 21.5153 70.3404C21.4584 70.2896 21.4149 70.2256 21.3884 70.154C21.2465 70.1392 21.1037 70.1216 20.9609 70.1021C20.4828 70.0547 20.0091 69.9702 19.5441 69.8492C19.0874 69.7465 18.6364 69.6197 18.1931 69.4694C18.2044 69.5476 18.1955 69.6273 18.1673 69.7011C18.1391 69.7749 18.0924 69.8402 18.0318 69.8909C17.4513 70.3541 16.8792 70.5107 16.1532 70.3208C16.0878 70.3073 16.0262 70.2799 15.9724 70.2404C15.9186 70.2009 15.874 70.1503 15.8416 70.092C15.4494 70.0836 15.1295 69.6185 15.365 69.2535C15.4278 69.1611 15.4836 69.0642 15.5319 68.9635C15.3317 68.8514 15.1305 68.7403 14.932 68.6244C14.3423 68.2826 13.4855 67.9259 13.0442 67.4025C12.243 66.4621 13.632 65.468 13.594 64.4434Z" fill="#FDC01B"/>
<path d="M26.8053 54.3867C27.1002 53.6891 27.8012 53.1916 28.5727 53.2314C28.9219 53.251 29.2591 53.3654 29.5481 53.5622C29.9276 53.6785 30.2524 53.9275 30.4633 54.2635C30.9269 54.975 30.6793 55.9719 30.0868 56.524C28.6672 57.8461 26.0135 56.2618 26.8053 54.3867Z" fill="#FFAD12"/>
<path d="M15.4698 57.4533C15.5953 57.3857 15.7304 57.3376 15.8704 57.3106C15.8935 57.2783 15.9186 57.2473 15.9455 57.218C16.245 56.891 16.7457 56.8131 17.1574 56.9206C17.9159 57.1198 18.284 57.9619 18.0846 58.6809C17.7833 59.7481 16.5083 60.5912 15.4652 59.9723C14.5676 59.4424 14.5379 57.9619 15.4698 57.4533Z" fill="#FFAD12"/>
<path d="M15.4346 51.2831C15.5735 51.2117 15.7337 51.1932 15.8852 51.2312C15.9353 51.2238 15.9845 51.2136 16.0355 51.2099C16.152 51.209 16.2666 51.239 16.3676 51.297C16.4687 51.355 16.5524 51.4387 16.6103 51.5397C16.742 51.7639 16.7086 51.9854 16.6103 52.2114C16.3257 52.8711 15.7424 53.3232 15.0804 53.5668C14.7818 53.6761 14.3386 53.4427 14.2885 53.1184C14.1624 52.2327 14.7067 51.6769 15.4346 51.2831Z" fill="white"/>
<path d="M13.3354 53.7003C13.3651 53.6485 13.408 53.6054 13.4596 53.5753L13.518 53.5326L13.5987 53.4984C13.6422 53.4847 13.6885 53.4824 13.7331 53.4919C13.7631 53.492 13.7925 53.5 13.8184 53.515C13.8599 53.5288 13.8972 53.5527 13.9269 53.5845L13.9798 53.6531L14.0132 53.7337C14.0278 53.777 14.03 53.8235 14.0197 53.868C14.0175 53.9125 14.0037 53.9556 13.9798 53.9931L13.9371 54.0514C13.9061 54.1026 13.8632 54.1455 13.812 54.1765C13.7585 54.2077 13.6977 54.224 13.6358 54.2238L13.5431 54.2117C13.4846 54.1947 13.4315 54.1628 13.3891 54.1191C13.3561 54.0885 13.3315 54.0499 13.3177 54.007C13.2956 53.9658 13.285 53.9194 13.2871 53.8726C13.288 53.812 13.3046 53.7526 13.3354 53.7003Z" fill="white"/>
<path d="M21.8595 37.6254C22.1729 35.8781 22.8869 34.0298 23.6917 32.4512C23.8549 32.1306 24.0385 31.7304 24.3602 31.5247C24.3841 31.4361 24.435 31.357 24.5057 31.2985C24.5764 31.2399 24.6636 31.2047 24.7552 31.1977C25.5545 31.0809 26.1322 31.5182 26.2963 32.1362C26.3588 32.2248 26.409 32.3214 26.4456 32.4234C26.4606 32.4699 26.4575 32.5204 26.4371 32.5648C26.4167 32.6092 26.3803 32.6444 26.3353 32.6633C26.3167 32.8443 26.2687 33.0211 26.1934 33.1868C25.9895 33.599 25.7364 33.9851 25.4395 34.3365C25.2541 34.6459 25.0622 34.9433 24.8888 35.224C24.4047 36.0097 23.854 37.0028 23.0658 37.5402C22.9453 37.6847 22.8229 37.8255 22.6949 37.9571C22.4028 38.2554 21.7677 38.1377 21.8595 37.6254Z" fill="#F36291"/>
<path d="M23.2521 33.7036L23.8864 32.5446C24.0514 32.2407 24.2016 31.8322 24.4251 31.5644C24.8637 31.041 25.6769 31.5959 26.1507 31.7942C26.3695 31.8868 26.5309 32.175 26.414 32.4056C26.2286 32.7809 26.0153 33.1468 25.8002 33.5072C26.1257 33.7768 25.9634 34.4411 25.4451 34.3614C24.821 34.2687 24.1896 34.3188 23.5674 34.2335C23.343 34.203 23.1288 33.9324 23.2521 33.7036Z" fill="#F08FAB"/>
<path d="M6.48678 22.9763C6.51289 23.4048 6.58027 23.8299 6.68799 24.2455C6.7974 24.6735 7.10154 25.159 7.12472 25.5954C7.15995 26.2559 6.97265 26.7516 7.16366 27.439C7.37033 28.1692 7.79638 28.8185 8.38424 29.2989C8.97209 29.7794 9.69342 30.068 10.4507 30.1257C10.9959 30.1674 11.1563 29.9469 11.4809 30.424C11.6496 30.6723 11.619 31.1652 11.7247 31.4709C11.9278 32.0509 12.2625 32.5271 12.8801 32.705C14.2978 33.1126 14.4564 31.81 14.3637 30.7742C13.9928 26.6691 17.086 23.3237 21.1047 23.4979C21.6375 23.7056 22.1139 24.0357 22.4955 24.4614C22.548 24.5249 22.6159 24.5739 22.6928 24.6036C22.7697 24.6334 22.8529 24.6428 22.9345 24.6311C23.0161 24.6194 23.0933 24.5869 23.1587 24.5367C23.224 24.4865 23.2754 24.4204 23.3078 24.3446C23.7881 23.3941 24.239 22.4303 24.6606 21.4532C25.0102 20.6462 25.4766 19.8263 25.5944 18.9518C25.7205 18.8587 25.8046 18.7194 25.828 18.5645C25.93 17.9521 25.4191 17.3518 25.0992 16.8682C24.6356 16.1668 24.0857 15.5054 23.3718 15.0458C22.7713 14.6484 22.066 14.4384 21.3458 14.4427C20.6633 14.4557 19.8279 15.0857 19.2873 14.9115C18.9674 14.8077 18.629 14.4622 18.3248 14.2963C17.8709 14.0412 17.3893 13.8386 16.8895 13.6923C16.0792 13.4512 15.2211 13.4193 14.3952 13.5996C13.0776 13.9082 11.9723 14.804 11.5115 16.0677C8.45438 16.9617 6.3004 19.705 6.48678 22.9763Z" fill="#A1D843"/>
<path d="M35.6929 48.6566C37.1645 51.7833 40.6574 53.148 43.8628 52.1604C45.2444 54.7545 47.8499 57.1002 51.0025 56.2257C51.6876 56.0424 52.3184 55.697 52.8416 55.2187C53.3648 54.7404 53.7651 54.1433 54.0086 53.4778C54.1941 52.9775 54.1774 52.657 54.7282 52.5903C54.9878 52.5588 55.2845 52.644 55.5544 52.6162C56.279 52.5338 56.963 52.2388 57.5201 51.7685C58.6884 50.7948 59.1168 49.1902 58.8618 47.7236C58.8038 47.4134 58.7223 47.108 58.618 46.8101C58.5252 46.5479 58.4223 46.2904 58.312 46.0356C58.0468 45.6292 58.0709 45.5449 58.3843 45.7827C59.0436 45.464 59.6157 45.3056 60.1748 44.796C61.1141 43.9391 61.9365 42.3974 61.3904 41.1226C60.9722 40.1397 59.9782 39.7774 58.9861 39.6403C59.5832 38.3979 59.9949 36.9814 59.1882 35.7297C58.3973 34.4976 56.8961 34.3521 55.5664 34.5596C55.3235 34.5976 54.9776 34.568 54.8738 34.6912C54.9025 34.4688 54.9878 34.1668 54.9433 33.9917C54.7764 33.3386 54.2015 33.0143 53.5701 32.9411C52.944 32.8854 52.3141 32.9923 51.7416 33.2515C51.583 33.3302 50.3767 34.5485 50.6196 34.6477C50.5621 34.6247 50.5007 34.6127 50.4388 34.6124C49.6191 33.0532 48.4165 31.4625 46.4786 31.5904C44.8095 31.6988 43.8211 33.1431 43.5939 34.6699C41.1497 34.2854 38.5655 34.4985 37.2136 36.9054C36.2122 38.6898 36.5182 40.7159 37.5734 42.3242C36.7147 42.4373 35.9414 42.9885 35.5038 43.8418C34.7509 45.3084 35.0133 47.2141 35.6929 48.6566Z" fill="#A1D843"/>
<path d="M31.1902 64.5333C31.8532 65.2578 32.8509 65.4598 33.5918 64.9521C34.4328 65.8785 35.7494 66.2037 37.0114 65.8387C37.8951 65.583 38.6545 64.9928 39.2692 64.3258C39.5715 63.9978 39.884 63.3613 40.2465 63.1399C40.4997 62.9852 40.8817 62.9713 41.1589 62.8305C42.5554 62.1227 43.1636 60.355 42.5498 58.9338C41.9378 57.5293 40.4385 56.8289 38.9725 56.8725C38.2715 55.8006 37.3526 54.8435 35.9655 54.8074C34.9817 54.7815 34.0322 55.2577 33.576 56.1044C32.5273 55.8738 31.4127 56.2341 30.8286 57.2162C30.5055 57.7608 30.3949 58.4054 30.518 59.0265C30.5773 59.3155 30.7396 59.5425 30.8267 59.8121C31.0632 60.5375 30.9102 60.292 30.7479 60.8451C30.3659 62.1245 30.1916 63.4429 31.1902 64.5333Z" fill="#C065E8"/>
<path d="M3.45377 61.9744C3.5604 61.4704 3.03837 61.0321 2.8047 60.6421C2.49408 60.1168 2.28452 59.5304 2.40321 58.918C2.70085 57.3838 4.28365 56.839 5.63927 56.6797C6.37364 56.5944 6.35139 56.6797 6.56651 55.9987C6.64996 55.731 6.70096 55.4836 6.86044 55.2437C7.13861 54.8193 7.60779 54.5479 8.08625 54.4099C9.46691 54.0041 10.5805 54.8731 11.4076 55.8755C12.066 55.1288 13.0256 55.2715 13.7025 55.9496C14.4916 56.739 15.4569 57.6858 15.2557 58.8976C15.2164 59.1427 15.1361 59.3795 15.0183 59.598C14.7744 60.0538 14.6149 59.9343 14.7781 60.3586C14.9784 60.8784 15.3298 61.2119 15.3753 61.815C15.4522 62.8387 14.8894 63.6948 14.0428 64.1645C14.1151 65.3235 13.3594 66.4695 12.1883 66.7586C11.3297 66.9707 10.6936 66.6566 9.87025 67.2422C9.35471 67.6127 8.94302 68.0862 8.36906 68.3261C8.35576 68.2986 8.33296 68.2768 8.30485 68.2647C8.27675 68.2526 8.24522 68.2511 8.21606 68.2603C7.80234 68.3841 7.35942 68.3692 6.95502 68.2177C6.55986 68.0488 6.21839 67.7752 5.96751 67.4265C5.95597 67.4105 5.94116 67.3971 5.92406 67.3872C5.90696 67.3773 5.88796 67.3711 5.8683 67.3691C5.7812 67.2577 5.67735 67.1605 5.56045 67.081C5.1228 66.803 4.52009 66.8456 4.05369 66.6094C2.78245 65.9674 2.42454 64.3859 2.85292 63.1157C2.97532 62.7544 3.37866 62.331 3.45377 61.9744Z" fill="#C065E8"/>
<path d="M36.6396 46.4683C37.4148 47.82 38.1046 49.0531 39.4306 49.9509C40.8214 50.8931 42.5415 51.0478 44.0454 50.2992C44.3774 50.1343 44.8327 50.3418 44.9606 50.6772C45.6514 52.4699 47.0274 54.1876 49.0256 54.5322C50.9932 54.8713 53.0072 53.4316 53.0369 51.3971C53.0424 51.0163 53.4736 50.7486 53.8176 50.7865C56.6281 51.1164 58.2313 47.9896 56.4065 45.8578C56.0476 45.4391 56.3823 44.8869 56.8469 44.7785C58.68 44.3523 61.0964 43.0914 60.6161 40.8086C60.541 40.4529 61.1326 40.2843 61.2401 40.64C62.0255 43.2536 60.2341 44.9795 58.0171 45.8059C59.6017 48.5955 57.6109 52.1373 54.3582 52.2142C53.9419 54.4117 51.7387 55.9784 49.5069 55.9497C46.9885 55.9172 44.9857 54.0301 43.9434 51.8575C40.3708 53.1092 36.4625 50.3752 35.7838 46.699C35.6901 46.1617 36.4087 46.0663 36.6396 46.4683Z" fill="#5BC817"/>
<path d="M19.9234 22.401C20.6548 22.8436 21.3282 23.3755 21.9281 23.9843C22.094 24.152 22.3648 24.2363 22.566 24.0621C23.6434 23.1356 24.821 22.1851 25.3616 20.8195C25.918 19.4298 25.7622 17.8549 25.0529 16.5578C25.0136 16.4793 24.9573 16.4105 24.8881 16.3563C24.8189 16.3022 24.7385 16.2642 24.6527 16.2449C24.567 16.2257 24.4781 16.2257 24.3923 16.2451C24.3066 16.2644 24.2263 16.3026 24.1571 16.3568C24.0303 16.0132 23.8661 15.6845 23.6676 15.3766C23.4719 15.0727 22.9452 15.384 23.1196 15.6962C24.5104 18.1837 22.987 21.09 20.1821 21.3967C19.7231 21.4513 19.4996 22.1471 19.9234 22.401ZM23.5155 21.6366C23.5065 21.6198 23.4963 21.6037 23.4849 21.5885C23.6258 21.3921 23.7538 21.1984 23.8641 21.0243C23.9077 20.9557 23.9448 20.8862 23.9856 20.8177C23.8499 21.1022 23.6928 21.376 23.5155 21.6366Z" fill="#5BC817"/>
<path d="M8.4646 29.3549C8.89762 29.5245 9.34918 29.5402 9.8026 29.5662L10.0372 29.6885C10.348 29.8507 10.6753 29.9793 11.0136 30.072C11.0721 30.0861 11.1316 30.0957 11.1916 30.1007C11.4095 30.3787 11.5467 30.74 11.7183 31.1532C12.041 31.9295 12.6529 32.7281 13.6015 32.5429C14.5222 32.3576 14.6511 31.5238 14.6066 30.7214C14.5816 30.2823 14.5667 29.618 14.3711 29.1029C14.3711 28.9176 14.3711 28.7324 14.3655 28.5471C14.3638 28.4644 14.3409 28.3835 14.299 28.3121C14.2572 28.2408 14.1977 28.1813 14.1263 28.1394C14.3034 27.9891 14.4594 27.8155 14.5899 27.6234C14.8987 27.1694 14.245 26.6812 13.9038 27.1138C13.276 27.9124 12.2051 27.855 11.7127 26.9508C11.5356 26.6228 11.2092 26.5431 10.8949 26.7358C9.57636 27.5474 8.71681 25.6241 8.34406 24.7644C8.24392 24.5318 7.88044 24.3789 7.67089 24.5874C6.20863 26.0614 6.35143 28.5285 8.4646 29.3549ZM7.87951 25.9215C7.92217 26.0077 7.9676 26.0938 8.01489 26.179C7.95462 26.1614 7.89157 26.1448 7.82388 26.1309C7.83873 26.0602 7.8573 25.9903 7.87951 25.9215Z" fill="#5BC817"/>
<path d="M31.3043 60.6061C31.3254 60.5791 31.3539 60.559 31.3864 60.548C31.4188 60.5371 31.4537 60.5358 31.4869 60.5443C31.52 60.5529 31.5499 60.5709 31.573 60.5962C31.5961 60.6214 31.6113 60.6529 31.6167 60.6867C31.6835 61.1499 31.6501 61.6131 31.7744 62.068C31.8209 62.3257 31.9214 62.5707 32.0692 62.7869C32.3839 63.3261 32.8614 63.3635 33.5018 62.899C33.7605 62.3431 34.621 62.3997 34.7072 63.0473C34.8704 64.222 35.9358 64.7584 37.0021 64.234C37.9618 63.7625 38.3151 62.6785 38.4579 61.702C38.5256 61.2388 39.1329 60.8942 39.5289 61.2388C40.2215 61.8503 41.1534 61.463 41.5141 60.6829C41.8043 60.0548 41.7663 59.2933 41.6189 58.6448C41.5261 58.2417 42.1363 58.1093 42.2976 58.4595C42.8428 59.6574 43.0394 61.1332 42.012 62.1579C41.7008 62.4725 41.3108 62.698 40.8828 62.8111C40.4547 62.9242 40.0042 62.9206 39.578 62.8008C39.1301 64.2516 38.1658 65.544 36.5478 65.7896C36.1326 65.8522 35.7086 65.8205 35.3073 65.697C34.906 65.5735 34.5377 65.3613 34.2297 65.0762C33.7577 65.4468 33.117 65.4792 32.556 65.1938C32.097 64.9585 31.8142 64.5555 31.6075 64.1053C30.5671 63.2761 30.5272 61.6214 31.3043 60.6061Z" fill="#9E59CE"/>
<path d="M3.50846 63.1557C3.66052 62.6304 4.35688 62.8481 4.45795 63.2724C4.53955 63.6133 4.66565 65.2179 5.3926 64.7927C5.79873 64.5537 6.40515 64.6723 6.46264 65.2281C6.64808 67.019 8.84842 67.2802 9.31018 65.4903C9.41218 65.0956 9.92679 64.9632 10.2634 65.0808C10.6927 65.23 11.0979 65.3588 11.5615 65.2782C11.6713 65.297 11.784 65.2872 11.8889 65.2499C11.9938 65.2126 12.0873 65.1489 12.1605 65.0651C12.6124 64.8582 12.5883 64.5018 12.0882 63.9959C11.2342 63.8514 11.3844 62.5581 12.2532 62.6572C13.6265 62.8129 14.0771 61.6103 13.4957 60.5208C13.1693 59.9084 14.0576 59.5388 14.4675 59.9538C15.7656 61.2712 15.0628 63.1612 13.6636 63.8171C13.775 64.1061 13.8173 64.4171 13.787 64.7253C13.7568 65.0335 13.6548 65.3304 13.4892 65.5922C12.8179 66.678 11.5893 66.8661 10.4507 66.6419C9.31853 68.9423 5.90722 68.4948 5.25815 66.1138C3.9183 66.1064 3.12365 64.4851 3.50846 63.1557Z" fill="#9E59CE"/>
<path d="M5.62907 59.3849C6.15945 59.1997 6.47842 59.9519 5.96566 60.1937C5.70418 60.3179 5.61887 60.606 5.68749 60.8682C5.7561 61.1304 5.50761 61.3917 5.26281 61.4241C5.13329 61.439 5.00301 61.4033 4.89929 61.3244C4.79556 61.2454 4.72646 61.1294 4.70647 61.0007C4.6479 60.6662 4.70801 60.3217 4.87644 60.0267C5.04487 59.7318 5.31105 59.5048 5.62907 59.3849Z" fill="#9E59CE"/>
<path d="M11.3121 58.2361C11.7698 58.0259 12.252 57.8737 12.7475 57.7831C13.3196 57.6766 13.43 58.5548 12.868 58.6734C12.4524 58.7639 12.0499 58.9065 11.6701 59.0977C11.135 59.3664 10.7651 58.4909 11.3121 58.2361Z" fill="#9E59CE"/>
<path d="M10.9551 57.0234C11.4763 57.0234 11.3724 57.8257 10.8569 57.8257C10.3413 57.8257 10.4415 57.0234 10.9551 57.0234Z" fill="#9E59CE"/>
<path d="M36.6369 57.5136L37.4269 56.6992C37.6253 56.4945 37.9155 56.4213 38.1408 56.6455C38.3662 56.8697 38.3105 57.1597 38.1047 57.3598L37.2906 58.151C37.1283 58.3085 36.8334 58.2612 36.6879 58.1149C36.5423 57.9685 36.4746 57.6757 36.6369 57.5136Z" fill="#9E59CE"/>
<path d="M35.7903 56.9956C35.8394 56.8733 35.8876 56.7519 35.9368 56.6306C35.9534 56.5836 35.9794 56.5404 36.0131 56.5037C36.0468 56.4669 36.0876 56.4374 36.133 56.4167C36.1784 56.3961 36.2276 56.3849 36.2774 56.3837C36.3273 56.3824 36.3769 56.3913 36.4233 56.4097C36.4697 56.4281 36.5119 56.4557 36.5473 56.4907C36.5828 56.5258 36.6108 56.5676 36.6297 56.6138C36.6486 56.6599 36.658 56.7094 36.6573 56.7592C36.6566 56.8091 36.6459 56.8583 36.6257 56.9039C36.5775 57.0262 36.5283 57.1475 36.4801 57.2745C36.4432 57.3659 36.3715 57.4389 36.2807 57.4775C36.19 57.516 36.0876 57.517 35.9961 57.4801C35.9046 57.4433 35.8315 57.3716 35.7929 57.2809C35.7543 57.1902 35.7534 57.0879 35.7903 56.9965V56.9956Z" fill="#9E59CE"/>
<path d="M55.9762 40.0767C56.2472 39.9638 56.4977 39.8073 56.718 39.6135C56.8311 39.5261 56.974 39.4869 57.1159 39.5042C57.2577 39.5215 57.387 39.5941 57.4756 39.7062C57.5596 39.8204 57.5968 39.9623 57.5796 40.103C57.5624 40.2437 57.492 40.3725 57.3829 40.4631C57.0548 40.7474 56.665 40.9514 56.2442 41.0588C56.0004 41.1218 55.7417 40.9059 55.6879 40.6882C55.6541 40.5687 55.6647 40.441 55.7176 40.3286C55.7706 40.2162 55.8625 40.1268 55.9762 40.0767Z" fill="#5BC817"/>
<path d="M55.5052 37.9264C56.1542 37.9264 56.0254 38.9297 55.3819 38.9297C54.7384 38.9297 54.8561 37.9264 55.5052 37.9264Z" fill="#5BC817"/>
<path d="M45.1202 38.41C45.8072 38.41 45.67 39.469 44.9904 39.469C44.3107 39.469 44.4414 38.41 45.1202 38.41Z" fill="#5BC817"/>
<path d="M43.2137 39.2624C43.8359 39.2624 43.7117 40.2213 43.096 40.2213C42.4803 40.2213 42.599 39.2624 43.2137 39.2624Z" fill="#5BC817"/>
<path d="M17.1787 17.3055C17.2866 17.8572 17.3261 18.4201 17.2965 18.9815C17.2807 19.5874 16.2524 19.6003 16.2265 18.9879C16.1942 18.475 16.1289 17.9647 16.0308 17.4602C15.9038 16.7209 17.0174 16.5921 17.1787 17.3055Z" fill="#5BC817"/>
<path d="M14.2737 16.5541C14.5111 16.467 14.8625 16.5541 14.9432 16.832C15.0146 17.0766 15.0869 17.3202 15.1583 17.5648C15.2297 17.8094 15.1583 18.1207 14.8885 18.2189C14.6511 18.3051 14.322 18.2189 14.2348 17.9493L13.9984 17.2248C13.9158 16.9682 14.0002 16.6569 14.2737 16.5541Z" fill="#5BC817"/>
<path d="M67.2811 48.5381L67.5157 49.0661C67.5405 49.1219 67.5805 49.1695 67.6311 49.2035C67.6817 49.2375 67.741 49.2566 67.8019 49.2585C67.8629 49.2605 67.9232 49.2452 67.9759 49.2144C68.0286 49.1837 68.0716 49.1387 68.0998 49.0847L69.0336 47.2975C69.0676 47.2327 69.1225 47.1812 69.1894 47.1512L71.0336 46.334C71.0894 46.3093 71.137 46.2693 71.1711 46.2187C71.2052 46.1681 71.2242 46.109 71.2262 46.048C71.2281 45.9871 71.2128 45.9268 71.182 45.8742C71.1513 45.8215 71.1062 45.7786 71.0522 45.7504L69.2607 44.8211C69.1956 44.787 69.144 44.7318 69.1142 44.6646L68.3011 42.82C68.2763 42.7643 68.2363 42.7167 68.1856 42.6826C68.135 42.6486 68.0758 42.6295 68.0148 42.6276C67.9538 42.6257 67.8935 42.641 67.8408 42.6717C67.7881 42.7025 67.7452 42.7474 67.7169 42.8015L66.7832 44.5877C66.7497 44.6529 66.6946 44.7046 66.6274 44.734L64.7776 45.5512C64.7218 45.5761 64.6743 45.6162 64.6402 45.6668C64.6062 45.7175 64.5872 45.7767 64.5852 45.8377C64.5833 45.8986 64.5986 45.9589 64.6293 46.0116C64.66 46.0644 64.705 46.1074 64.759 46.1358L66.5477 47.0678C66.6126 47.1018 66.6641 47.1566 66.6942 47.2234L67.2811 48.5381Z" fill="#FDE41B"/>
<path d="M6.37551 6.91155L6.60917 7.43963C6.63411 7.49531 6.67423 7.54285 6.72494 7.57683C6.77564 7.6108 6.83489 7.62985 6.89591 7.63178C6.95693 7.63371 7.01727 7.61846 7.07003 7.58776C7.12278 7.55705 7.16583 7.51214 7.19426 7.45816L8.12335 5.67103C8.15741 5.60619 8.21226 5.55464 8.27912 5.52465L10.1271 4.70567C10.1829 4.6809 10.2305 4.64093 10.2646 4.59034C10.2986 4.53975 10.3177 4.48059 10.3197 4.41965C10.3216 4.35871 10.3063 4.29845 10.2755 4.24581C10.2447 4.19316 10.1997 4.15025 10.1457 4.122L8.35701 3.19092C8.2924 3.15783 8.2408 3.10399 8.21051 3.03805L7.39268 1.19256C7.3679 1.13684 7.32789 1.08924 7.27726 1.05521C7.22663 1.02118 7.16742 1.0021 7.10642 1.00016C7.04543 0.998229 6.98513 1.01352 6.93244 1.04427C6.87974 1.07502 6.8368 1.12 6.80853 1.17403L5.87572 2.96116C5.84155 3.02624 5.78631 3.07784 5.71902 3.10754L3.87567 3.92467C3.81991 3.94943 3.77226 3.9894 3.73821 4.03999C3.70415 4.09058 3.68505 4.14974 3.68312 4.21069C3.68118 4.27163 3.69648 4.33188 3.72726 4.38453C3.75804 4.43717 3.80305 4.48008 3.85713 4.50833L5.64484 5.44127C5.70992 5.47506 5.76157 5.52994 5.79135 5.59691L6.37551 6.91155Z" fill="#FDE41B"/>
<path d="M26.5068 12.4694L26.5912 12.6547C26.6001 12.6745 26.6144 12.6915 26.6325 12.7037C26.6505 12.7158 26.6717 12.7226 26.6935 12.7233C26.7153 12.724 26.7368 12.7185 26.7556 12.7075C26.7744 12.6965 26.7897 12.6804 26.7998 12.6611L27.1318 12.0247C27.144 12.0014 27.1635 11.9828 27.1874 11.9719L27.8467 11.68C27.8666 11.6711 27.8836 11.6568 27.8958 11.6387C27.908 11.6206 27.9149 11.5994 27.9156 11.5776C27.9164 11.5558 27.911 11.5343 27.9002 11.5154C27.8893 11.4964 27.8733 11.481 27.8541 11.4706L27.2143 11.138C27.1912 11.1253 27.1727 11.1055 27.1615 11.0815L26.8694 10.4228C26.8605 10.4029 26.8462 10.3859 26.8281 10.3738C26.81 10.3617 26.7889 10.3549 26.7671 10.3542C26.7453 10.3535 26.7238 10.359 26.705 10.37C26.6862 10.381 26.6708 10.397 26.6607 10.4163L26.3269 11.0556C26.3147 11.0789 26.2947 11.0972 26.2704 11.1075L25.6111 11.4002C25.5912 11.4091 25.5742 11.4234 25.562 11.4415C25.5499 11.4595 25.5431 11.4807 25.5424 11.5024C25.5417 11.5242 25.5472 11.5457 25.5582 11.5645C25.5692 11.5833 25.5853 11.5986 25.6046 11.6087L26.2444 11.9422C26.2677 11.9541 26.286 11.9738 26.2963 11.9978L26.505 12.4675" fill="#FDE41B"/>
<path d="M18.8459 10.4895L18.9294 10.6748C18.9384 10.6947 18.9528 10.7116 18.971 10.7237C18.9891 10.7358 19.0103 10.7425 19.0321 10.7432C19.0539 10.7439 19.0755 10.7384 19.0944 10.7275C19.1133 10.7166 19.1287 10.7006 19.1389 10.6813L19.4718 10.042C19.4843 10.0189 19.5042 10.0007 19.5284 9.99016L20.1876 9.6974C20.2075 9.68855 20.2245 9.67426 20.2367 9.65619C20.2488 9.63811 20.2557 9.61698 20.2563 9.59521C20.257 9.57345 20.2515 9.55193 20.2405 9.53314C20.2295 9.51434 20.2134 9.49903 20.1941 9.48895L19.5543 9.15543C19.5311 9.14351 19.5127 9.12385 19.5024 9.09984L19.2094 8.44114C19.2005 8.42124 19.1862 8.40425 19.1681 8.39211C19.15 8.37997 19.1289 8.37317 19.1071 8.37249C19.0853 8.37182 19.0638 8.37729 19.045 8.38828C19.0262 8.39928 19.0109 8.41535 19.0008 8.43465L18.667 9.07298C18.6548 9.09625 18.6352 9.11482 18.6113 9.12578L17.9521 9.42132C17.9322 9.43034 17.9152 9.44474 17.9031 9.46288C17.891 9.48103 17.8843 9.5022 17.8836 9.52399C17.8829 9.54579 17.8884 9.56733 17.8993 9.58619C17.9103 9.60505 17.9263 9.62047 17.9456 9.6307L18.5844 9.9633C18.6076 9.97608 18.6261 9.99586 18.6373 10.0198L18.8459 10.4895Z" fill="#FDE41B"/>
<path d="M64.0358 53.7725L64.1192 53.9578C64.1283 53.9776 64.1427 53.9945 64.1608 54.0066C64.179 54.0187 64.2002 54.0255 64.222 54.0262C64.2438 54.0268 64.2654 54.0214 64.2843 54.0105C64.3031 53.9995 64.3186 53.9835 64.3288 53.9642L64.6617 53.325C64.6742 53.3019 64.6941 53.2836 64.7182 53.2731L65.3775 52.9804C65.3974 52.9715 65.4144 52.9572 65.4266 52.9391C65.4387 52.9211 65.4455 52.8999 65.4462 52.8782C65.4469 52.8564 65.4414 52.8349 65.4304 52.8161C65.4194 52.7973 65.4033 52.782 65.384 52.7719L64.7442 52.4384C64.7209 52.4265 64.7026 52.4068 64.6923 52.3828L64.3993 51.7241C64.3905 51.7042 64.3763 51.6871 64.3582 51.6749C64.3402 51.6627 64.3191 51.6558 64.2973 51.655C64.2755 51.6542 64.2539 51.6596 64.2351 51.6705C64.2162 51.6814 64.2008 51.6974 64.1906 51.7167L63.8568 52.3559C63.8447 52.3792 63.8251 52.3978 63.8012 52.4088L63.1419 52.7006C63.122 52.7094 63.105 52.7237 63.0929 52.7418C63.0807 52.7599 63.0739 52.781 63.0732 52.8028C63.0726 52.8245 63.078 52.846 63.089 52.8648C63.1 52.8836 63.1161 52.899 63.1354 52.909L63.7743 53.2426C63.7977 53.2551 63.8162 53.2749 63.8272 53.2991L64.0358 53.7688" fill="#FDE41B"/>
<path d="M62.8304 48.3L62.9148 48.4852C62.9236 48.5051 62.9379 48.5221 62.956 48.5343C62.9741 48.5464 62.9953 48.5532 63.017 48.5539C63.0388 48.5546 63.0603 48.5491 63.0792 48.5381C63.098 48.5271 63.1133 48.511 63.1234 48.4917L63.4572 47.8525C63.4691 47.8292 63.4888 47.8109 63.5128 47.8006L64.1721 47.5078C64.192 47.499 64.209 47.4847 64.2212 47.4666C64.2333 47.4485 64.2401 47.4274 64.2408 47.4056C64.2415 47.3839 64.236 47.3624 64.225 47.3436C64.214 47.3248 64.1979 47.3095 64.1786 47.2994L63.5397 46.9659C63.5164 46.9537 63.4978 46.9341 63.4869 46.9103L63.1948 46.2516C63.1858 46.2317 63.1713 46.2148 63.1532 46.2027C63.135 46.1906 63.1138 46.1838 63.092 46.1832C63.0702 46.1825 63.0486 46.1879 63.0298 46.1989C63.0109 46.2098 62.9955 46.2258 62.9852 46.2451L62.6514 46.8834C62.6392 46.9067 62.6197 46.9253 62.5958 46.9362L61.9365 47.2299C61.9166 47.2388 61.8996 47.253 61.8875 47.2711C61.8753 47.2892 61.8685 47.3103 61.8678 47.3321C61.8671 47.3539 61.8726 47.3754 61.8836 47.3942C61.8946 47.413 61.9107 47.4283 61.93 47.4384L62.5698 47.7719C62.5932 47.7842 62.6115 47.8041 62.6218 47.8284L62.8304 48.2981" fill="#FDE41B"/>
<path d="M6.7937 14.6095L6.87808 14.7947C6.88694 14.8146 6.90124 14.8316 6.91933 14.8438C6.93742 14.8559 6.95857 14.8627 6.98035 14.8634C7.00214 14.8641 7.02367 14.8586 7.04248 14.8476C7.06129 14.8366 7.07662 14.8205 7.08671 14.8012L7.42051 14.162C7.43244 14.1387 7.45212 14.1204 7.47615 14.1101L8.13541 13.8173C8.15537 13.8086 8.17244 13.7944 8.18468 13.7763C8.19692 13.7583 8.20382 13.7372 8.2046 13.7154C8.20537 13.6937 8.19999 13.6721 8.18906 13.6533C8.17814 13.6344 8.16211 13.619 8.14283 13.6089L7.50304 13.2754C7.47974 13.2632 7.46115 13.2436 7.45018 13.2198L7.1581 12.5611C7.14924 12.5412 7.13494 12.5242 7.11685 12.512C7.09876 12.4999 7.07761 12.4931 7.05582 12.4924C7.03404 12.4917 7.01251 12.4972 6.9937 12.5082C6.97489 12.5192 6.95956 12.5353 6.94947 12.5546L6.61567 13.1929C6.60327 13.216 6.58377 13.2345 6.56003 13.2457L5.89799 13.5413C5.87812 13.5503 5.86117 13.5647 5.84907 13.5828C5.83697 13.601 5.8302 13.6221 5.82952 13.6439C5.82885 13.6657 5.8343 13.6873 5.84525 13.7061C5.8562 13.725 5.87222 13.7404 5.8915 13.7506L6.53129 14.0832C6.55443 14.0957 6.57271 14.1156 6.58322 14.1397L6.79184 14.6095" fill="#FDE41B"/>
<path d="M61.5109 15.2673C56.936 11.0621 50.7077 8.60426 44.4841 8.60611C38.5627 8.60611 32.6201 10.9287 28.7405 15.4869C26.3965 18.2412 24.7692 21.5644 23.4497 24.908C23.357 25.1507 23.0547 25.2739 22.8479 25.0664C21.0593 23.2682 17.8872 23.7694 16.2386 25.5092C14.7949 27.0351 14.4768 29.392 15.0128 31.3644C15.3243 32.5151 15.94 33.5638 16.8589 34.3291C17.215 34.6265 16.7031 35.1323 16.3498 34.8377C14.4954 33.2887 13.7907 30.6863 14.1449 28.3525C14.3145 27.183 14.8082 26.0842 15.57 25.1804C16.4157 24.1974 17.6452 23.5507 18.9155 23.3228C20.5085 23.0375 22.1914 23.3877 23.357 24.5596L22.7552 24.7171C23.9782 21.62 25.4442 18.572 27.4758 15.9158C29.3515 13.4497 31.7839 11.4612 34.5747 10.1125C40.2438 7.38227 46.8624 7.27202 52.7727 9.29261C56.1999 10.4568 59.3486 12.318 62.02 14.7587C62.3612 15.0718 61.8522 15.5795 61.5109 15.2664V15.2673Z" fill="#400705"/>
<path d="M72.6721 48.2888C72.1463 44.6978 71.4379 41.1328 70.6553 37.5901C69.7791 33.6202 68.8008 29.6652 67.5899 25.7815C67.0335 23.9925 66.4345 22.2073 65.69 20.4859C65.5045 20.0662 66.1285 19.6993 66.3112 20.1237C67.7531 23.4589 68.7563 26.984 69.6817 30.4897C70.7258 34.4426 71.6302 38.4304 72.3948 42.453C72.7555 44.3273 73.0893 46.208 73.3656 48.097C73.4315 48.55 72.7388 48.7455 72.6721 48.2888Z" fill="#400705"/>
<path d="M28.7451 29.693C28.503 29.2773 28.1891 28.9078 27.8179 28.6017C27.6383 28.4543 27.4456 28.3237 27.2421 28.2116C27.0455 28.1014 26.8174 27.9698 26.593 27.9439C26.5384 27.9374 26.4831 27.9428 26.4307 27.9596C26.4836 27.943 26.3909 27.9809 26.3695 27.9967C26.4252 27.9578 26.3399 28.03 26.3278 28.0467C26.3705 27.9921 26.3102 28.0875 26.3009 28.1069C26.3287 28.0467 26.2889 28.1514 26.2833 28.1755C26.2777 28.1996 26.274 28.219 26.2703 28.2413C26.2805 28.1783 26.2703 28.2357 26.2703 28.2487C26.2703 28.2959 26.2703 28.3413 26.2703 28.3895C26.2703 28.4136 26.2722 28.4377 26.2759 28.4618C26.2703 28.4099 26.2759 28.471 26.2814 28.4923C26.298 28.5817 26.3234 28.6693 26.3575 28.7536C26.3352 28.6999 26.3927 28.8185 26.3983 28.8277C26.4289 28.8814 26.4632 28.9333 26.4984 28.9834C26.6158 29.1404 26.7551 29.2798 26.912 29.3975C27.254 29.6513 27.6648 29.796 28.0905 29.8125C28.1977 29.8175 28.3051 29.8122 28.4113 29.7968C28.4577 29.7919 28.5031 29.7797 28.5458 29.7607C28.5198 29.7773 28.5458 29.7449 28.5458 29.7514C28.5337 29.7857 28.555 29.7125 28.556 29.7051C28.5652 29.6439 28.556 29.7495 28.556 29.6856C28.556 29.6699 28.5476 29.5605 28.556 29.5995C28.5368 29.4926 28.5057 29.3881 28.4632 29.2882C28.2939 28.8971 28.0317 28.5531 27.6994 28.2861C27.367 28.0191 26.9745 27.8371 26.5559 27.7558C26.5114 27.7455 26.4661 27.7389 26.4205 27.7364C26.4279 27.7364 26.3352 27.7364 26.3352 27.7364C26.3408 27.766 26.4205 27.6789 26.4279 27.6743C26.4215 27.6863 26.4595 27.6011 26.4446 27.6094C26.4446 27.6094 26.453 27.652 26.4641 27.678C26.4641 27.678 26.5123 27.7577 26.5244 27.7753C26.6881 27.9911 26.8784 28.1853 27.0909 28.3534C27.5086 28.6903 27.9986 28.9262 28.5226 29.0427L28.1164 29.5707C27.9979 29.3474 27.8325 29.1523 27.6315 28.9988C27.4305 28.8452 27.1986 28.737 26.9518 28.6813C26.9333 28.6813 26.8786 28.6767 26.8656 28.6647C26.8869 28.6841 27.0566 28.5183 27.0677 28.5136C27.0993 28.4988 27.0269 28.434 27.0807 28.5136L27.0937 28.5331C27.154 28.6387 27.2324 28.7328 27.3255 28.811C27.5073 28.9598 27.7349 29.0413 27.9699 29.0417L27.6232 29.3058C27.6599 29.1735 27.6631 29.0341 27.6323 28.9003C27.6016 28.7666 27.5379 28.6425 27.447 28.5396C27.4032 28.4902 27.353 28.4469 27.2977 28.4108C27.2415 28.3832 27.1832 28.36 27.1234 28.3413C27.102 28.3321 27.065 28.3413 27.0826 28.3413C27.1085 28.3163 27.1058 28.3191 27.0761 28.3487L27.0928 28.3321C27.1048 28.2969 27.1039 28.3006 27.0928 28.3413C27.0928 28.3061 27.0928 28.3024 27.0928 28.3284C27.0928 28.3543 27.0928 28.3506 27.0928 28.3126C27.0881 28.293 27.0794 28.2746 27.0671 28.2586C27.0548 28.2426 27.0392 28.2294 27.0214 28.22C27.1016 28.2701 27.1596 28.3489 27.1836 28.4404C27.2076 28.5318 27.1956 28.629 27.1503 28.7119C27.0575 28.8676 26.8174 28.9546 26.6588 28.8407C26.5825 28.7879 26.5183 28.7196 26.4705 28.6402C26.4226 28.5608 26.3921 28.4721 26.3811 28.3801C26.37 28.2881 26.3787 28.1947 26.4064 28.1063C26.4341 28.0178 26.4804 27.9363 26.542 27.867C26.81 27.5464 27.2838 27.5826 27.6157 27.7669C28.2129 28.0949 28.491 28.8555 28.3121 29.4975C28.2896 29.5725 28.2439 29.6384 28.1816 29.6859C28.1193 29.7333 28.0436 29.7598 27.9653 29.7616C27.5163 29.7592 27.0851 29.5855 26.7599 29.2761C26.4576 28.9889 26.0941 28.3497 26.5744 28.0384C26.9379 27.8021 27.5406 28.0884 27.8652 28.2913C28.228 28.5175 28.5263 28.8334 28.7312 29.2085C28.765 29.2704 28.7801 29.3408 28.7746 29.4112C28.7691 29.4815 28.7432 29.5487 28.7002 29.6047C28.6572 29.6606 28.5988 29.7028 28.5322 29.7263C28.4656 29.7497 28.3937 29.7533 28.3251 29.7366C27.6893 29.5853 27.0966 29.2909 26.5921 28.8759C26.1794 28.5396 25.3403 27.7493 25.8939 27.1972C26.1526 26.9396 26.5513 27.0119 26.8693 27.0878C27.1544 27.1585 27.4286 27.2676 27.6843 27.4121C28.2112 27.7071 28.6485 28.139 28.95 28.6619C29.2365 29.1649 29.5407 30.0516 28.8657 30.3971C28.5875 30.5407 28.2221 30.5491 27.9171 30.5194C27.6048 30.4889 27.2994 30.4091 27.0121 30.2832C26.4864 30.0534 25.9717 29.6254 25.7251 29.0973C25.4942 28.6035 25.4469 27.9457 25.8364 27.5159C26.3927 26.9016 27.3283 27.3926 27.8819 27.7614C28.4906 28.1639 28.9983 28.7013 29.3654 29.3317C29.5982 29.7319 28.9769 30.0951 28.7451 29.694V29.693Z" fill="#400705"/>
<path d="M34.5255 33.3433C33.8472 33.0619 33.1402 32.8553 32.417 32.7272L32.8593 32.2843C33.0211 33.1543 33.2407 34.0126 33.5167 34.8534C33.5399 34.9446 33.5264 35.0413 33.479 35.1226C33.4317 35.204 33.3543 35.2635 33.2635 35.2885C33.1727 35.3135 33.0757 35.3019 32.9934 35.2562C32.911 35.2106 32.8499 35.1345 32.8231 35.0442C32.5467 34.2039 32.3271 33.3459 32.1657 32.4761C32.1529 32.416 32.1553 32.3536 32.1727 32.2946C32.1901 32.2357 32.2218 32.1819 32.2651 32.1383C32.3085 32.0946 32.362 32.0624 32.4209 32.0446C32.4797 32.0267 32.5421 32.0238 32.6024 32.0361C33.3271 32.1647 34.0356 32.3716 34.7156 32.6531C34.8946 32.7281 35.0225 32.8912 34.966 33.095C34.9196 33.2645 34.7045 33.4211 34.5237 33.3461L34.5255 33.3433Z" fill="#400705"/>
<path d="M24.7209 24.2992C25.1688 24.604 25.4043 25.2257 25.1938 25.738C25.1408 25.8819 25.0566 26.0122 24.9472 26.1197C24.8399 26.2177 24.7137 26.2928 24.5763 26.3402C24.3457 26.4185 24.0957 26.4185 23.8651 26.3402C23.717 26.294 23.5817 26.2139 23.47 26.1063C23.3583 25.9988 23.2732 25.8666 23.2216 25.7204C23.1968 25.6287 23.2091 25.5308 23.256 25.4481C23.3028 25.3654 23.3804 25.3045 23.4719 25.2785C23.5639 25.2559 23.6611 25.2693 23.7435 25.316C23.8259 25.3626 23.8874 25.4391 23.9152 25.5296C23.9374 25.5926 23.9105 25.5055 23.8994 25.4953C23.9077 25.5027 23.9124 25.5222 23.9179 25.5323C23.9383 25.5685 24.0005 25.625 23.9179 25.5379C23.9365 25.5574 23.9532 25.5777 23.9726 25.5963C23.9921 25.6148 23.994 25.6139 24.0032 25.6231C23.9235 25.5481 23.9467 25.5805 23.9736 25.5991C24.0005 25.6176 24.0199 25.6278 24.044 25.6407C24.0569 25.6455 24.0693 25.6514 24.0811 25.6583C24.0682 25.6472 23.9884 25.6213 24.0468 25.6426C24.0991 25.6614 24.1532 25.6748 24.2082 25.6824L24.1154 25.6695C24.185 25.6783 24.2554 25.6783 24.325 25.6695L24.2323 25.6824C24.2667 25.678 24.3008 25.6712 24.3343 25.6621C24.35 25.6584 24.3655 25.6538 24.3806 25.6482C24.4585 25.6213 24.3074 25.6843 24.3584 25.6583C24.3877 25.6448 24.4159 25.629 24.4428 25.6111C24.4965 25.575 24.4224 25.6204 24.4149 25.6352C24.4214 25.6222 24.4455 25.6083 24.4557 25.5981C24.4659 25.5879 24.4798 25.5722 24.491 25.5601C24.5429 25.5055 24.4446 25.6296 24.478 25.5777C24.4965 25.5472 24.5142 25.5175 24.5308 25.4851C24.5587 25.4332 24.4947 25.5824 24.5244 25.5008L24.5383 25.4582C24.5491 25.4187 24.5571 25.3784 24.5624 25.3378L24.5494 25.4304C24.5591 25.3535 24.5591 25.2757 24.5494 25.1988C24.5494 25.2303 24.5577 25.2628 24.5624 25.2915C24.5537 25.2349 24.5404 25.1791 24.5225 25.1247L24.5086 25.0877C24.4956 25.0478 24.5485 25.1738 24.5234 25.1238C24.5114 25.0978 24.4984 25.0719 24.4845 25.0469C24.4706 25.0219 24.4567 25.0033 24.4428 24.9811C24.4057 24.9264 24.465 25.0108 24.4659 25.0108C24.4565 24.9983 24.4463 24.9866 24.4353 24.9756C24.418 24.9564 24.3998 24.9382 24.3806 24.9209C24.3695 24.9096 24.3574 24.8994 24.3445 24.8903C24.3491 24.8903 24.4298 24.9524 24.3667 24.9098C24.2865 24.8597 24.2285 24.7808 24.2045 24.6894C24.1805 24.5979 24.1925 24.5008 24.2378 24.4178C24.3371 24.264 24.5633 24.176 24.7302 24.289L24.7209 24.2992Z" fill="#400705"/>
<path d="M60.9035 15.6378C61.6054 14.8877 62.4635 14.3008 63.4173 13.9183C64.3557 13.5329 65.2912 13.4486 66.2213 13.8933C68.1035 14.7938 69.1634 17.148 68.1916 19.0722C67.9383 19.5854 67.5522 20.0217 67.0734 20.3357C66.5945 20.6498 66.0404 20.8302 65.4683 20.8584C65.0047 20.8751 65.0047 20.1561 65.4683 20.1395C66.313 20.108 67.0446 19.6095 67.4702 18.8906C67.6819 18.5266 67.8089 18.1197 67.842 17.7001C67.875 17.2804 67.8133 16.8587 67.6612 16.4661C67.3585 15.6768 66.7856 15.0203 66.0441 14.6132C65.2903 14.1972 64.5606 14.2528 63.7696 14.5502C62.8707 14.8939 62.0637 15.4409 61.4117 16.1483C61.1001 16.4911 60.592 15.9815 60.9035 15.6406V15.6378Z" fill="#400705"/>
<path d="M48.3228 8.3328C48.3942 7.73955 48.265 7.13948 47.9556 6.6281C47.6463 6.11673 47.1746 5.72343 46.6158 5.51082C45.5587 5.08373 44.2328 5.19305 43.3788 5.99721C42.7909 6.55308 42.5201 7.33037 42.4589 8.12157C42.4237 8.57923 41.7033 8.58479 41.7394 8.12157C41.8664 6.48267 42.802 5.01517 44.4785 4.64274C45.8619 4.33515 47.4429 4.78726 48.3413 5.91012C48.8857 6.59476 49.1376 7.46639 49.0423 8.33558C48.9969 8.79139 48.2774 8.7988 48.3228 8.33558V8.3328Z" fill="#400705"/>
<path d="M23.1066 15.9028C22.6244 15.5035 22.1098 15.069 21.4848 14.9273C21.0268 14.8216 20.4491 14.9171 20.1672 15.3256C20.1388 15.3722 20.1002 15.4118 20.0544 15.4416C20.0085 15.4713 19.9566 15.4904 19.9024 15.4974C19.8483 15.5044 19.7932 15.4992 19.7413 15.4821C19.6894 15.4651 19.642 15.4366 19.6026 15.3988C18.4843 14.2676 16.8876 13.7173 15.3085 13.834C13.9242 13.9369 11.8777 14.7688 11.9019 16.4281C11.9011 16.4832 11.8878 16.5374 11.863 16.5866C11.8382 16.6358 11.8025 16.6787 11.7587 16.7121C11.7148 16.7455 11.6639 16.7685 11.6098 16.7793C11.5558 16.7901 11.4999 16.7885 11.4466 16.7746C9.66999 16.379 8.00096 17.7844 7.38157 19.3529C6.99955 20.3146 6.89199 21.3531 6.91053 22.3806C6.9188 22.9072 6.95626 23.433 7.02273 23.9555C7.04405 24.1242 7.15069 24.7727 7.39362 24.7356C7.42638 24.9709 7.45729 25.2063 7.48635 25.4416C6.981 25.4166 6.87715 26.104 6.91888 26.4875C6.98471 27.0851 7.41866 27.6475 7.82757 28.0625C8.29953 28.5443 8.86515 28.9232 9.44003 29.2734C9.6839 29.4216 9.9426 29.6152 10.2152 29.7033C10.3358 29.7369 10.461 29.7516 10.5861 29.7468C10.616 29.7414 10.6452 29.7327 10.6733 29.7209C10.626 29.7301 10.639 29.87 10.626 29.732C10.5833 29.2688 11.3029 29.2743 11.3455 29.732C11.4382 30.6853 10.1401 30.5037 9.62456 30.2137C8.80673 29.7505 7.98334 29.2419 7.31852 28.5711C6.72508 27.9726 6.16781 27.1509 6.19285 26.2735C6.21325 25.5324 6.63607 24.6837 7.48542 24.7254C7.86651 24.744 8.00282 25.3665 7.57814 25.4314C6.72879 25.562 6.39035 24.7088 6.30504 24.0102C6.18543 23.0208 6.13351 22.01 6.24663 21.0168C6.45618 19.1973 7.26659 17.45 8.92078 16.5217C9.74068 16.0432 10.7093 15.8863 11.6385 16.0816L11.1832 16.4281C11.1573 14.4344 13.34 13.3449 15.0498 13.1411C15.9708 13.0344 16.904 13.1363 17.7803 13.4391C18.6565 13.7419 19.4533 14.2378 20.1116 14.8902L19.5469 14.9625C19.9688 14.3519 20.6958 14.1009 21.4209 14.1917C22.2804 14.2991 22.9721 14.8606 23.6166 15.396C23.9736 15.6916 23.4617 16.1974 23.1075 15.9037L23.1066 15.9028Z" fill="#400705"/>
<path d="M25.3644 17.2462C25.4701 17.5637 25.5761 17.8815 25.6825 18.1995C25.707 18.2914 25.6944 18.3892 25.6474 18.4719C25.6004 18.5546 25.5227 18.6155 25.4312 18.6415C25.3393 18.6638 25.2424 18.6503 25.1602 18.6036C25.078 18.557 25.0167 18.4807 24.9889 18.3904C24.8826 18.0723 24.7765 17.7545 24.6708 17.4371C24.6463 17.3452 24.6589 17.2474 24.7059 17.1647C24.7529 17.082 24.8306 17.0211 24.9221 16.9952C25.014 16.9728 25.1109 16.9863 25.1931 17.033C25.2753 17.0797 25.3366 17.1559 25.3644 17.2462Z" fill="#400705"/>
<path d="M12.0261 30.841V31.1588C12.0214 31.2531 11.9841 31.3429 11.9204 31.4126C11.8508 31.4765 11.7608 31.5135 11.6663 31.5173L11.5736 31.5053C11.5137 31.4886 11.4591 31.4566 11.4151 31.4126C11.3956 31.3886 11.377 31.3635 11.3585 31.3395C11.3253 31.2834 11.3083 31.2193 11.3094 31.1542V30.841C11.3073 30.7928 11.3179 30.7449 11.34 30.7021C11.3683 30.638 11.4143 30.5832 11.4726 30.5442C11.5309 30.5052 11.599 30.4835 11.6691 30.4816L11.7619 30.4945C11.822 30.5108 11.8767 30.5428 11.9204 30.5872L11.977 30.6604C12.01 30.7165 12.027 30.7806 12.0261 30.8457V30.841Z" fill="#400705"/>
<path d="M25.8855 32.0852L24.4223 31.2875L24.9147 31.1587C24.2526 32.2674 23.6826 33.4284 23.2104 34.6302C22.9811 35.2206 22.7737 35.8194 22.5883 36.4266C22.4993 36.7212 22.4161 37.0173 22.3388 37.315C22.2957 37.4589 22.2598 37.6048 22.2313 37.7523C22.2239 37.8051 22.2313 37.8626 22.2239 37.9126C22.21 37.9811 22.2814 37.9941 22.1933 37.9589L21.9151 37.995C23.8437 36.5696 25.3498 34.6486 26.2731 32.4363C26.4474 32.0148 27.1438 32.1992 26.9667 32.6272C26.164 34.5814 24.9316 36.3302 23.3607 37.744C23.169 37.9157 22.9725 38.0815 22.7709 38.2415C22.5901 38.3841 22.3351 38.6667 22.0941 38.6686C21.623 38.6686 21.47 38.1016 21.5099 37.7328C21.5692 37.177 21.7742 36.6137 21.9383 36.0828C22.1145 35.5121 22.3116 34.9486 22.5299 34.3921C23.0177 33.1491 23.6053 31.9476 24.287 30.7993C24.3371 30.7191 24.416 30.6611 24.5076 30.6372C24.5991 30.6133 24.6963 30.6252 24.7793 30.6705L26.2416 31.4682C26.6486 31.6896 26.2861 32.3103 25.879 32.0889L25.8855 32.0852Z" fill="#400705"/>
<path d="M50.4564 35.2277C49.9269 33.7102 48.5889 32.2343 46.8921 32.1352C45.3455 32.0426 43.7145 33.3452 43.8823 34.9711C43.912 35.2685 43.5605 35.3852 43.3408 35.2815C41.8906 34.5996 40.1075 34.8608 38.8288 35.791C37.4899 36.7656 36.9447 38.4907 37.2757 40.086C37.4539 40.989 37.9131 41.8126 38.5878 42.4392C38.8835 42.7107 38.495 43.2378 38.152 43.0034C37.3174 42.4318 36.2762 43.0535 35.9053 43.8687C35.4528 44.8628 35.6503 46.0978 35.9442 47.1113C36.5515 49.194 38.0768 51.0089 40.1817 51.6658C41.383 52.0522 42.6796 52.0224 43.8619 51.5815C43.9383 51.5604 44.0195 51.5652 44.093 51.595C44.1664 51.6248 44.228 51.678 44.268 51.7464C44.9672 53.3936 46.1994 54.9232 47.8842 55.6227C49.4856 56.2869 51.315 55.9812 52.5742 54.762C53.2316 54.1237 53.6387 53.2797 53.6174 52.3597C53.6174 52.1457 53.8547 51.928 54.0736 52.0132C55.4041 52.5376 56.948 51.8974 57.7371 50.7477C58.707 49.3311 58.528 47.418 57.8298 45.9301C57.7065 45.667 57.8585 45.4215 58.1404 45.3891C59.6444 45.2177 61.1808 43.9855 61.2726 42.3985C61.3589 40.9161 59.9012 39.3616 58.3648 39.7275C58.3008 39.4968 58.2369 39.2643 58.1738 39.0345C59.3097 38.7788 59.6574 37.2659 59.1391 36.3358C58.4177 35.0304 56.5827 34.9618 55.3429 35.4186C55.0648 35.5205 54.8524 35.2203 54.9006 34.9757C55.0268 34.3272 54.5437 33.5953 53.8807 33.4934C53.1927 33.3887 52.5631 33.9344 52.4509 34.5894C52.3721 35.0443 51.6785 34.8516 51.7573 34.3985C51.9372 33.3517 53.0304 32.6012 54.0754 32.7995C55.1408 33.0033 55.8001 34.1382 55.5998 35.1656L55.1584 34.7228C56.7347 34.1447 59.0278 34.405 59.8289 36.0912C60.4548 37.4114 59.9309 39.3755 58.3713 39.7256C57.9207 39.8266 57.7278 39.1401 58.1803 39.0327C59.7093 38.6686 61.1984 39.6914 61.7687 41.0866C62.364 42.5411 61.7177 44.1597 60.5373 45.1093C59.8525 45.6633 59.0228 46.0093 58.1469 46.1061L58.4575 45.566C59.2661 47.2985 59.4895 49.5442 58.3147 51.1785C57.343 52.5292 55.5006 53.3417 53.8853 52.7062L54.3406 52.3597C54.386 54.3173 52.8496 55.8997 51.0665 56.4732C49.1138 57.1022 47.0673 56.3286 45.6199 54.9723C44.7706 54.1651 44.0987 53.1902 43.6468 52.1096L44.0529 52.2745C41.5855 53.213 38.7203 52.356 36.9799 50.428C36.1547 49.5061 35.5543 48.4057 35.2256 47.2132C34.8881 46.0089 34.7332 44.5803 35.3257 43.4259C35.8913 42.3225 37.4046 41.6212 38.5145 42.3874L38.0787 42.9516C36.6767 41.6647 36.1463 39.5811 36.6498 37.7634C37.1533 35.9457 38.7519 34.6079 40.6036 34.2781C41.6523 34.0818 42.7363 34.2185 43.7033 34.6691L43.1627 34.9785C43.0042 33.4369 44.1827 32.1065 45.5736 31.6173C47.0673 31.0911 48.6733 31.71 49.7535 32.7837C50.3816 33.423 50.857 34.1958 51.1444 35.0443C51.2974 35.4825 50.602 35.6706 50.4508 35.2351L50.4564 35.2277Z" fill="#400705"/>
<path d="M53.5014 28.548C52.5637 28.0379 51.5719 27.6339 50.5445 27.3437C50.1003 27.2177 50.2895 26.5237 50.7364 26.6497C51.823 26.9572 52.8719 27.3845 53.864 27.9236C54.271 28.145 53.9085 28.7658 53.5014 28.5443V28.548Z" fill="#400705"/>
<path d="M60.898 48.2833L60.4418 50.7208C60.4066 50.9116 60.1757 51.02 59.9995 50.9719C59.9091 50.9441 59.8328 50.8829 59.7861 50.8007C59.7394 50.7186 59.7258 50.6217 59.7482 50.5299L60.2044 48.0915C60.2406 47.9007 60.4705 47.7923 60.6467 47.8404C60.7373 47.8682 60.8138 47.9296 60.8605 48.0119C60.9072 48.0943 60.9206 48.1914 60.898 48.2833Z" fill="#400705"/>
<path d="M62.2666 49.3487C62.2156 49.6025 62.1655 49.8564 62.1145 50.1102C62.0894 50.2005 62.0303 50.2775 61.9495 50.3251C61.8651 50.3731 61.7652 50.3861 61.6713 50.3613C61.581 50.3361 61.5039 50.277 61.4562 50.1964C61.4103 50.1113 61.3975 50.0124 61.42 49.9184C61.471 49.6646 61.5211 49.4107 61.5721 49.1569C61.5972 49.0666 61.6564 48.9896 61.7372 48.9419C61.8216 48.894 61.9214 48.881 62.0153 48.9058C62.1058 48.9306 62.183 48.9898 62.2305 49.0707C62.2763 49.1558 62.2892 49.2547 62.2666 49.3487Z" fill="#400705"/>
<path d="M55.5748 27.2574C54.8713 26.6012 54.069 26.0594 53.1973 25.6519C53.0221 25.5694 52.9766 25.3174 53.0684 25.1599C53.1186 25.0798 53.1975 25.0218 53.289 24.9979C53.3805 24.9739 53.4778 24.9858 53.5608 25.0312C54.4857 25.4697 55.3366 26.0495 56.0829 26.7497C56.1503 26.8171 56.1881 26.9084 56.1881 27.0036C56.1881 27.0988 56.1503 27.1901 56.0829 27.2574C56.0155 27.3248 55.9241 27.3626 55.8288 27.3626C55.7335 27.3626 55.6421 27.3248 55.5748 27.2574Z" fill="#400705"/>
<path d="M15.5987 9.95505L13.6163 11.0214C13.5341 11.0666 13.4375 11.0778 13.347 11.0528C13.2566 11.0278 13.1796 10.9685 13.1323 10.8876C13.085 10.8066 13.0712 10.7104 13.0939 10.6194C13.1166 10.5285 13.174 10.45 13.2538 10.4007L15.2353 9.33804C15.2761 9.31419 15.3211 9.29861 15.368 9.29217C15.4148 9.28574 15.4624 9.28858 15.5081 9.30054C15.5539 9.3125 15.5968 9.33334 15.6344 9.36187C15.6721 9.39039 15.7038 9.42606 15.7276 9.46681C15.7515 9.50757 15.7671 9.55263 15.7735 9.59941C15.78 9.64619 15.7771 9.69378 15.7652 9.73946C15.7532 9.78514 15.7323 9.82802 15.7038 9.86565C15.6752 9.90327 15.6395 9.93491 15.5987 9.95876V9.95505Z" fill="#400705"/>
<path d="M13.2324 8.98506L12.0122 10.2033C11.9442 10.2677 11.8537 10.303 11.7601 10.3018C11.6664 10.3006 11.5769 10.2629 11.5106 10.1968C11.4443 10.1307 11.4064 10.0413 11.405 9.94773C11.4036 9.85415 11.4388 9.76371 11.5031 9.69564L12.7234 8.47643C12.7909 8.40899 12.8824 8.37109 12.9779 8.37109C13.0734 8.37109 13.1649 8.40899 13.2324 8.47643C13.2999 8.54388 13.3379 8.63536 13.3379 8.73074C13.3379 8.82613 13.2999 8.91761 13.2324 8.98506Z" fill="#400705"/>
<path d="M17.3957 35.3546C18.8301 39.5941 20.1004 43.8863 21.5349 48.1258C21.6842 48.5649 20.9897 48.753 20.8413 48.3166C19.4069 44.08 18.1375 39.7849 16.7021 35.5455C16.5538 35.1063 17.2483 34.9183 17.3957 35.3546Z" fill="#400705"/>
<path d="M57.3207 52.2938C57.7334 52.9294 57.7232 53.7363 57.4283 54.4173C57.1334 55.0982 56.5604 55.5957 55.928 55.9385C55.3263 56.2665 54.6178 56.5444 53.9261 56.5815C53.2344 56.6185 52.6465 56.2961 52.2052 55.7857C51.9038 55.4373 52.4101 54.9268 52.7142 55.278C53.0406 55.655 53.4152 55.8903 53.9261 55.8626C54.4648 55.8338 55.0305 55.5994 55.5024 55.3511C56.005 55.0862 56.4723 54.723 56.7347 54.2079C56.9842 53.7178 57.0027 53.1212 56.6995 52.6542C56.4473 52.2642 57.0704 51.9038 57.3207 52.2911V52.2938Z" fill="#400705"/>
<path d="M33.066 56.0164C31.3043 52.8998 28.3844 50.3975 24.911 49.4164C21.4802 48.4482 17.8287 49.2005 14.9376 51.2461C13.3335 52.3725 12.0445 53.8903 11.1934 55.6551C10.9941 56.072 10.3738 55.7079 10.5722 55.2919C12.1485 51.9743 15.3502 49.5248 18.8941 48.6335C22.5818 47.7071 26.453 48.6483 29.4832 50.8931C31.2026 52.1687 32.6349 53.7907 33.6873 55.6542C33.9145 56.0572 33.2932 56.4194 33.066 56.0164Z" fill="#400705"/>
<path d="M38.8928 57.2013C38.2641 56.1016 37.0123 55.2891 35.7161 55.3567C35.4219 55.3598 35.1365 55.4572 34.902 55.6347C34.6349 55.8533 34.4569 56.1136 34.1017 56.2026C33.7828 56.2813 33.4657 56.1943 33.1476 56.1628C32.8469 56.13 32.5437 56.1974 32.2853 56.3545C31.7558 56.6704 31.4322 57.2513 31.3256 57.8452C31.2652 58.2326 31.2608 58.6267 31.3126 59.0153C31.3608 59.4461 31.5148 59.8658 31.5602 60.2929C31.5917 60.5829 31.3543 60.7561 31.2153 60.9877C31.0814 61.2159 30.9847 61.4639 30.9287 61.7224C30.8219 62.2212 30.8474 62.7392 31.0029 63.2251C31.1667 63.7813 31.5187 64.2633 31.9988 64.5888C32.3205 64.7936 32.7211 64.9594 33.1115 64.8733C33.4054 64.8121 33.6826 64.575 33.6984 64.2609L34.3688 64.4462C34.0786 64.99 34.9594 65.4653 35.3572 65.5718C35.9446 65.7175 36.5635 65.6664 37.119 65.4264C37.7078 65.1827 38.2103 64.7612 38.6443 64.3026C38.8725 64.0588 39.0876 63.803 39.2887 63.5364C39.3508 63.4558 39.8451 62.786 39.5975 62.8045L39.9081 62.2644C40.2141 62.7943 40.9373 62.7007 41.3611 62.3765C41.9035 61.9596 42.2262 61.2277 42.3755 60.5801C42.5303 59.9084 42.4766 59.1598 42.0574 58.5901C41.8813 58.3371 41.6398 58.1367 41.3586 58.0102C41.0773 57.8838 40.767 57.836 40.4607 57.8721C40.266 57.8971 40.1028 57.6868 40.101 57.5126C40.101 57.2967 40.2688 57.1781 40.4607 57.1531C41.3398 57.0364 42.1798 57.5237 42.6787 58.2269C43.235 59.0162 43.2768 60.0631 43.0181 60.9683C42.7714 61.8317 42.254 62.7832 41.4084 63.1843C40.6749 63.5327 39.7106 63.3613 39.2869 62.6285C39.1422 62.3793 39.3304 62.1087 39.5975 62.0884C40.0407 62.0541 40.3903 62.4589 40.3921 62.8851C40.3921 63.3817 39.9916 63.8041 39.7023 64.171C39.1005 64.9335 38.3819 65.6533 37.4769 66.0508C36.6498 66.4149 35.6734 66.5038 34.8268 66.1434C34.047 65.8164 33.2728 64.9585 33.742 64.0812C33.907 63.7708 34.43 63.907 34.4124 64.2664C34.366 65.1883 33.4805 65.7191 32.6172 65.5931C31.8105 65.4755 31.1096 64.9252 30.6821 64.2479C29.8912 62.9926 29.9653 61.2601 30.9603 60.14C30.9297 60.2567 30.8981 60.3735 30.8675 60.4902C30.6292 59.4785 30.4039 58.3862 30.7034 57.3616C30.9408 56.5546 31.5379 55.8274 32.3446 55.5448C32.7841 55.391 33.1856 55.4744 33.6335 55.5142C33.8811 55.5365 34.0257 55.4966 34.2028 55.3215C34.3542 55.157 34.5284 55.015 34.7202 54.9C35.5019 54.4766 36.5144 54.6156 37.3072 54.9343C38.2377 55.3041 39.0157 55.9773 39.515 56.8446C39.7449 57.2467 39.1237 57.6089 38.8937 57.2069L38.8928 57.2013Z" fill="#400705"/>
<path d="M47.3381 60.5263C47.4336 61.336 47.4336 62.1541 47.3381 62.9638C47.3149 63.1565 47.1888 63.3233 46.9783 63.3233C46.8012 63.3233 46.5953 63.1575 46.6185 62.9638C46.714 62.1541 46.714 61.336 46.6185 60.5263C46.5953 60.3327 46.804 60.1669 46.9783 60.1669C47.1916 60.1669 47.3149 60.3327 47.3381 60.5263Z" fill="#400705"/>
<path d="M46.2579 60.1262C46.3682 60.8458 46.3682 61.5781 46.2579 62.2978C46.2291 62.4831 45.9852 62.6035 45.8156 62.5488C45.725 62.521 45.6485 62.4597 45.6018 62.3773C45.555 62.295 45.5416 62.1979 45.5643 62.106C45.5643 62.106 45.581 61.9911 45.5726 62.0504C45.5791 62.0059 45.5838 61.9578 45.5884 61.9179C45.5967 61.842 45.6042 61.7651 45.6097 61.6891C45.6218 61.5307 45.6273 61.3713 45.6273 61.212C45.6273 61.0526 45.6218 60.9062 45.6106 60.7534C45.606 60.6774 45.5986 60.6005 45.5912 60.5246C45.5856 60.4801 45.581 60.4319 45.5754 60.3921C45.5754 60.3661 45.5754 60.3671 45.5754 60.3921L45.5643 60.3161C45.5355 60.1308 45.6106 59.9205 45.8156 59.8742C45.9862 59.8353 46.2273 59.9261 46.2579 60.1253V60.1262Z" fill="#400705"/>
<path d="M27.1521 52.7794C27.0774 52.8806 27.0087 52.9861 26.9463 53.0953C26.9157 53.149 26.886 53.2046 26.8535 53.2611C26.8396 53.2889 26.8267 53.3177 26.8127 53.3464L26.7877 53.4038L26.7933 53.3899C26.6969 53.6284 26.6278 53.8771 26.5874 54.1311C26.4718 53.9804 26.3562 53.8288 26.2406 53.6762L28.0738 53.867C28.2592 53.8865 28.4447 54.019 28.4336 54.2265C28.4261 54.4044 28.275 54.6073 28.0738 54.586L26.2406 54.3951C26.186 54.393 26.1325 54.3789 26.0839 54.3537C26.0354 54.3285 25.9931 54.2928 25.9599 54.2494C25.9268 54.2059 25.9037 54.1556 25.8922 54.1022C25.8808 54.0488 25.8814 53.9934 25.8939 53.9402C25.9831 53.3898 26.2014 52.8682 26.5309 52.4181C26.6412 52.2671 26.848 52.1772 27.0232 52.2893C27.1734 52.3819 27.2708 52.6191 27.1521 52.7812V52.7794Z" fill="#400705"/>
<path d="M16.6373 55.29C16.9789 55.3116 17.3173 55.3687 17.647 55.4605C17.8066 55.5058 17.9636 55.5599 18.1171 55.6226C18.2979 55.6967 18.4787 55.7783 18.5807 55.9552C18.6351 56.0516 18.6631 56.1605 18.662 56.2711C18.6608 56.3817 18.6306 56.49 18.5742 56.5852C18.4823 56.7314 18.3685 56.8626 18.2367 56.9743C17.9833 57.2214 17.7298 57.4657 17.4764 57.7071C17.409 57.7745 17.3176 57.8123 17.2223 57.8123C17.127 57.8123 17.0357 57.7745 16.9683 57.7071C16.9009 57.6398 16.863 57.5485 16.863 57.4533C16.863 57.3581 16.9009 57.2668 16.9683 57.1994L17.6127 56.5778C17.7101 56.4852 17.8139 56.3925 17.9057 56.2915C17.9261 56.2693 17.9539 56.2202 17.9233 56.2721C17.9428 56.2387 17.9576 56.1998 17.94 56.2572C17.9623 56.1822 17.9521 56.3202 17.9456 56.2489C17.9444 56.2769 17.9515 56.3046 17.966 56.3286C17.9966 56.3629 18.0021 56.3703 17.9836 56.3508C17.9651 56.3314 17.9734 56.3378 18.0077 56.3656L17.9743 56.3443C17.9511 56.3304 17.927 56.3202 17.9029 56.3082C17.8788 56.2962 17.8872 56.3008 17.9215 56.3156L17.876 56.2971L17.7676 56.2554C17.6424 56.21 17.5163 56.1702 17.3874 56.1359C17.2585 56.1016 17.1296 56.0729 16.9989 56.0506L16.9006 56.0349C16.8134 56.021 16.9442 56.0349 16.8644 56.0303C16.7847 56.0256 16.7105 56.0145 16.6335 56.009C16.5386 56.0075 16.4479 55.9692 16.3807 55.9021C16.3136 55.835 16.2752 55.7444 16.2738 55.6495C16.2821 55.4642 16.4323 55.2789 16.6335 55.29H16.6373Z" fill="#400705"/>
<path d="M23.636 53.7012C23.1261 52.9711 22.2554 52.0965 21.2707 52.4921C20.3369 52.8674 20.259 54.2061 20.4593 55.039C20.6735 55.9338 21.2257 56.7113 22.0004 57.2087C22.7264 57.6608 24.0718 57.9953 24.5512 57.0318C25.0788 55.9728 24.3231 54.7295 23.7751 53.8494C23.5303 53.4557 24.1525 53.0943 24.3964 53.4872C25.0649 54.56 25.7687 55.8959 25.2661 57.1846C24.7385 58.5336 23.1233 58.5632 21.9837 58.0184C20.9248 57.5135 20.1274 56.5028 19.8065 55.3827C19.4783 54.2376 19.6211 52.6672 20.7189 51.9715C21.2836 51.6148 22.0171 51.6129 22.6189 51.8603C23.3254 52.1475 23.8308 52.7275 24.2573 53.3426C24.5225 53.7225 23.8994 54.0838 23.636 53.7049V53.7012Z" fill="#400705"/>
<path d="M23.4645 55.1752L22.0847 55.6115C21.9935 55.6347 21.8967 55.6212 21.8153 55.5739C21.7339 55.5266 21.6742 55.4493 21.6492 55.3586C21.6242 55.2679 21.6358 55.171 21.6815 55.0887C21.7272 55.0064 21.8034 54.9453 21.8937 54.9186L23.2725 54.4822C23.3646 54.4576 23.4626 54.4702 23.5455 54.5171C23.6284 54.5641 23.6896 54.6417 23.7157 54.7333C23.7381 54.825 23.7246 54.9219 23.6779 55.004C23.6312 55.0862 23.5548 55.1474 23.4645 55.1752Z" fill="#400705"/>
<path d="M10.9162 55.9914C10.1614 55.2502 9.0747 54.6193 7.98983 54.9501C7.54634 55.0774 7.16681 55.3663 6.92629 55.7598C6.67315 56.1999 6.83357 56.8076 6.35233 57.1133C5.97124 57.3579 5.41675 57.3551 4.98373 57.47C4.5453 57.5773 4.12332 57.7431 3.72918 57.9629C2.84366 58.4789 2.48111 59.3581 2.87704 60.3346C2.99117 60.6034 3.13353 60.8593 3.30172 61.098C3.46862 61.3454 3.69765 61.5714 3.81634 61.8475C4.05649 62.4034 3.62625 62.7193 3.39352 63.1714C3.02355 63.882 3.1923 64.8325 3.69116 65.4357C4.00178 65.8118 4.38195 65.9415 4.82332 66.111C5.37039 66.3213 5.67267 66.7355 6.1131 67.0894C6.84191 67.673 7.86558 67.8556 8.765 67.6452C9.28627 67.526 9.76635 67.2702 10.1559 66.9041C10.3626 66.7123 10.5815 66.5159 10.8606 66.4409C11.1934 66.3482 11.518 66.4529 11.8527 66.4483C12.8727 66.4344 13.7146 65.3245 13.4865 64.3471C13.4664 64.2707 13.4716 64.1899 13.5013 64.1167C13.5311 64.0435 13.5838 63.982 13.6515 63.9413C14.8069 63.3604 15.2278 61.6502 14.3822 60.6339C14.2635 60.4921 14.2255 60.2633 14.3822 60.1262C14.6201 59.9257 14.7954 59.6612 14.8871 59.3641C14.9789 59.0669 14.9832 58.7497 14.8996 58.4502C14.7234 57.8638 14.2014 57.4635 13.6126 57.3551C13.212 57.281 13.3075 56.6371 13.7053 56.6492C13.7285 56.6492 13.7545 56.5806 13.7294 56.5204C13.6784 56.399 13.4513 56.3722 13.3483 56.3638C12.919 56.3305 12.5138 56.4565 12.0808 56.3851C11.6246 56.3092 11.8184 55.6162 12.2718 55.6922C12.6696 55.7589 13.0711 55.6097 13.4717 55.657C13.7906 55.694 14.1124 55.8209 14.3062 56.0915C14.6493 56.5788 14.359 57.3885 13.709 57.3672C13.7412 57.1319 13.7721 56.8965 13.8018 56.6612C14.226 56.7367 14.6202 56.9308 14.9386 57.221C15.2569 57.5112 15.4865 57.8856 15.6006 58.3008C15.7148 58.716 15.7088 59.155 15.5834 59.5669C15.458 59.9789 15.2183 60.3469 14.8922 60.6283V60.1206C16.0197 61.4704 15.6164 63.7514 14.0159 64.5565C14.071 64.4212 14.126 64.2859 14.181 64.1507C14.4286 65.2096 13.8759 66.3204 12.9413 66.8541C12.7198 66.983 12.4781 67.0736 12.2264 67.1218C11.8926 67.182 11.6014 67.1172 11.2695 67.1135C10.9375 67.1098 10.7901 67.2988 10.5666 67.5007C10.359 67.6873 10.1303 67.8489 9.88511 67.9825C9.40473 68.2377 8.87688 68.3913 8.33448 68.4337C7.79208 68.4761 7.24675 68.4064 6.7325 68.2289C6.21385 68.0467 5.74247 67.7511 5.35277 67.3636C5.13023 67.1431 4.93088 66.9272 4.63601 66.8077C4.35784 66.691 4.06298 66.6224 3.8015 66.4659C2.96699 65.9693 2.48389 64.9836 2.48575 64.0284C2.47896 63.5563 2.60075 63.0914 2.8381 62.6832C2.90857 62.5683 2.99758 62.4701 3.07455 62.3598C3.18025 62.2098 3.17654 62.1477 3.0662 61.9893C2.86128 61.6956 2.63503 61.425 2.45701 61.1119C1.87099 60.0817 1.7727 58.8477 2.61371 57.9295C3.31006 57.1689 4.39771 56.8335 5.37966 56.6427C5.52245 56.6149 5.67174 56.6001 5.81268 56.563C5.98329 56.5176 6.00276 56.4537 6.03058 56.2851C6.08158 55.9682 6.13721 55.6847 6.30133 55.4013C6.62448 54.8737 7.12615 54.4792 7.71537 54.2895C9.06635 53.8263 10.4674 54.56 11.4243 55.4939C11.7563 55.8172 11.2481 56.3277 10.9162 56.0025V55.9914Z" fill="#400705"/>
<path d="M6.44877 60.356C6.3885 60.3884 6.32916 60.4227 6.2726 60.4606C6.24036 60.4765 6.21092 60.4974 6.18544 60.5227C6.19656 60.5051 6.25127 60.4699 6.20491 60.5079L6.16689 60.5385C6.11497 60.5829 6.0649 60.6311 6.01761 60.6784C5.99535 60.7015 5.9731 60.7256 5.95177 60.7497C5.92565 60.7743 5.90261 60.802 5.88316 60.8322C5.89243 60.8118 5.93323 60.7655 5.89799 60.8136L5.87018 60.8525C5.8507 60.8794 5.83309 60.9063 5.81547 60.9341C5.779 60.9915 5.74562 61.0508 5.71533 61.1119C5.69571 61.1404 5.6804 61.1717 5.66989 61.2046C5.66989 61.1851 5.70327 61.1249 5.68009 61.1814L5.6634 61.2268C5.63863 61.2938 5.61789 61.3621 5.60128 61.4316C5.5751 61.5235 5.51369 61.6015 5.43036 61.6485C5.34704 61.6955 5.24853 61.7078 5.1562 61.6826C5.06583 61.6549 4.9895 61.5936 4.94279 61.5115C4.89609 61.4294 4.88254 61.3325 4.90492 61.2407C4.98737 60.9226 5.13457 60.6249 5.33735 60.3662C5.54012 60.1075 5.79411 59.8933 6.08344 59.7371C6.16582 59.6889 6.26398 59.6754 6.35631 59.6996C6.44865 59.7237 6.5276 59.7835 6.5758 59.8659C6.624 59.9482 6.6375 60.0462 6.61333 60.1385C6.58916 60.2308 6.5293 60.3097 6.44692 60.3578L6.44877 60.356Z" fill="#400705"/>
<path d="M38.2855 59.2442C38.4514 59.6558 38.4879 60.1082 38.3903 60.5412C38.3645 60.6328 38.3036 60.7106 38.2208 60.7576C38.1379 60.8046 38.0399 60.817 37.948 60.7923C37.8576 60.7645 37.7813 60.7033 37.7345 60.6211C37.6878 60.539 37.6743 60.4421 37.6967 60.3503C37.7069 60.3049 37.7143 60.2577 37.7208 60.2142L37.7078 60.3068C37.7286 60.1435 37.7286 59.9782 37.7078 59.8149C37.7078 59.8473 37.7161 59.8788 37.7208 59.9075C37.6983 59.7443 37.6544 59.5848 37.59 59.4331C37.5772 59.3867 37.5739 59.3382 37.5803 59.2904C37.5866 59.2427 37.6026 59.1967 37.6271 59.1552C37.6509 59.1145 37.6825 59.0788 37.7201 59.0503C37.7576 59.0218 37.8005 59.0009 37.8461 58.989C37.8918 58.977 37.9393 58.9742 37.9861 58.9806C38.0328 58.987 38.0779 59.0026 38.1186 59.0264L38.1918 59.082C38.2357 59.1265 38.2676 59.1813 38.2845 59.2414L38.2855 59.2442Z" fill="#400705"/>
<path d="M35.4388 52.7738L34.7351 52.6737C34.6448 52.6489 34.5679 52.5897 34.5209 52.5088C34.4967 52.4681 34.4809 52.4231 34.4744 52.3762C34.4678 52.3294 34.4706 52.2817 34.4826 52.236C34.4945 52.1902 34.5155 52.1473 34.5442 52.1097C34.5729 52.0721 34.6088 52.0405 34.6498 52.0169L34.7351 51.9807C34.7978 51.9631 34.8642 51.9631 34.927 51.9807L35.628 52.0808C35.7186 52.1053 35.7959 52.1646 35.8431 52.2457C35.8911 52.3281 35.9045 52.4261 35.8803 52.5183C35.8562 52.6105 35.7964 52.6893 35.7142 52.7377L35.628 52.7738C35.5655 52.7914 35.4994 52.7914 35.437 52.7738H35.4388Z" fill="#400705"/>
<path d="M35.2339 51.084L34.4319 50.984C34.3372 50.9804 34.247 50.9429 34.1778 50.8784C34.1105 50.8109 34.0726 50.7197 34.0721 50.6245C34.0737 50.5294 34.1119 50.4385 34.1787 50.3707C34.2115 50.3366 34.251 50.3096 34.2947 50.2915C34.3385 50.2733 34.3854 50.2643 34.4328 50.2651L35.2348 50.3651C35.2829 50.3628 35.3307 50.3737 35.373 50.3966C35.4176 50.4104 35.4577 50.436 35.4889 50.4707C35.5225 50.5041 35.5491 50.5437 35.5673 50.5873C35.5854 50.631 35.5948 50.6778 35.5948 50.725C35.5948 50.7723 35.5854 50.8191 35.5673 50.8628C35.5491 50.9064 35.5225 50.946 35.4889 50.9794C35.456 51.0133 35.4165 51.0401 35.3728 51.0582C35.3291 51.0762 35.2821 51.085 35.2348 51.084H35.2339Z" fill="#400705"/>
<path d="M35.3238 65.7821C35.3414 66.8277 35.0857 67.8597 34.5821 68.7764C34.3595 69.1822 33.7383 68.82 33.9608 68.4132C34.4013 67.6073 34.6228 66.7002 34.6034 65.7821C34.5941 65.3189 35.3136 65.3189 35.3229 65.7821H35.3238Z" fill="#400705"/>
<path d="M73.6411 50.7504C74.0898 53.4538 74.5238 56.247 73.8877 58.9587C73.6179 60.1075 73.157 61.235 72.4635 62.1958C71.7634 63.1428 70.8699 63.9304 69.8422 64.5063C68.6711 65.1836 67.3905 65.6477 66.1221 66.1026C65.6853 66.2592 65.4971 65.5653 65.9311 65.4096C68.0136 64.662 70.2316 63.8504 71.6623 62.0689C73.1246 60.2465 73.5465 57.8127 73.4862 55.5364C73.4445 53.9911 73.1997 52.4634 72.9475 50.9412C72.8714 50.4891 73.565 50.2927 73.6411 50.7504Z" fill="#400705"/>
<path d="M66.1563 65.8729C66.3687 67.0875 66.3047 68.505 65.2745 69.3499C64.8304 69.714 64.2685 69.9336 63.688 69.8613C63.1566 69.7835 62.6723 69.5135 62.3268 69.1025C61.9189 68.6393 61.6435 68.0834 61.3996 67.5276C61.3227 67.3497 61.3468 67.1421 61.5285 67.0365C61.6806 66.9439 61.943 66.9865 62.0209 67.1653C62.3778 67.9908 63.013 69.3888 64.1535 69.1359C64.6987 69.0127 65.1401 68.58 65.3487 68.0714C65.6065 67.4405 65.5777 66.7262 65.4618 66.0665C65.4395 65.9747 65.453 65.8779 65.4997 65.7957C65.5464 65.7136 65.6228 65.6524 65.7131 65.6246C65.8874 65.5774 66.122 65.683 66.1563 65.8757V65.8729Z" fill="#400705"/>
<path d="M61.2541 67.3737C56.0852 68.1591 50.8674 68.5792 45.6394 68.6309C44.1447 68.6445 42.6497 68.6278 41.1544 68.5809C40.6907 68.5661 40.6907 67.8481 41.1544 67.862C46.3477 68.0238 51.546 67.8195 56.7106 67.2505C58.1645 67.0899 59.615 66.8997 61.0621 66.6798C61.5146 66.6122 61.7112 67.3042 61.2531 67.3737H61.2541Z" fill="#400705"/>
<path d="M41.2916 68.3094C41.0134 69.6065 39.9545 70.7988 38.5229 70.5153C37.8432 70.381 37.4185 69.9057 37.1793 69.2813C37.0662 68.9876 36.9874 68.6439 36.7157 68.4475C36.5993 68.366 36.4647 68.3145 36.3237 68.2974C36.1827 68.2802 36.0396 68.2981 35.9071 68.3493C35.4695 68.5021 35.2812 67.8082 35.7161 67.6563C36.0024 67.5589 36.3108 67.5466 36.604 67.621C36.8971 67.6953 37.1624 67.853 37.3675 68.075C37.5901 68.3243 37.705 68.6309 37.8172 68.9422C37.91 69.2053 38.0129 69.4694 38.2493 69.6389C38.6712 69.9418 39.2693 69.8946 39.6921 69.6241C40.2058 69.2933 40.4756 68.6976 40.598 68.1232C40.6908 67.6711 41.388 67.8629 41.2916 68.3141V68.3094Z" fill="#400705"/>
<path d="M33.7151 69.6584C32.9993 70.2291 32.2389 70.8434 31.3201 71.0361C30.5106 71.2065 29.6418 71.0592 29.0372 70.4681L29.651 70.2143C29.6325 71.1009 28.9537 71.894 28.059 71.9912C27.179 72.0839 26.3306 71.4354 26.1442 70.583C26.0459 70.1328 26.7395 69.9401 26.8378 70.3922C26.9509 70.9073 27.4275 71.3288 27.9755 71.2806C28.5087 71.2334 28.9213 70.734 28.9315 70.2143C28.9335 70.1442 28.9558 70.0761 28.9956 70.0183C29.0354 69.9605 29.0911 69.9155 29.1559 69.8886C29.2208 69.8616 29.292 69.854 29.3611 69.8666C29.4302 69.8792 29.4942 69.9115 29.5453 69.9595C30.6682 71.0564 32.2733 69.8947 33.2061 69.1498C33.564 68.8635 34.0767 69.3694 33.7151 69.6584Z" fill="#400705"/>
<path d="M26.019 71.176C23.5758 71.4056 21.1117 71.1103 18.7921 70.3098C18.3573 70.1597 18.5436 69.4657 18.9832 69.6168C21.2412 70.3968 23.6406 70.6834 26.019 70.4571C26.4827 70.4135 26.4771 71.1324 26.019 71.176Z" fill="#400705"/>
<path d="M18.387 69.928C17.9373 70.2726 17.4773 70.6108 16.9312 70.7859C16.4311 70.9525 15.8863 70.9234 15.4068 70.7044C15.1867 70.5989 14.9982 70.4374 14.8604 70.236C14.7225 70.0347 14.6401 69.8007 14.6215 69.5574C14.5959 69.3321 14.6346 69.1041 14.733 68.8997C14.8314 68.6953 14.9856 68.5228 15.1778 68.4021C15.5784 68.1668 15.94 68.7875 15.5413 69.0229C15.5205 69.0341 15.5004 69.0465 15.481 69.0599C15.5023 69.0432 15.5042 69.0423 15.481 69.0599C15.4578 69.0775 15.3966 69.1526 15.4346 69.1035C15.4145 69.131 15.3965 69.1601 15.3809 69.1905C15.3327 69.2832 15.3938 69.1368 15.3623 69.2322C15.3503 69.2721 15.3401 69.311 15.3317 69.3518C15.3271 69.3777 15.3271 69.3749 15.3317 69.3443C15.3288 69.368 15.3272 69.3918 15.3271 69.4157C15.3271 69.4518 15.3271 69.487 15.3271 69.5231C15.3271 69.6158 15.3095 69.4787 15.3336 69.5713C15.3428 69.6065 15.3503 69.6417 15.3614 69.6769C15.3725 69.7121 15.3762 69.7223 15.3855 69.7455C15.3753 69.7205 15.3753 69.7196 15.3855 69.7455C15.4071 69.801 15.4403 69.8512 15.4829 69.8928C15.5885 70.0048 15.7234 70.085 15.8723 70.1244C16.2089 70.2118 16.5652 70.1814 16.8821 70.0383C17.2965 69.8678 17.66 69.575 18.0114 69.3082C18.1663 69.1896 18.4148 69.2841 18.5038 69.437C18.6123 69.6223 18.5298 69.8076 18.3749 69.9289L18.387 69.928Z" fill="#400705"/>
<path d="M15.1425 69.0886C14.0709 68.6553 13.1212 67.9675 12.3757 67.0847C12.3107 67.0159 12.2745 66.9249 12.2745 66.8304C12.2745 66.7358 12.3107 66.6449 12.3757 66.5761C12.5036 66.4482 12.7586 66.4269 12.8838 66.5761C13.5419 67.3711 14.3827 67.9954 15.3345 68.3956C15.5134 68.4697 15.6414 68.6346 15.5857 68.8375C15.5385 69.0071 15.3233 69.1627 15.1425 69.0886Z" fill="#400705"/>
<path d="M14.8644 32.5919C13.8982 33.6304 11.9779 33.1663 11.5309 31.8507C11.5183 31.8052 11.5148 31.7577 11.5206 31.7108C11.5264 31.664 11.5414 31.6187 11.5647 31.5776C11.5879 31.5366 11.6191 31.5005 11.6564 31.4714C11.6936 31.4424 11.7362 31.4209 11.7818 31.4083C11.8273 31.3958 11.8749 31.3922 11.9218 31.398C11.9687 31.4038 12.014 31.4188 12.0551 31.442C12.0962 31.4653 12.1323 31.4964 12.1614 31.5337C12.1905 31.5709 12.2119 31.6135 12.2245 31.659C12.2347 31.6886 12.2449 31.7182 12.257 31.7516C12.2254 31.6766 12.2718 31.7766 12.2802 31.7914C12.3076 31.845 12.3386 31.8967 12.3729 31.9462C12.3877 31.9675 12.384 31.9628 12.3627 31.9341C12.3747 31.9499 12.3886 31.9656 12.4016 31.9804C12.4146 31.9953 12.4424 32.0258 12.4637 32.0471C12.5068 32.0905 12.5527 32.1311 12.601 32.1685C12.5518 32.1305 12.6075 32.1685 12.6269 32.1852L12.7048 32.2343C12.7586 32.2658 12.8142 32.2926 12.869 32.3214C12.9441 32.3584 12.8254 32.3075 12.8977 32.3334L12.9858 32.3649C13.0498 32.3853 13.1156 32.4029 13.1814 32.4177C13.212 32.4242 13.2436 32.4298 13.2742 32.4344C13.3048 32.439 13.2946 32.4344 13.2556 32.4344L13.302 32.44C13.3697 32.4446 13.4364 32.4492 13.5041 32.4483C13.5661 32.4475 13.628 32.4435 13.6896 32.4362C13.6247 32.4437 13.6896 32.4363 13.7155 32.4307C13.7415 32.4251 13.7758 32.4177 13.8082 32.4103C13.8676 32.3955 13.9251 32.376 13.9826 32.3556C14.0605 32.3288 13.9418 32.3797 14.0085 32.3436C14.0354 32.3297 14.0632 32.3167 14.0892 32.3019C14.143 32.2725 14.1944 32.239 14.2431 32.2019C14.1801 32.25 14.2644 32.1796 14.2765 32.1685C14.3034 32.1435 14.3284 32.1175 14.3535 32.0907C14.422 32.0335 14.5093 32.0039 14.5985 32.0075C14.6877 32.0111 14.7723 32.0477 14.836 32.1102C14.8997 32.1726 14.9379 32.2565 14.9431 32.3456C14.9484 32.4346 14.9203 32.5224 14.8644 32.5919Z" fill="#400705"/>
</g>
<defs>
<filter id="filter0_d_1810_827" x="0" y="0" width="82.2079" height="81.0001" filterUnits="userSpaceOnUse" color-interpolation-filters="sRGB">
<feFlood flood-opacity="0" result="BackgroundImageFix"/>
<feColorMatrix in="SourceAlpha" type="matrix" values="0 0 0 0 0 0 0 0 0 0 0 0 0 0 0 0 0 0 127 0" result="hardAlpha"/>
<feOffset dx="3" dy="4"/>
<feGaussianBlur stdDeviation="2.5"/>
<feComposite in2="hardAlpha" operator="out"/>
<feColorMatrix type="matrix" values="0 0 0 0 0 0 0 0 0 0 0 0 0 0 0 0 0 0 0.25 0"/>
<feBlend mode="normal" in2="BackgroundImageFix" result="effect1_dropShadow_1810_827"/>
<feBlend mode="normal" in="SourceGraphic" in2="effect1_dropShadow_1810_827" result="shape"/>
</filter>
</defs>
</svg>
