<svg width="88" height="87" viewBox="0 0 88 87" fill="none" xmlns="http://www.w3.org/2000/svg">
<g filter="url(#filter0_d_1810_827)">
<path d="M18.8324 39.6836C20.342 43.4644 21.0051 47.5018 22.2469 51.3621C22.8254 53.1609 23.5543 54.9369 24.5581 56.5437C25.7181 58.4002 27.3412 59.8797 28.6168 61.6457C31.1232 65.117 32.6995 69.1504 35.4488 72.4655C35.7615 72.8426 36.2454 72.7799 36.578 72.5242C36.6835 72.5732 36.7955 72.6067 36.9106 72.6237C37.6584 72.7351 38.4042 72.8436 39.156 72.957C40.0433 73.0923 39.872 73.1619 40.2355 73.8873C40.6387 74.6912 41.5588 75.3239 42.4839 75.0075C43.0107 74.8275 43.2447 74.4593 43.5175 74.0206C43.8013 73.5659 43.8929 73.6345 44.6865 73.5231C46.1944 73.3229 47.7194 73.2855 49.2352 73.4117C50.7289 73.5211 52.1518 73.6027 53.6425 73.3659C55.2268 73.1142 56.7802 72.7142 58.3704 72.4914C59.9159 72.2755 61.4673 72.2108 63.0256 72.181C63.9726 72.163 64.8768 72.1521 65.757 71.9203C66.2549 73.343 67.7426 74.9051 69.2821 74.2086C70.0787 73.8494 70.3774 73.0435 70.3137 72.2108C70.2838 71.8447 70.243 71.4676 70.1832 71.0925C70.1825 70.9697 70.1741 70.8471 70.1584 70.7254C72.0125 70.2568 73.9632 69.7444 75.5455 68.6669C77.1576 67.5724 78.255 65.9268 78.8564 64.0902C80.2853 59.7274 78.9271 54.527 78.1594 50.1463C77.2891 45.1524 76.2369 40.196 75.0028 35.2771C74.4053 32.8962 73.7561 30.5323 73.0112 28.1912C72.6129 26.9426 72.2276 25.689 71.7725 24.4612C71.4538 23.6006 71.0117 22.7997 70.6164 21.9739C71.6122 21.5351 72.4885 20.6278 72.8071 19.6776C72.9504 19.2624 72.992 18.8189 72.9286 18.3842C73.0172 17.5743 72.7563 16.7287 71.9726 15.9327C70.941 14.8841 69.306 14.6124 67.9248 15.0104C67.2057 15.2177 66.5307 15.5549 65.9333 16.0053C63.9318 14.1598 61.6296 12.7569 59.1621 11.57C57.8297 10.9244 56.4631 10.3518 55.0685 9.8547C54.2061 9.54926 53.2014 9.13636 52.2156 8.92444C52.4715 6.71869 50.7219 4.97657 48.3321 4.95667C46.1155 4.93876 45.0211 6.8341 44.8469 8.95329C44.2843 8.97518 43.2835 9.25177 42.706 9.32639C41.277 9.51543 39.7406 9.65969 38.3833 10.1741C36.9962 10.6984 35.9377 11.6943 34.8493 12.6614L33.8605 13.5429C31.8939 14.6622 30.3136 16.2193 28.9245 18.2419C27.861 19.7881 26.8981 21.3959 25.989 23.0305C25.4821 23.9469 24.8399 24.9607 24.345 25.9974C21.4224 24.107 17.0977 25.7218 15.7764 28.9752C14.0895 33.1251 17.3925 36.0919 18.8324 39.6836Z" fill="white"/>
<path d="M33.0938 38.1684C33.2014 36.8182 34.3594 35.7805 35.7216 36.278C35.9539 36.3662 36.1743 36.4828 36.3779 36.6252C36.7335 36.7197 37.0615 36.8974 37.3348 37.1436C38.0537 37.7962 38.9181 38.9036 39.161 39.8498C39.4598 41.0357 38.6183 42.1053 37.4623 42.3122C35.393 42.6873 32.9335 40.1881 33.0938 38.1684Z" fill="#FCB6D0"/>
<path d="M21.9999 26.2243C22.0158 26.2014 22.0338 26.1815 22.0507 26.1606C22.0507 26.1606 22.0557 26.1496 22.0587 26.1447C22.2757 25.8084 22.6173 25.7019 22.9997 25.7616C22.915 25.7487 22.8383 25.7387 22.9698 25.7477C23.0703 25.7545 23.1701 25.7688 23.2685 25.7905C23.3591 25.8114 23.4507 25.8352 23.5374 25.8641C23.846 25.9543 24.1188 26.1382 24.3181 26.3904C24.7433 26.9406 24.7273 27.8191 24.0552 28.1813C23.4965 28.4798 22.7079 28.2907 22.2688 27.8549C21.8456 27.4351 21.6414 26.7516 21.9999 26.2243Z" fill="#FCB6D0"/>
<path d="M68.1439 19.1155C68.1351 18.9904 68.1529 18.865 68.1961 18.7473C68.2394 18.6297 68.3071 18.5225 68.3948 18.4329C68.5339 18.2988 68.7055 18.2031 68.8927 18.1554C69.5679 17.9803 70.2778 18.4837 70.3695 19.1622C70.3909 19.3236 70.3768 19.4877 70.3281 19.643C70.2795 19.7984 70.1975 19.9413 70.0879 20.0617C69.9783 20.1821 69.8437 20.2772 69.6935 20.3402C69.5433 20.4033 69.3811 20.4328 69.2183 20.4268C69.0307 20.4233 68.8469 20.3732 68.6834 20.2809C68.52 20.1887 68.3822 20.0573 68.2823 19.8985C68.1369 19.6651 68.0873 19.3845 68.1439 19.1155Z" fill="#FCB6D0"/>
<path d="M23.152 41.6347C23.7206 41.9074 24.1478 42.2904 24.7891 42.4058C25.7012 42.571 25.503 44.1509 24.567 44.0405C23.631 43.93 22.5297 43.5898 22.1114 42.6744C21.7928 41.976 22.441 41.2945 23.152 41.6347Z" fill="#FFDEE1"/>
<path d="M37.6156 71.6706C37.984 70.8209 38.9798 70.8239 39.7655 71.1204C40.1731 71.2844 40.5322 71.5495 40.809 71.8905C40.9921 72.1099 41.1585 72.3427 41.3069 72.5869C41.5061 72.8983 41.2203 73.0953 41.512 72.763C41.7749 72.4645 41.8396 72.0208 42.1453 71.7193C42.5178 71.3512 42.9569 71.192 43.4628 71.1134C44.9753 70.8786 46.5945 70.9712 48.124 70.9145C54.0986 70.7015 60.2275 70.8458 66.1384 69.8837C66.8594 69.7663 67.4867 70.6637 67.0277 71.1711C67.3005 71.5134 67.5007 71.976 67.7108 72.2974C68.0832 72.8665 68.5651 73.3371 69.2841 73.355C69.9662 73.3709 69.9353 74.3211 69.2841 74.3917C68.4028 74.4912 67.5694 74.0932 66.943 73.4963C66.5377 73.1043 66.0269 72.3919 65.8915 71.7303C63.6928 72.567 61.4105 72.77 59.0326 72.8665C55.9089 72.9919 52.7842 73.0913 49.6594 73.2028L45.053 73.3679C44.7134 73.3799 44.3689 73.3789 44.0293 73.4047C43.5832 73.4386 43.7306 73.3003 43.4548 73.5779C43.179 73.8554 43.0943 74.2743 42.7577 74.5529C42.0199 75.1638 41.0181 75.0314 40.3101 74.4464C39.9029 74.1101 39.7555 73.6505 39.4289 73.2575C39.0724 72.8327 39.0236 72.8655 38.463 72.7093C38.2407 72.6615 38.0255 72.5853 37.8227 72.4824C37.523 72.3163 37.4931 71.9541 37.6156 71.6706Z" fill="#FFDEE1"/>
<path d="M29.3876 28.815C29.3331 28.6778 29.3082 28.5306 29.3144 28.3832C29.3206 28.2357 29.3578 28.0911 29.4235 27.9589C29.4892 27.8267 29.5821 27.7098 29.696 27.6158C29.8098 27.5218 29.9423 27.4527 30.0846 27.4132C31.407 27.0391 32.8598 28.4429 33.3856 29.5324C33.4437 29.6543 33.4936 29.7799 33.5349 29.9085L33.5489 29.9264C33.6248 30.0218 33.6747 30.1354 33.6935 30.2559C33.7124 30.3764 33.6996 30.4998 33.6564 30.6139C33.6725 31.0293 33.526 31.4347 33.2481 31.7441C32.6507 32.3908 31.7903 32.2953 31.1043 31.8506C30.2479 31.2974 28.9454 29.8378 29.3876 28.815Z" fill="#FFDEE1"/>
<path d="M57.1785 58.5335H57.1884C57.3707 56.7058 59.3264 54.8961 61.1406 56.0253C61.3591 56.1576 61.5207 56.3661 61.5943 56.6105C61.6678 56.8549 61.6481 57.1178 61.539 57.3486C61.76 57.5535 61.8377 57.9017 61.5529 58.2151C60.8907 58.9564 60.1967 59.6926 59.2756 60.1055C58.4441 60.4786 57.2143 60.603 56.5591 59.8508C56.0562 59.2698 56.588 58.4917 57.1785 58.5335Z" fill="#FFDEE1"/>
<path d="M12.0183 58.0092C12.6821 56.9141 13.5203 55.9345 14.4998 55.109C16.574 53.3748 19.153 52.4167 21.8446 52.2366C25.3358 52.0038 28.4983 53.1052 31.164 55.0135L31.2128 55.0423C32.2147 55.6874 33.1473 56.4338 33.996 57.27C34.4671 57.7217 34.8473 58.2594 35.1162 58.8539C35.2815 59.0668 35.4448 59.2827 35.6031 59.5026C35.7774 59.7454 35.7027 60.015 35.5324 60.1991C35.5324 60.218 35.5404 60.2339 35.5444 60.2528C35.644 60.7343 35.0814 61.1403 34.7109 60.9492C34.1702 61.7681 33.8028 62.7023 33.754 63.6883C33.7022 64.716 34.2519 65.6781 34.1165 66.69C34.0507 67.1974 33.5001 68.0281 33.7181 68.5027C34.0597 69.234 34.931 68.7674 35.4657 68.7017C36.2813 68.5963 37.0639 68.8788 37.4483 69.6479C38.1453 71.0517 37.0231 73.5072 36.107 74.5827C34.7328 76.1965 33.0769 75.9249 31.2964 75.5916C31.2125 75.7682 31.1125 75.9367 30.9977 76.095C30.7234 76.3948 30.3569 76.5947 29.9561 76.6631C29.484 76.7401 28.9998 76.6523 28.5849 76.4144C28.4042 76.306 28.237 76.1764 28.0871 76.0284C27.9861 75.9276 27.8917 75.8206 27.8043 75.708C27.7304 75.7277 27.6576 75.7512 27.5862 75.7786C27.3524 75.8696 27.1064 75.9256 26.8563 75.9448C26.3036 75.9965 25.752 75.8921 25.2123 75.7826C24.9823 75.7359 24.7532 75.6831 24.5232 75.6364C23.6944 75.6512 22.8657 75.6049 22.0437 75.4981C21.2541 75.3906 20.1747 74.8265 19.4189 75.112C18.8533 75.326 18.4908 75.7359 17.8177 75.7578C17.3474 75.7738 16.8838 75.6437 16.4905 75.3856C16.0973 75.1274 15.7939 74.7537 15.622 74.3161C15.6514 74.3056 15.6757 74.2843 15.6897 74.2564C15.7191 74.186 15.744 74.1139 15.7644 74.0405C15.7722 74.0135 15.7719 73.9848 15.7636 73.9579C15.7553 73.931 15.7393 73.9072 15.7176 73.8893C15.7107 73.8702 15.7013 73.8522 15.6897 73.8355C15.6708 73.809 15.6445 73.7884 15.6141 73.7764C15.5837 73.7644 15.5505 73.7614 15.5185 73.7679L15.5005 73.748C15.5005 73.7181 15.5005 73.6873 15.5005 73.6565C15.5115 73.548 15.5234 73.4396 15.5344 73.3311C15.5868 72.9995 15.5815 72.9859 15.5185 73.2903C15.3412 73.1043 15.0146 72.9918 14.8085 72.8337C14.5976 72.6757 14.4046 72.4952 14.2329 72.2954C14.122 72.3867 13.9879 72.4456 13.8456 72.4655C13.8402 72.439 13.8274 72.4145 13.8087 72.3949C13.6904 72.2815 13.5661 72.1746 13.4363 72.0745C13.3873 72.0295 13.3358 71.9873 13.282 71.9482L13.269 71.9402L13.2381 71.9143C13.2144 71.8945 13.1859 71.8812 13.1555 71.8755C13.101 71.8498 13.0429 71.8324 12.9832 71.8238C12.8538 71.8092 12.723 71.8327 12.6068 71.8915H12.5989C12.3904 71.6833 12.2464 71.4196 12.184 71.1318C12.1217 70.844 12.1437 70.5444 12.2473 70.2687C12.6297 69.1564 13.9909 68.8967 14.438 67.8411C14.7019 67.2183 14.5934 66.483 14.6979 65.8174C14.8025 65.1518 15.146 64.4812 15.2058 63.8047C15.2735 63.0197 14.8602 62.5202 14.6312 61.8148C14.5735 61.6387 14.5735 61.184 14.4719 61.0547C14.2956 60.8318 13.8904 60.7483 13.504 60.7154C13.3503 61.1298 13.1473 61.5243 12.8996 61.8904C12.2424 62.8028 10.9698 62.4416 10.8523 61.3363C10.7308 60.2199 11.4487 58.9474 12.0183 58.0092Z" fill="#FDE41B"/>
<path d="M21.6823 59.4738C22.3634 61.2139 25.0948 63.3301 26.5944 61.2756C26.8931 60.8657 26.8015 60.3931 26.5257 60.0468C26.5222 59.6775 26.4737 59.31 26.3813 58.9524C26.1403 57.9525 25.8625 56.885 24.9345 56.2979C22.8384 54.9687 20.9076 57.4948 21.6823 59.4738Z" fill="#FB7F1C"/>
<path d="M14.451 69.1325C14.4181 68.3196 15.4886 68.3206 15.7554 68.9554C15.8638 69.2095 15.9851 69.4579 16.1189 69.6996C16.6596 70.2249 17.1704 70.7851 17.7729 71.2477C18.696 71.9593 19.7334 72.509 20.8408 72.8734C22.454 73.4007 24.1348 73.5699 25.8197 73.539C26.272 73.448 26.7182 73.3294 27.156 73.1839C28.3808 72.772 29.745 72.2138 30.6322 71.2607C31.7087 70.1095 32.2255 68.5743 32.3251 67.0292C32.3289 66.971 32.3547 66.9164 32.3974 66.8766C32.44 66.8367 32.4962 66.8145 32.5546 66.8145C32.613 66.8145 32.6692 66.8367 32.7118 66.8766C32.7544 66.9164 32.7803 66.971 32.7841 67.0292C32.8341 67.5608 32.808 68.0969 32.7064 68.6211C33.4493 69.6658 34.6153 70.8945 36.0174 70.0996C36.0913 70.0577 36.1768 70.0409 36.261 70.0519C36.3453 70.0628 36.4237 70.1009 36.4844 70.1603C37.4224 71.2547 37.1715 72.6476 36.3141 73.7012C35.7505 74.3953 35.0277 74.9434 34.2071 75.2991C33.3427 75.6612 32.6447 75.5319 31.7664 75.5975C31.0624 75.6513 30.8523 76.2592 30.1782 76.4512C29.6255 76.6084 29.1396 76.4582 28.6596 76.1955C28.2772 75.9856 28.3519 75.6771 27.8102 75.5836C27.4567 75.5229 26.7537 75.8403 26.3693 75.8821C25.2939 75.9928 24.2072 75.8897 23.1719 75.5786C23.0924 75.5589 23.0188 75.52 22.9577 75.4654C22.8966 75.4108 22.8498 75.3421 22.8214 75.2652C22.6691 75.2493 22.5157 75.2304 22.3624 75.2095C21.8489 75.1586 21.3402 75.0678 20.8408 74.9379C20.3504 74.8276 19.8661 74.6915 19.39 74.53C19.4021 74.6139 19.3926 74.6996 19.3623 74.7788C19.3319 74.8581 19.2818 74.9282 19.2167 74.9827C18.5934 75.4801 17.979 75.6483 17.1993 75.4443C17.1291 75.4298 17.0629 75.4004 17.0051 75.358C16.9474 75.3156 16.8995 75.2612 16.8647 75.1986C16.4435 75.1896 16.1 74.6902 16.3529 74.2982C16.4203 74.199 16.4802 74.0949 16.5321 73.9868C16.317 73.8664 16.101 73.747 15.8879 73.6226C15.2546 73.2555 14.3345 72.8724 13.8605 72.3103C13.0001 71.3005 14.4918 70.2329 14.451 69.1325Z" fill="#FDC01B"/>
<path d="M28.6387 58.3325C28.9554 57.5834 29.7082 57.0491 30.5367 57.0919C30.9117 57.1129 31.2738 57.2357 31.5842 57.4471C31.9917 57.572 32.3406 57.8394 32.567 58.2002C33.0649 58.9643 32.7991 60.0349 32.1628 60.6278C30.6382 62.0476 27.7883 60.3463 28.6387 58.3325Z" fill="#FFAD12"/>
<path d="M16.4654 61.6258C16.6002 61.5532 16.7452 61.5016 16.8956 61.4726C16.9204 61.4378 16.9474 61.4046 16.9762 61.3731C17.2979 61.0219 17.8356 60.9383 18.2777 61.0537C19.0922 61.2676 19.4876 62.172 19.2735 62.9441C18.9498 64.0902 17.5807 64.9956 16.4604 64.331C15.4965 63.7619 15.4647 62.172 16.4654 61.6258Z" fill="#FFAD12"/>
<path d="M16.4276 54.9996C16.5768 54.9228 16.7488 54.903 16.9115 54.9439C16.9653 54.9359 17.0181 54.925 17.0728 54.921C17.1979 54.92 17.3211 54.9523 17.4296 55.0145C17.5381 55.0767 17.628 55.1667 17.6902 55.2752C17.8316 55.516 17.7958 55.7537 17.6902 55.9965C17.3845 56.7049 16.7582 57.1904 16.0472 57.4521C15.7266 57.5695 15.2506 57.3188 15.1968 56.9705C15.0614 56.0194 15.6459 55.4224 16.4276 54.9996Z" fill="white"/>
<path d="M14.1732 57.5954C14.2051 57.5397 14.2511 57.4934 14.3066 57.4611L14.3693 57.4153L14.456 57.3785C14.5027 57.3638 14.5524 57.3614 14.6004 57.3715C14.6325 57.3716 14.6641 57.3802 14.692 57.3964C14.7364 57.4111 14.7765 57.4368 14.8085 57.471L14.8652 57.5446L14.9011 57.6312C14.9167 57.6777 14.9192 57.7276 14.908 57.7754C14.9057 57.8232 14.891 57.8695 14.8652 57.9098L14.8194 57.9724C14.7861 58.0274 14.74 58.0735 14.685 58.1067C14.6276 58.1403 14.5623 58.1578 14.4958 58.1575L14.3962 58.1446C14.3334 58.1263 14.2764 58.092 14.2309 58.0451C14.1954 58.0122 14.169 57.9707 14.1542 57.9247C14.1304 57.8805 14.1191 57.8306 14.1214 57.7804C14.1223 57.7153 14.1402 57.6515 14.1732 57.5954Z" fill="white"/>
<path d="M23.3273 40.3323C23.6638 38.4559 24.4306 36.471 25.2949 34.7757C25.4702 34.4314 25.6673 34.0016 26.0129 33.7808C26.0385 33.6856 26.0931 33.6007 26.1691 33.5378C26.2451 33.4749 26.3387 33.4371 26.4371 33.4295C27.2954 33.3042 27.9158 33.7738 28.092 34.4374C28.1591 34.5325 28.213 34.6363 28.2524 34.7458C28.2684 34.7958 28.2652 34.85 28.2432 34.8977C28.2213 34.9454 28.1823 34.9831 28.1339 35.0035C28.1139 35.1979 28.0624 35.3878 27.9815 35.5657C27.7625 36.0084 27.4907 36.423 27.1719 36.8004C26.9728 37.1327 26.7667 37.452 26.5805 37.7535C26.0607 38.5972 25.4692 39.6638 24.6228 40.2408C24.4933 40.396 24.3619 40.5473 24.2245 40.6885C23.9108 41.0089 23.2287 40.8825 23.3273 40.3323Z" fill="#F36291"/>
<path d="M24.8229 36.1208L25.504 34.8761C25.6813 34.5498 25.8426 34.111 26.0826 33.8235C26.5536 33.2614 27.4269 33.8573 27.9357 34.0703C28.1707 34.1697 28.344 34.4792 28.2185 34.7269C28.0194 35.1298 27.7903 35.5228 27.5593 35.9099C27.9088 36.1994 27.7346 36.9128 27.1779 36.8272C26.5078 36.7277 25.8297 36.7814 25.1615 36.6899C24.9205 36.6571 24.6905 36.3665 24.8229 36.1208Z" fill="#F08FAB"/>
<path d="M6.81839 24.6005C6.84643 25.0608 6.91879 25.5172 7.03447 25.9636C7.15197 26.4233 7.47858 26.9446 7.50348 27.4132C7.54132 28.1226 7.34017 28.6549 7.5453 29.3931C7.76724 30.1773 8.22478 30.8745 8.85609 31.3905C9.4874 31.9065 10.262 32.2165 11.0753 32.2784C11.6608 32.3232 11.8331 32.0864 12.1816 32.5988C12.3628 32.8654 12.33 33.3947 12.4435 33.723C12.6616 34.3459 13.021 34.8573 13.6842 35.0483C15.2068 35.4861 15.377 34.0872 15.2775 32.9749C14.8791 28.5663 18.201 24.9736 22.5167 25.1607C23.0889 25.3838 23.6005 25.7383 24.0104 26.1954C24.0667 26.2637 24.1396 26.3163 24.2222 26.3482C24.3047 26.3801 24.3941 26.3903 24.4818 26.3777C24.5694 26.3651 24.6523 26.3302 24.7225 26.2763C24.7927 26.2224 24.8479 26.1514 24.8827 26.0701C25.3985 25.0493 25.8827 24.0142 26.3355 22.9649C26.7109 22.0983 27.2118 21.2178 27.3382 20.2786C27.4737 20.1787 27.564 20.0291 27.5892 19.8627C27.6987 19.2051 27.15 18.5603 26.8065 18.041C26.3086 17.2878 25.7181 16.5775 24.9514 16.084C24.3065 15.6571 23.5491 15.4317 22.7756 15.4363C22.0427 15.4502 21.1455 16.1267 20.565 15.9397C20.2215 15.8283 19.858 15.4572 19.5314 15.2791C19.0439 15.0051 18.5267 14.7875 17.9899 14.6304C17.1198 14.3715 16.1982 14.3372 15.3113 14.5309C13.8963 14.8622 12.7094 15.8243 12.2145 17.1814C8.93141 18.1415 6.61824 21.0875 6.81839 24.6005Z" fill="#A1D843"/>
<path d="M38.1832 52.179C39.7635 55.5368 43.5145 57.0024 46.9569 55.9418C48.4406 58.7276 51.2387 61.2467 54.6244 60.3075C55.36 60.1107 56.0374 59.7398 56.5993 59.2261C57.1613 58.7125 57.5911 58.0712 57.8526 57.3566C58.0518 56.8193 58.0339 56.4751 58.6254 56.4034C58.9042 56.3696 59.2228 56.4611 59.5126 56.4313C60.2908 56.3428 61.0253 56.026 61.6236 55.5209C62.8783 54.4753 63.3383 52.752 63.0645 51.1771C63.0022 50.8439 62.9146 50.516 62.8026 50.1961C62.703 49.9145 62.5925 49.6379 62.474 49.3643C62.1892 48.9279 62.2151 48.8373 62.5517 49.0927C63.2597 48.7504 63.8741 48.5803 64.4745 48.0331C65.4832 47.1128 66.3665 45.4572 65.78 44.0882C65.3309 43.0326 64.2634 42.6436 63.1979 42.4963C63.8392 41.1621 64.2813 39.6409 63.415 38.2967C62.5656 36.9735 60.9535 36.8173 59.5255 37.0401C59.2646 37.0809 58.8932 37.0491 58.7817 37.1814C58.8126 36.9426 58.9042 36.6183 58.8564 36.4302C58.6771 35.7288 58.0598 35.3806 57.3816 35.302C56.7093 35.2422 56.0328 35.357 55.418 35.6353C55.2477 35.7199 53.9522 37.0282 54.2131 37.1347C54.1513 37.11 54.0854 37.0972 54.0189 37.0968C53.1387 35.4224 51.8471 33.7141 49.766 33.8514C47.9736 33.9678 46.9121 35.5189 46.6681 37.1585C44.0433 36.7456 41.2681 36.9745 39.8163 39.5593C38.7408 41.4755 39.0694 43.6514 40.2026 45.3786C39.2805 45.5 38.4501 46.092 37.98 47.0083C37.1715 48.5833 37.4533 50.6299 38.1832 52.179Z" fill="#A1D843"/>
<path d="M33.3477 69.229C34.0597 70.0071 35.1311 70.224 35.9267 69.6788C36.8299 70.6737 38.2439 71.0229 39.5991 70.6309C40.5481 70.3563 41.3637 69.7225 42.0238 69.0062C42.3485 68.654 42.684 67.9705 43.0734 67.7327C43.3452 67.5665 43.7555 67.5516 44.0532 67.4004C45.5529 66.6402 46.2061 64.7419 45.5469 63.2157C44.8897 61.7074 43.2795 60.9552 41.7052 61.002C40.9524 59.8509 39.9656 58.8231 38.4759 58.7843C37.4194 58.7564 36.3997 59.2678 35.9098 60.1772C34.7836 59.9294 33.5867 60.3165 32.9593 61.3711C32.6124 61.956 32.4936 62.6482 32.6258 63.3152C32.6895 63.6256 32.8638 63.8694 32.9574 64.1589C33.2113 64.9379 33.047 64.6743 32.8727 65.2682C32.4625 66.6422 32.2752 68.058 33.3477 69.229Z" fill="#C065E8"/>
<path d="M3.56122 66.481C3.67573 65.9398 3.11512 65.4692 2.86418 65.0503C2.5306 64.4862 2.30555 63.8564 2.43301 63.1987C2.75265 61.5511 4.45243 60.9661 5.90825 60.795C6.6969 60.7034 6.673 60.795 6.90402 60.0637C6.99364 59.7762 7.04841 59.5105 7.21968 59.2528C7.51841 58.7972 8.02227 58.5056 8.53609 58.3574C10.0188 57.9216 11.2147 58.8549 12.1029 59.9314C12.8099 59.1295 13.8406 59.2827 14.5675 60.011C15.4149 60.8586 16.4515 61.8755 16.2354 63.1768C16.1932 63.4401 16.107 63.6943 15.9805 63.929C15.7186 64.4185 15.5473 64.2902 15.7226 64.7458C15.9377 65.304 16.315 65.6622 16.3638 66.3099C16.4465 67.4093 15.8421 68.3286 14.9329 68.833C15.0106 70.0777 14.199 71.3084 12.9414 71.6188C12.0193 71.8466 11.3362 71.5094 10.452 72.1382C9.8983 72.5361 9.45618 73.0445 8.8398 73.3022C8.82552 73.2727 8.80104 73.2492 8.77085 73.2362C8.74067 73.2233 8.70681 73.2216 8.6755 73.2316C8.2312 73.3645 7.75554 73.3485 7.32125 73.1858C6.89688 73.0044 6.53018 72.7106 6.26075 72.3361C6.24836 72.3189 6.23245 72.3045 6.21409 72.2939C6.19573 72.2833 6.17532 72.2766 6.15421 72.2745C6.06067 72.1549 5.94915 72.0505 5.82361 71.965C5.35361 71.6666 4.70636 71.7123 4.20548 71.4586C2.84028 70.7691 2.45592 69.0708 2.91596 67.7067C3.0474 67.3187 3.48056 66.864 3.56122 66.481Z" fill="#C065E8"/>
<path d="M39.1998 49.829C40.0323 51.2806 40.7732 52.6048 42.1971 53.5689C43.6908 54.5807 45.5379 54.7469 47.1531 53.943C47.5095 53.7659 47.9985 53.9888 48.1359 54.3489C48.8777 56.2741 50.3555 58.1187 52.5013 58.4888C54.6144 58.853 56.7772 57.3068 56.809 55.122C56.815 54.7131 57.2781 54.4255 57.6475 54.4663C60.6657 54.8205 62.3874 51.4626 60.4277 49.1733C60.0423 48.7236 60.4018 48.1306 60.9007 48.0142C62.8693 47.5565 65.4643 46.2025 64.9485 43.751C64.8678 43.3689 65.5031 43.1878 65.6186 43.5699C66.462 46.3766 64.5382 48.2301 62.1573 49.1176C63.8591 52.1133 61.7212 55.9169 58.228 55.9995C57.7809 58.3595 55.415 60.0419 53.0181 60.0111C50.3136 59.9762 48.1628 57.9496 47.0435 55.6165C43.2068 56.9606 39.0096 54.0246 38.2807 50.0767C38.1802 49.4996 38.9519 49.3972 39.1998 49.829Z" fill="#5BC817"/>
<path d="M21.2481 23.9827C22.0335 24.4581 22.7567 25.0292 23.401 25.6831C23.5792 25.8631 23.87 25.9537 24.0861 25.7666C25.2431 24.7717 26.5078 23.7509 27.0883 22.2844C27.6858 20.792 27.5185 19.1006 26.7567 17.7077C26.7145 17.6234 26.6541 17.5495 26.5797 17.4913C26.5054 17.4332 26.4191 17.3924 26.327 17.3717C26.235 17.351 26.1394 17.3511 26.0474 17.3719C25.9553 17.3926 25.869 17.4336 25.7948 17.4918C25.6585 17.1228 25.4822 16.7698 25.269 16.4392C25.0589 16.1128 24.4933 16.4471 24.6805 16.7824C26.1742 19.4538 24.5381 22.5749 21.5259 22.9042C21.033 22.9629 20.793 23.7101 21.2481 23.9827ZM25.1057 23.1619C25.0961 23.1439 25.0851 23.1266 25.0729 23.1102C25.2242 22.8992 25.3616 22.6913 25.4801 22.5043C25.5269 22.4306 25.5668 22.356 25.6106 22.2824C25.4649 22.5879 25.2961 22.882 25.1057 23.1619Z" fill="#5BC817"/>
<path d="M8.94239 31.4507C9.40742 31.6327 9.89236 31.6496 10.3793 31.6775L10.6312 31.8088C10.965 31.9831 11.3165 32.1212 11.6798 32.2207C11.7426 32.2358 11.8065 32.2461 11.871 32.2516C12.105 32.5501 12.2523 32.9381 12.4366 33.3818C12.7831 34.2156 13.4403 35.0732 14.459 34.8742C15.4478 34.6752 15.5862 33.7798 15.5384 32.9182C15.5115 32.4466 15.4956 31.7332 15.2854 31.18C15.2854 30.9811 15.2855 30.7821 15.2795 30.5831C15.2776 30.4943 15.253 30.4074 15.2081 30.3308C15.1631 30.2542 15.0992 30.1903 15.0226 30.1453C15.2128 29.9839 15.3802 29.7974 15.5205 29.5911C15.852 29.1036 15.15 28.5793 14.7836 29.0439C14.1094 29.9016 12.9593 29.8399 12.4306 28.8688C12.2404 28.5166 11.8899 28.4311 11.5523 28.638C10.1363 29.5096 9.21324 27.4441 8.81294 26.5208C8.7054 26.2711 8.31506 26.1069 8.09002 26.3308C6.51969 27.9137 6.67303 30.5632 8.94239 31.4507ZM8.31406 27.7635C8.35987 27.856 8.40866 27.9485 8.45945 28.04C8.39472 28.0211 8.32701 28.0032 8.25432 27.9883C8.27027 27.9124 8.29021 27.8373 8.31406 27.7635Z" fill="#5BC817"/>
<path d="M33.4702 65.0115C33.4929 64.9826 33.5235 64.961 33.5584 64.9492C33.5932 64.9374 33.6307 64.936 33.6663 64.9452C33.7019 64.9544 33.734 64.9738 33.7588 65.0009C33.7836 65.028 33.7999 65.0618 33.8058 65.0981C33.8775 65.5955 33.8416 66.093 33.975 66.5815C34.025 66.8583 34.1329 67.1214 34.2917 67.3536C34.6296 67.9326 35.1424 67.9728 35.8302 67.474C36.108 66.877 37.0321 66.9377 37.1247 67.6332C37.2999 68.8947 38.4441 69.4708 39.5892 68.9077C40.6198 68.4012 40.9992 67.2372 41.1526 66.1885C41.2252 65.6911 41.8775 65.3209 42.3027 65.6911C43.0465 66.3477 44.0473 65.9318 44.4346 65.0941C44.7463 64.4195 44.7055 63.6017 44.5471 62.9053C44.4476 62.4725 45.1028 62.3302 45.276 62.7063C45.8616 63.9927 46.0727 65.5776 44.9693 66.678C44.6351 67.0159 44.2164 67.2581 43.7567 67.3796C43.297 67.501 42.8132 67.4972 42.3554 67.3685C41.8745 68.9266 40.8389 70.3145 39.1013 70.5781C38.6554 70.6454 38.2001 70.6114 37.7691 70.4788C37.3381 70.3462 36.9426 70.1183 36.6118 69.812C36.105 70.21 35.4169 70.2448 34.8145 69.9384C34.3216 69.6857 34.0179 69.2529 33.7958 68.7694C32.6785 67.8789 32.6357 66.102 33.4702 65.0115Z" fill="#9E59CE"/>
<path d="M3.61997 67.7496C3.78328 67.1855 4.5311 67.4193 4.63964 67.8749C4.72727 68.2411 4.8627 69.9643 5.64338 69.5076C6.07953 69.2509 6.73076 69.3783 6.7925 69.9752C6.99165 71.8984 9.35461 72.179 9.85051 70.2568C9.96004 69.833 10.5127 69.6907 10.8742 69.817C11.3352 69.9772 11.7704 70.1155 12.2682 70.029C12.3861 70.0491 12.5072 70.0387 12.6198 69.9986C12.7325 69.9586 12.8329 69.8902 12.9115 69.8001C13.3968 69.5779 13.3709 69.1952 12.8338 68.652C11.9167 68.4968 12.078 67.1078 13.0111 67.2143C14.4858 67.3815 14.9698 66.09 14.3454 64.92C13.9949 64.2624 14.9488 63.8654 15.389 64.3111C16.7831 65.7259 16.0283 67.7555 14.5256 68.46C14.6453 68.7703 14.6907 69.1043 14.6582 69.4353C14.6257 69.7663 14.5162 70.0851 14.3384 70.3662C13.6175 71.5323 12.2981 71.7343 11.0753 71.4935C9.85947 73.9639 6.19603 73.4833 5.49899 70.9264C4.0601 70.9184 3.20673 69.1773 3.61997 67.7496Z" fill="#9E59CE"/>
<path d="M5.8973 63.7002C6.46688 63.5012 6.80943 64.3091 6.25877 64.5688C5.97796 64.7021 5.88635 65.0115 5.96004 65.2931C6.03372 65.5747 5.76686 65.8552 5.50397 65.8901C5.36488 65.9061 5.22497 65.8677 5.11358 65.783C5.00219 65.6982 4.92798 65.5736 4.90651 65.4354C4.84361 65.0761 4.90816 64.7062 5.08904 64.3894C5.26992 64.0727 5.55578 63.8289 5.8973 63.7002Z" fill="#9E59CE"/>
<path d="M12.0004 62.4665C12.4919 62.2408 13.0097 62.0773 13.5418 61.98C14.1562 61.8656 14.2747 62.8088 13.6713 62.9361C13.2249 63.0333 12.7927 63.1864 12.3847 63.3918C11.8102 63.6803 11.4129 62.7401 12.0004 62.4665Z" fill="#9E59CE"/>
<path d="M11.617 61.1642C12.1767 61.1642 12.0651 62.0258 11.5115 62.0258C10.9578 62.0258 11.0654 61.1642 11.617 61.1642Z" fill="#9E59CE"/>
<path d="M39.1969 61.6904L40.0453 60.8159C40.2584 60.596 40.5701 60.5174 40.812 60.7582C41.054 60.999 40.9943 61.3104 40.7732 61.5253L39.8989 62.375C39.7246 62.5441 39.408 62.4934 39.2517 62.3362C39.0953 62.179 39.0226 61.8646 39.1969 61.6904Z" fill="#9E59CE"/>
<path d="M38.2877 61.1343C38.3405 61.0029 38.3923 60.8726 38.4451 60.7423C38.4629 60.6918 38.4908 60.6455 38.527 60.606C38.5632 60.5665 38.607 60.5348 38.6558 60.5126C38.7046 60.4905 38.7574 60.4784 38.8109 60.4771C38.8645 60.4758 38.9178 60.4853 38.9676 60.5051C39.0174 60.5248 39.0627 60.5544 39.1008 60.5921C39.1388 60.6297 39.1689 60.6747 39.1892 60.7242C39.2095 60.7738 39.2196 60.8269 39.2189 60.8805C39.2181 60.934 39.2066 60.9868 39.1849 61.0358C39.1332 61.1671 39.0804 61.2975 39.0286 61.4338C38.989 61.5319 38.912 61.6103 38.8145 61.6518C38.717 61.6932 38.607 61.6942 38.5088 61.6546C38.4106 61.6151 38.3321 61.5381 38.2906 61.4407C38.2492 61.3433 38.2481 61.2334 38.2877 61.1353V61.1343Z" fill="#9E59CE"/>
<path d="M59.9657 42.9649C60.2566 42.8437 60.5257 42.6756 60.7623 42.4675C60.8837 42.3736 61.0372 42.3314 61.1895 42.3501C61.3419 42.3687 61.4807 42.4466 61.5758 42.567C61.6661 42.6896 61.706 42.842 61.6875 42.9931C61.669 43.1442 61.5934 43.2826 61.4763 43.3798C61.124 43.6852 60.7053 43.9042 60.2534 44.0196C59.9916 44.0872 59.7137 43.8554 59.656 43.6216C59.6197 43.4932 59.631 43.3561 59.688 43.2354C59.7449 43.1147 59.8435 43.0187 59.9657 42.9649Z" fill="#5BC817"/>
<path d="M59.4598 40.6557C60.1568 40.6557 60.0184 41.7332 59.3273 41.7332C58.6363 41.7332 58.7628 40.6557 59.4598 40.6557Z" fill="#5BC817"/>
<path d="M48.3072 41.175C49.045 41.175 48.8977 42.3123 48.1678 42.3123C47.4379 42.3123 47.5783 41.175 48.3072 41.175Z" fill="#5BC817"/>
<path d="M46.2599 42.0903C46.9281 42.0903 46.7946 43.1201 46.1334 43.1201C45.4722 43.1201 45.5997 42.0903 46.2599 42.0903Z" fill="#5BC817"/>
<path d="M18.3006 18.5106C18.4164 19.1031 18.4589 19.7076 18.4271 20.3104C18.4102 20.9611 17.3058 20.975 17.278 20.3174C17.2433 19.7666 17.1732 19.2185 17.0679 18.6767C16.9314 17.8828 18.1274 17.7445 18.3006 18.5106Z" fill="#5BC817"/>
<path d="M15.1809 17.7037C15.4358 17.6102 15.8132 17.7037 15.8998 18.0022C15.9765 18.2648 16.0542 18.5265 16.1308 18.7891C16.2075 19.0518 16.1309 19.3861 15.8411 19.4916C15.5862 19.5841 15.2327 19.4916 15.1391 19.202L14.8851 18.424C14.7965 18.1484 14.8871 17.8141 15.1809 17.7037Z" fill="#5BC817"/>
<path d="M72.1061 52.0516L72.358 52.6187C72.3846 52.6785 72.4276 52.7296 72.482 52.7662C72.5364 52.8027 72.5999 52.8232 72.6654 52.8253C72.7309 52.8274 72.7957 52.811 72.8523 52.7779C72.9089 52.7449 72.955 52.6966 72.9854 52.6386L73.9881 50.7194C74.0247 50.6497 74.0836 50.5944 74.1554 50.5622L76.136 49.6846C76.1959 49.6581 76.247 49.6151 76.2836 49.5608C76.3202 49.5065 76.3407 49.4429 76.3428 49.3775C76.3448 49.312 76.3284 49.2473 76.2954 49.1908C76.2623 49.1343 76.214 49.0882 76.1559 49.0578L74.2321 48.0599C74.1621 48.0233 74.1066 47.964 74.0747 47.8918L73.2014 45.9109C73.1748 45.8511 73.1319 45.7999 73.0775 45.7634C73.0231 45.7268 72.9595 45.7064 72.894 45.7043C72.8285 45.7022 72.7638 45.7186 72.7072 45.7516C72.6506 45.7847 72.6045 45.833 72.5741 45.891L71.5714 47.8092C71.5354 47.8793 71.4763 47.9348 71.4041 47.9664L69.4175 48.8439C69.3577 48.8707 69.3066 48.9137 69.2701 48.9682C69.2335 49.0226 69.2131 49.0861 69.211 49.1516C69.2089 49.2171 69.2253 49.2818 69.2583 49.3384C69.2913 49.395 69.3396 49.4412 69.3976 49.4717L71.3184 50.4726C71.3881 50.5092 71.4435 50.568 71.4758 50.6398L72.1061 52.0516Z" fill="#FDE41B"/>
<path d="M6.6989 7.34848L6.94984 7.91559C6.97663 7.97538 7.01971 8.02643 7.07416 8.06292C7.12861 8.09941 7.19224 8.11986 7.25777 8.12194C7.32331 8.12402 7.3881 8.10763 7.44476 8.07466C7.50141 8.04169 7.54764 7.99346 7.57817 7.93548L8.57593 6.01627C8.61251 5.94663 8.67141 5.89128 8.74322 5.85907L10.7278 4.97955C10.7877 4.95296 10.8388 4.91003 10.8754 4.8557C10.912 4.80137 10.9325 4.73784 10.9346 4.6724C10.9367 4.60695 10.9202 4.54225 10.8872 4.48571C10.8541 4.42917 10.8058 4.38309 10.7477 4.35275L8.82686 3.35285C8.75747 3.31731 8.70206 3.25949 8.66953 3.18868L7.79126 1.20679C7.76465 1.14696 7.72168 1.09583 7.66731 1.05929C7.61293 1.02274 7.54935 1.00225 7.48384 1.00018C7.41834 0.998098 7.35358 1.01451 7.297 1.04754C7.24041 1.08057 7.19429 1.12886 7.16393 1.18689L6.16218 3.10611C6.12548 3.176 6.06616 3.23141 5.9939 3.2633L4.01431 4.14083C3.95442 4.16743 3.90326 4.21035 3.86668 4.26468C3.8301 4.31901 3.8096 4.38254 3.80752 4.44799C3.80544 4.51343 3.82187 4.57814 3.85492 4.63468C3.88798 4.69122 3.93632 4.7373 3.99439 4.76763L5.91424 5.76953C5.98412 5.80582 6.0396 5.86476 6.07157 5.93667L6.6989 7.34848Z" fill="#FDE41B"/>
<path d="M28.3181 13.317L28.4087 13.516C28.4182 13.5374 28.4336 13.5556 28.453 13.5687C28.4724 13.5817 28.4952 13.589 28.5186 13.5897C28.5419 13.5905 28.5651 13.5846 28.5853 13.5728C28.6055 13.561 28.6219 13.5437 28.6328 13.523L28.9892 12.8395C29.0023 12.8145 29.0233 12.7945 29.049 12.7828L29.757 12.4694C29.7784 12.4598 29.7966 12.4444 29.8097 12.425C29.8228 12.4055 29.8302 12.3828 29.831 12.3594C29.8319 12.336 29.8261 12.3128 29.8144 12.2925C29.8027 12.2722 29.7856 12.2556 29.765 12.2445L29.0779 11.8873C29.053 11.8736 29.0331 11.8524 29.0211 11.8266L28.7074 11.1192C28.6979 11.0979 28.6826 11.0796 28.6631 11.0666C28.6437 11.0536 28.621 11.0463 28.5976 11.0455C28.5742 11.0448 28.5511 11.0507 28.5309 11.0625C28.5107 11.0743 28.4942 11.0916 28.4834 11.1123L28.1249 11.7988C28.1117 11.8238 28.0903 11.8435 28.0642 11.8545L27.3562 12.1689C27.3348 12.1784 27.3165 12.1938 27.3035 12.2132C27.2904 12.2326 27.2831 12.2553 27.2824 12.2786C27.2817 12.302 27.2876 12.3251 27.2994 12.3453C27.3112 12.3655 27.3285 12.3819 27.3492 12.3928L28.0363 12.7509C28.0613 12.7637 28.081 12.7848 28.0921 12.8106L28.3161 13.3151" fill="#FDE41B"/>
<path d="M20.091 11.1909L20.1806 11.3899C20.1903 11.4112 20.2058 11.4294 20.2253 11.4424C20.2448 11.4554 20.2676 11.4626 20.291 11.4634C20.3144 11.4641 20.3376 11.4582 20.3579 11.4465C20.3781 11.4347 20.3947 11.4175 20.4057 11.3969L20.7632 10.7104C20.7766 10.6855 20.798 10.6659 20.8239 10.6547L21.5319 10.3403C21.5533 10.3307 21.5715 10.3154 21.5846 10.296C21.5976 10.2766 21.605 10.2539 21.6057 10.2305C21.6064 10.2071 21.6005 10.184 21.5887 10.1638C21.5769 10.1437 21.5596 10.1272 21.5389 10.1164L20.8518 9.75822C20.8268 9.74542 20.8071 9.72431 20.796 9.69853L20.4814 8.99113C20.4718 8.96977 20.4565 8.95153 20.4371 8.93849C20.4176 8.92545 20.3949 8.91815 20.3715 8.91742C20.3481 8.91669 20.325 8.92257 20.3048 8.93438C20.2846 8.94618 20.2682 8.96344 20.2573 8.98417L19.8988 9.66967C19.8858 9.69467 19.8648 9.71461 19.8391 9.72639L19.1311 10.0438C19.1098 10.0535 19.0916 10.0689 19.0786 10.0884C19.0656 10.1079 19.0583 10.1306 19.0576 10.154C19.0569 10.1774 19.0627 10.2006 19.0745 10.2208C19.0862 10.2411 19.1034 10.2576 19.1241 10.2686L19.8102 10.6258C19.8351 10.6395 19.855 10.6608 19.867 10.6865L20.091 11.1909Z" fill="#FDE41B"/>
<path d="M68.6209 57.6729L68.7105 57.8719C68.7202 57.8932 68.7357 57.9114 68.7552 57.9244C68.7747 57.9374 68.7974 57.9447 68.8209 57.9454C68.8443 57.9461 68.8674 57.9403 68.8877 57.9285C68.908 57.9168 68.9246 57.8996 68.9356 57.8789L69.293 57.1924C69.3065 57.1676 69.3279 57.1479 69.3538 57.1367L70.0618 56.8223C70.0831 56.8128 70.1014 56.7974 70.1145 56.778C70.1275 56.7586 70.1348 56.7359 70.1356 56.7125C70.1363 56.6892 70.1304 56.6661 70.1186 56.6459C70.1068 56.6257 70.0895 56.6093 70.0687 56.5984L69.3817 56.2403C69.3567 56.2275 69.337 56.2063 69.3259 56.1806L69.0112 55.4732C69.0018 55.4518 68.9865 55.4334 68.9672 55.4203C68.9478 55.4072 68.9251 55.3998 68.9017 55.3989C68.8783 55.3981 68.8552 55.4039 68.8349 55.4156C68.8146 55.4273 68.7981 55.4445 68.7872 55.4652L68.4287 56.1517C68.4156 56.1767 68.3946 56.1967 68.369 56.2084L67.661 56.5218C67.6396 56.5313 67.6213 56.5467 67.6083 56.5661C67.5952 56.5855 67.5879 56.6082 67.5872 56.6316C67.5865 56.6549 67.5923 56.678 67.6042 56.6982C67.616 56.7184 67.6332 56.7349 67.654 56.7457L68.3401 57.1039C68.3652 57.1173 68.3851 57.1386 68.3968 57.1645L68.6209 57.669" fill="#FDE41B"/>
<path d="M67.3264 51.7959L67.417 51.9949C67.4265 52.0162 67.4419 52.0345 67.4613 52.0475C67.4807 52.0606 67.5035 52.0679 67.5268 52.0686C67.5502 52.0693 67.5734 52.0634 67.5936 52.0516C67.6138 52.0398 67.6302 52.0226 67.6411 52.0018L67.9995 51.3153C68.0123 51.2904 68.0335 51.2707 68.0593 51.2596L68.7673 50.9452C68.7886 50.9357 68.8069 50.9204 68.82 50.901C68.833 50.8816 68.8403 50.8589 68.8411 50.8355C68.8418 50.8121 68.8359 50.789 68.8241 50.7688C68.8123 50.7486 68.795 50.7322 68.7742 50.7214L68.0882 50.3632C68.0631 50.3501 68.0432 50.3291 68.0314 50.3035L67.7177 49.5961C67.708 49.5748 67.6926 49.5566 67.6731 49.5436C67.6536 49.5306 67.6308 49.5234 67.6074 49.5226C67.584 49.5219 67.5608 49.5278 67.5405 49.5395C67.5203 49.5513 67.5037 49.5685 67.4927 49.5891L67.1342 50.2746C67.1211 50.2996 67.1001 50.3196 67.0745 50.3314L66.3665 50.6467C66.3451 50.6563 66.3268 50.6716 66.3138 50.691C66.3007 50.7104 66.2934 50.7331 66.2927 50.7565C66.292 50.7799 66.2978 50.803 66.3097 50.8232C66.3215 50.8433 66.3388 50.8598 66.3595 50.8706L67.0466 51.2288C67.0716 51.242 67.0913 51.2634 67.1023 51.2895L67.3264 51.7939" fill="#FDE41B"/>
<path d="M7.14802 15.6154L7.23863 15.8143C7.24815 15.8357 7.26351 15.854 7.28293 15.867C7.30236 15.88 7.32508 15.8873 7.34847 15.8881C7.37186 15.8888 7.39498 15.8829 7.41519 15.8711C7.43539 15.8593 7.45185 15.842 7.46268 15.8213L7.82116 15.1348C7.83397 15.1098 7.8551 15.0901 7.8809 15.0791L8.5889 14.7647C8.61033 14.7553 8.62867 14.74 8.64181 14.7207C8.65495 14.7013 8.66236 14.6786 8.6632 14.6553C8.66403 14.6319 8.65825 14.6088 8.64651 14.5885C8.63478 14.5683 8.61757 14.5517 8.59686 14.5408L7.90978 14.1827C7.88477 14.1696 7.8648 14.1486 7.85302 14.123L7.53935 13.4156C7.52983 13.3942 7.51448 13.376 7.49505 13.3629C7.47562 13.3499 7.45291 13.3426 7.42952 13.3419C7.40612 13.3411 7.383 13.347 7.3628 13.3588C7.3426 13.3706 7.32614 13.3879 7.31531 13.4086L6.95683 14.0941C6.94351 14.1189 6.92257 14.1388 6.89708 14.1508L6.1861 14.4682C6.16476 14.4779 6.14657 14.4934 6.13357 14.5128C6.12058 14.5323 6.1133 14.5551 6.11258 14.5785C6.11185 14.6019 6.1177 14.625 6.12947 14.6453C6.14123 14.6655 6.15843 14.6821 6.17913 14.6931L6.86621 15.0502C6.89107 15.0637 6.9107 15.085 6.92198 15.1109L7.14602 15.6154" fill="#FDE41B"/>
<path d="M65.9094 16.3218C60.9963 11.8058 54.3077 9.16628 47.6241 9.16827C41.2651 9.16827 34.8832 11.6626 30.7169 16.5576C28.1996 19.5155 26.452 23.0843 25.035 26.675C24.9354 26.9357 24.6108 27.068 24.3888 26.8451C22.4679 24.914 19.0614 25.4522 17.2909 27.3207C15.7405 28.9594 15.3989 31.4905 15.9745 33.6087C16.3091 34.8444 16.9703 35.9706 17.9571 36.7924C18.3395 37.1118 17.7898 37.655 17.4104 37.3387C15.4189 35.6751 14.6621 32.8804 15.0425 30.3742C15.2246 29.1182 15.7548 27.9382 16.573 26.9675C17.4811 25.9119 18.8015 25.2174 20.1657 24.9727C21.8764 24.6663 23.6838 25.0423 24.9354 26.3009L24.2892 26.4701C25.6026 23.144 27.1769 19.8707 29.3586 17.0182C31.373 14.3698 33.9852 12.2344 36.9823 10.786C43.0704 7.85397 50.1782 7.73557 56.5253 9.90551C60.2058 11.1558 63.5872 13.1545 66.4561 15.7756C66.8225 16.1119 66.2758 16.6571 65.9094 16.3208V16.3218Z" fill="#400705"/>
<path d="M77.8955 51.7839C77.3309 47.9276 76.5701 44.0991 75.7297 40.2945C74.7887 36.0312 73.7382 31.7839 72.4377 27.6132C71.8402 25.692 71.1969 23.7747 70.3973 21.9261C70.1982 21.4754 70.8683 21.0815 71.0645 21.5371C72.6129 25.1189 73.6904 28.9046 74.6841 32.6694C75.8054 36.9144 76.7766 41.1969 77.5978 45.5169C77.9851 47.5296 78.3436 49.5493 78.6403 51.578C78.711 52.0645 77.9672 52.2744 77.8955 51.7839Z" fill="#400705"/>
<path d="M30.7219 31.8138C30.4619 31.3674 30.1247 30.9706 29.7261 30.6418C29.5333 30.4835 29.3263 30.3433 29.1077 30.2229C28.8966 30.1045 28.6517 29.9632 28.4107 29.9354C28.3521 29.9284 28.2926 29.9342 28.2364 29.9523C28.2932 29.9344 28.1936 29.9752 28.1707 29.9921C28.2304 29.9503 28.1388 30.0279 28.1259 30.0458C28.1717 29.9871 28.107 30.0896 28.097 30.1105C28.1269 30.0458 28.0841 30.1582 28.0781 30.1841C28.0721 30.21 28.0681 30.2309 28.0642 30.2547C28.0751 30.1871 28.0642 30.2488 28.0642 30.2627C28.0642 30.3134 28.0642 30.3622 28.0642 30.4139C28.0642 30.4398 28.0661 30.4657 28.0701 30.4915C28.0642 30.4358 28.0701 30.5015 28.0761 30.5244C28.0939 30.6204 28.1212 30.7144 28.1578 30.8049C28.1339 30.7472 28.1956 30.8746 28.2016 30.8845C28.2344 30.9422 28.2713 30.9979 28.3091 31.0517C28.4352 31.2203 28.5848 31.37 28.7532 31.4964C29.1205 31.769 29.5617 31.9244 30.0189 31.9421C30.134 31.9474 30.2493 31.9418 30.3634 31.9252C30.4133 31.92 30.462 31.9069 30.5078 31.8864C30.4799 31.9043 30.5078 31.8695 30.5078 31.8765C30.4948 31.9133 30.5177 31.8347 30.5187 31.8267C30.5287 31.7611 30.5187 31.8745 30.5187 31.8058C30.5187 31.7889 30.5098 31.6715 30.5187 31.7133C30.4981 31.5985 30.4647 31.4864 30.4192 31.379C30.2373 30.959 29.9558 30.5896 29.5989 30.3029C29.2419 30.0161 28.8204 29.8207 28.3709 29.7334C28.3231 29.7223 28.2744 29.7153 28.2255 29.7125C28.2334 29.7125 28.1339 29.7125 28.1339 29.7125C28.1398 29.7443 28.2255 29.6508 28.2334 29.6458C28.2265 29.6588 28.2673 29.5672 28.2514 29.5762C28.2514 29.5762 28.2603 29.622 28.2723 29.6498C28.2723 29.6498 28.3241 29.7354 28.337 29.7543C28.5128 29.986 28.7172 30.1946 28.9454 30.3751C29.3939 30.737 29.9201 30.9903 30.4829 31.1153L30.0467 31.6825C29.9195 31.4426 29.7418 31.2331 29.526 31.0682C29.3101 30.9033 29.0611 30.7871 28.796 30.7273C28.7761 30.7273 28.7174 30.7223 28.7034 30.7094C28.7263 30.7303 28.9086 30.5522 28.9205 30.5472C28.9544 30.5313 28.8767 30.4617 28.9345 30.5472L28.9484 30.5681C29.0131 30.6815 29.0974 30.7826 29.1973 30.8666C29.3926 31.0264 29.637 31.1139 29.8894 31.1143L29.517 31.3979C29.5565 31.2559 29.5599 31.1062 29.5268 30.9625C29.4938 30.8188 29.4254 30.6857 29.3278 30.5751C29.2807 30.5221 29.2268 30.4756 29.1675 30.4368C29.1071 30.4071 29.0445 30.3822 28.9803 30.3622C28.9574 30.3522 28.9175 30.3622 28.9364 30.3622C28.9643 30.3353 28.9613 30.3383 28.9295 30.3701L28.9474 30.3522C28.9603 30.3144 28.9593 30.3184 28.9474 30.3622C28.9474 30.3244 28.9474 30.3204 28.9474 30.3483C28.9474 30.3761 28.9474 30.3721 28.9474 30.3313C28.9424 30.3103 28.933 30.2905 28.9198 30.2733C28.9066 30.2562 28.8899 30.242 28.8707 30.2318C28.9569 30.2857 29.0192 30.3703 29.0449 30.4685C29.0707 30.5667 29.0579 30.6711 29.0091 30.7602C28.9096 30.9273 28.6517 31.0208 28.4814 30.8984C28.3995 30.8418 28.3305 30.7684 28.2791 30.6831C28.2277 30.5979 28.195 30.5027 28.1831 30.4038C28.1712 30.305 28.1805 30.2048 28.2103 30.1098C28.2401 30.0148 28.2897 29.9272 28.3559 29.8528C28.6437 29.5085 29.1525 29.5473 29.509 29.7453C30.1503 30.0975 30.449 30.9144 30.2568 31.6039C30.2327 31.6844 30.1836 31.7551 30.1167 31.8061C30.0498 31.857 29.9685 31.8855 29.8844 31.8874C29.4022 31.8848 28.9392 31.6983 28.5899 31.3661C28.2653 31.0576 27.875 30.3711 28.3908 30.0368C28.7811 29.7831 29.4284 30.0906 29.7769 30.3085C30.1665 30.5514 30.4869 30.8906 30.7069 31.2934C30.7432 31.3599 30.7594 31.4356 30.7535 31.5111C30.7476 31.5866 30.7199 31.6588 30.6737 31.7189C30.6275 31.779 30.5648 31.8243 30.4933 31.8495C30.4217 31.8746 30.3445 31.8785 30.2708 31.8605C29.588 31.6981 28.9515 31.382 28.4097 30.9363C27.9666 30.5751 27.0654 29.7264 27.6599 29.1334C27.9377 28.8569 28.3659 28.9345 28.7074 29.016C29.0136 29.0919 29.3081 29.2091 29.5827 29.3643C30.1485 29.6811 30.6182 30.1449 30.9419 30.7064C31.2496 31.2467 31.5762 32.1988 30.8513 32.5699C30.5526 32.7241 30.1603 32.7331 29.8326 32.7013C29.4973 32.6685 29.1693 32.5828 28.8608 32.4476C28.2962 32.2008 27.7435 31.7412 27.4786 31.174C27.2307 30.6437 27.1799 29.9373 27.5981 29.4757C28.1956 28.8161 29.2003 29.3434 29.7948 29.7394C30.4486 30.1716 30.9938 30.7487 31.388 31.4258C31.638 31.8556 30.9708 32.2456 30.7219 31.8148V31.8138Z" fill="#400705"/>
<path d="M36.9295 35.7338C36.201 35.4316 35.4418 35.2097 34.6651 35.0722L35.1401 34.5966C35.3139 35.5309 35.5497 36.4526 35.8461 37.3555C35.871 37.4535 35.8565 37.5573 35.8057 37.6446C35.7549 37.732 35.6718 37.796 35.5742 37.8228C35.4767 37.8496 35.3726 37.8372 35.2841 37.7881C35.1957 37.7391 35.1301 37.6573 35.1013 37.5605C34.8044 36.658 34.5686 35.7366 34.3953 34.8025C34.3816 34.738 34.3841 34.671 34.4028 34.6076C34.4214 34.5443 34.4555 34.4866 34.5021 34.4397C34.5486 34.3928 34.6061 34.3583 34.6693 34.3391C34.7325 34.3199 34.7995 34.3168 34.8643 34.3299C35.6425 34.4681 36.4034 34.6903 37.1336 34.9926C37.3258 35.0732 37.4632 35.2483 37.4025 35.4671C37.3527 35.6492 37.1217 35.8174 36.9275 35.7368L36.9295 35.7338Z" fill="#400705"/>
<path d="M26.4002 26.0213C26.8812 26.3486 27.1341 27.0162 26.9081 27.5664C26.8512 27.7209 26.7607 27.8609 26.6432 27.9763C26.528 28.0816 26.3924 28.1622 26.2449 28.2131C25.9973 28.2972 25.7288 28.2972 25.4811 28.2131C25.3221 28.1635 25.1768 28.0775 25.0568 27.962C24.9369 27.8464 24.8455 27.7045 24.7901 27.5475C24.7634 27.449 24.7767 27.3439 24.827 27.2551C24.8773 27.1663 24.9607 27.1008 25.0589 27.0729C25.1577 27.0486 25.2621 27.063 25.3506 27.1132C25.4391 27.1633 25.5051 27.2454 25.5349 27.3426C25.5588 27.4102 25.5299 27.3167 25.518 27.3058C25.5269 27.3137 25.5319 27.3346 25.5379 27.3456C25.5598 27.3844 25.6265 27.445 25.5379 27.3515C25.5578 27.3724 25.5757 27.3943 25.5967 27.4142C25.6176 27.4341 25.6196 27.4331 25.6295 27.4431C25.5439 27.3625 25.5688 27.3973 25.5976 27.4172C25.6265 27.4371 25.6474 27.448 25.6733 27.462C25.6871 27.4671 25.7005 27.4734 25.7132 27.4809C25.6992 27.4689 25.6136 27.4411 25.6763 27.464C25.7324 27.4841 25.7905 27.4985 25.8496 27.5067L25.75 27.4928C25.8247 27.5023 25.9003 27.5023 25.975 27.4928L25.8755 27.5067C25.9124 27.5019 25.949 27.4946 25.985 27.4848C26.0019 27.4809 26.0185 27.4759 26.0348 27.4699C26.1184 27.4411 25.9561 27.5087 26.0109 27.4809C26.0424 27.4663 26.0726 27.4493 26.1015 27.4301C26.1593 27.3913 26.0796 27.4401 26.0716 27.456C26.0786 27.4421 26.1045 27.4271 26.1154 27.4162C26.1264 27.4053 26.1413 27.3883 26.1533 27.3754C26.2091 27.3167 26.1035 27.45 26.1393 27.3943C26.1593 27.3615 26.1782 27.3296 26.1961 27.2948C26.226 27.2391 26.1573 27.3993 26.1891 27.3117L26.2041 27.266C26.2157 27.2235 26.2243 27.1803 26.23 27.1366L26.216 27.2361C26.2264 27.1535 26.2264 27.07 26.216 26.9874C26.216 27.0212 26.225 27.056 26.23 27.0869C26.2206 27.0261 26.2063 26.9662 26.1871 26.9078L26.1722 26.868C26.1583 26.8252 26.215 26.9605 26.1881 26.9068C26.1752 26.8789 26.1613 26.8511 26.1463 26.8242C26.1314 26.7973 26.1164 26.7775 26.1015 26.7536C26.0617 26.6949 26.1254 26.7854 26.1264 26.7854C26.1163 26.7721 26.1053 26.7595 26.0935 26.7476C26.075 26.7271 26.0554 26.7075 26.0348 26.6889C26.0229 26.6768 26.0099 26.6658 25.996 26.6561C26.0009 26.6561 26.0876 26.7227 26.0199 26.677C25.9337 26.6232 25.8714 26.5385 25.8456 26.4403C25.8199 26.3421 25.8327 26.2377 25.8814 26.1487C25.988 25.9835 26.231 25.889 26.4102 26.0104L26.4002 26.0213Z" fill="#400705"/>
<path d="M65.2572 16.7197C66.0109 15.9142 66.9324 15.2838 67.9567 14.8732C68.9644 14.4593 69.9692 14.3687 70.9679 14.8463C72.9893 15.8134 74.1275 18.3415 73.0839 20.4079C72.8118 20.9591 72.3972 21.4276 71.883 21.7649C71.3688 22.1021 70.7737 22.2959 70.1594 22.3262C69.6615 22.3441 69.6615 21.572 70.1594 21.5541C71.0665 21.5203 71.8522 20.985 72.3092 20.2129C72.5365 19.822 72.6729 19.3851 72.7084 18.9344C72.7439 18.4837 72.6776 18.0308 72.5144 17.6092C72.1892 16.7616 71.5739 16.0565 70.7777 15.6194C69.9682 15.1726 69.1845 15.2323 68.3351 15.5517C67.3698 15.9208 66.5031 16.5083 65.8029 17.2679C65.4683 17.6361 64.9226 17.0889 65.2572 16.7227V16.7197Z" fill="#400705"/>
<path d="M51.7466 8.87476C51.8233 8.23766 51.6845 7.59324 51.3523 7.04407C51.02 6.4949 50.5135 6.07253 49.9133 5.84421C48.7782 5.38555 47.3542 5.50295 46.4371 6.36655C45.8058 6.9635 45.515 7.79825 45.4493 8.64791C45.4115 9.13941 44.6377 9.14538 44.6766 8.64791C44.813 6.88789 45.8177 5.31192 47.6181 4.91196C49.1038 4.58165 50.8016 5.06717 51.7665 6.27302C52.351 7.00827 52.6216 7.94432 52.5193 8.87774C52.4705 9.36725 51.6978 9.37521 51.7466 8.87774V8.87476Z" fill="#400705"/>
<path d="M24.6666 17.0043C24.1488 16.5754 23.5961 16.1088 22.925 15.9566C22.4331 15.8432 21.8127 15.9457 21.51 16.3844C21.4794 16.4345 21.438 16.477 21.3888 16.5089C21.3396 16.5408 21.2838 16.5613 21.2256 16.5689C21.1675 16.5764 21.1083 16.5708 21.0526 16.5525C20.9968 16.5342 20.9459 16.5036 20.9036 16.463C19.7027 15.2482 17.988 14.6572 16.2922 14.7826C14.8055 14.893 12.6078 15.7865 12.6337 17.5684C12.6329 17.6275 12.6187 17.6858 12.592 17.7386C12.5654 17.7914 12.527 17.8375 12.4799 17.8734C12.4328 17.9092 12.3782 17.9339 12.3201 17.9455C12.262 17.9572 12.2021 17.9554 12.1448 17.9405C10.2369 17.5157 8.4445 19.025 7.77933 20.7094C7.36907 21.7421 7.25356 22.8574 7.27348 23.9608C7.28236 24.5264 7.32259 25.091 7.39397 25.6522C7.41687 25.8333 7.53138 26.5297 7.79227 26.4899C7.82746 26.7426 7.86065 26.9953 7.89185 27.248C7.34916 27.2212 7.23763 27.9594 7.28244 28.3713C7.35314 29.013 7.81916 29.617 8.2583 30.0627C8.76514 30.58 9.37256 30.987 9.98994 31.3631C10.2518 31.5222 10.5296 31.7302 10.8224 31.8247C10.9519 31.8609 11.0863 31.8766 11.2207 31.8715C11.2528 31.8656 11.2842 31.8563 11.3143 31.8436C11.2635 31.8536 11.2775 32.0038 11.2635 31.8555C11.2177 31.3581 11.9904 31.3641 12.0362 31.8555C12.1358 32.8793 10.7417 32.6843 10.1881 32.3729C9.30983 31.8754 8.42558 31.3292 7.71162 30.6089C7.07432 29.9662 6.47587 29.0837 6.50275 28.1415C6.52466 27.3455 6.97873 26.4342 7.89086 26.479C8.30012 26.4989 8.4465 27.1674 7.99043 27.2371C7.07831 27.3774 6.71485 26.461 6.62324 25.7109C6.49479 24.6483 6.43902 23.5628 6.56051 22.4963C6.78555 20.5422 7.65585 18.6658 9.43231 17.6689C10.3128 17.155 11.3531 16.9866 12.3509 17.1963L11.862 17.5684C11.8341 15.4273 14.1781 14.2573 16.0143 14.0384C17.0034 13.9239 18.0056 14.0333 18.9466 14.3584C19.8876 14.6836 20.7433 15.2162 21.4503 15.9168L20.8438 15.9944C21.2969 15.3388 22.0776 15.0691 22.8563 15.1666C23.7794 15.282 24.5222 15.885 25.2143 16.46C25.5976 16.7774 25.048 17.3206 24.6676 17.0053L24.6666 17.0043Z" fill="#400705"/>
<path d="M27.0913 18.4469C27.2048 18.7878 27.3187 19.1291 27.4328 19.4707C27.4592 19.5693 27.4457 19.6744 27.3952 19.7632C27.3447 19.852 27.2613 19.9174 27.163 19.9453C27.0643 19.9693 26.9602 19.9547 26.872 19.9046C26.7837 19.8545 26.7179 19.7726 26.688 19.6756C26.5738 19.334 26.46 18.9928 26.3465 18.6518C26.3201 18.5532 26.3336 18.4481 26.3841 18.3593C26.4346 18.2705 26.518 18.2052 26.6163 18.1773C26.715 18.1533 26.8191 18.1678 26.9074 18.2179C26.9956 18.268 27.0614 18.3499 27.0913 18.4469Z" fill="#400705"/>
<path d="M12.7671 33.0465V33.3877C12.7621 33.489 12.722 33.5854 12.6536 33.6604C12.5788 33.7289 12.4822 33.7687 12.3808 33.7728L12.2812 33.7598C12.2168 33.7419 12.1582 33.7076 12.1109 33.6604C12.09 33.6345 12.0701 33.6076 12.0502 33.5818C12.0145 33.5216 11.9963 33.4527 11.9974 33.3828V33.0465C11.9952 32.9947 12.0065 32.9433 12.0303 32.8973C12.0607 32.8284 12.1101 32.7696 12.1727 32.7277C12.2353 32.6858 12.3085 32.6625 12.3838 32.6605L12.4833 32.6744C12.5479 32.6919 12.6067 32.7262 12.6536 32.7739L12.7144 32.8525C12.7498 32.9127 12.7681 32.9816 12.7671 33.0515V33.0465Z" fill="#400705"/>
<path d="M27.6509 34.3826L26.0796 33.526L26.6083 33.3877C25.8973 34.5783 25.2852 35.8252 24.7781 37.1157C24.5318 37.7498 24.3091 38.3928 24.11 39.0449C24.0144 39.3612 23.9251 39.6793 23.8421 39.999C23.7958 40.1535 23.7572 40.3102 23.7266 40.4686C23.7186 40.5253 23.7266 40.587 23.7186 40.6407C23.7037 40.7143 23.7804 40.7283 23.6858 40.6905L23.387 40.7293C25.4582 39.1984 27.0755 37.1355 28.0671 34.7597C28.2543 34.307 29.0022 34.505 28.812 34.9647C27.95 37.0633 26.6264 38.9414 24.9394 40.4596C24.7336 40.644 24.5225 40.8221 24.3061 40.9939C24.1119 41.1471 23.8381 41.4506 23.5792 41.4526C23.0734 41.4526 22.9091 40.8437 22.9519 40.4477C23.0156 39.8507 23.2357 39.2458 23.4119 38.6757C23.6011 38.0629 23.8129 37.4576 24.0472 36.86C24.5712 35.5252 25.2022 34.2349 25.9342 33.0017C25.9881 32.9156 26.0728 32.8533 26.1711 32.8276C26.2694 32.8019 26.3738 32.8147 26.463 32.8634L28.0333 33.72C28.4704 33.9578 28.0811 34.6244 27.6439 34.3866L27.6509 34.3826Z" fill="#400705"/>
<path d="M54.0378 37.7575C53.4693 36.1278 52.0324 34.5429 50.2101 34.4364C48.5492 34.3369 46.7976 35.7358 46.9778 37.4819C47.0097 37.8013 46.6323 37.9266 46.3963 37.8152C44.8389 37.0829 42.924 37.3635 41.5509 38.3624C40.113 39.4091 39.5275 41.2616 39.883 42.9749C40.0743 43.9446 40.5674 44.8291 41.292 45.502C41.6096 45.7935 41.1924 46.3597 40.824 46.1079C39.9278 45.4941 38.8095 46.1617 38.4112 47.0372C37.9253 48.1048 38.1374 49.431 38.453 50.5194C39.1053 52.756 40.7433 54.7051 43.0037 55.4105C44.2938 55.8254 45.6862 55.7935 46.9559 55.32C47.038 55.2974 47.1252 55.3025 47.2041 55.3345C47.283 55.3665 47.3491 55.4237 47.3921 55.4971C48.1429 57.2661 49.4663 58.9087 51.2756 59.6599C52.9953 60.3732 54.9599 60.0449 56.3122 58.7356C57.0182 58.0501 57.4553 57.1437 57.4324 56.1557C57.4324 55.9259 57.6873 55.6921 57.9223 55.7836C59.3513 56.3467 61.0092 55.6592 61.8566 54.4245C62.8982 52.9033 62.706 50.8488 61.9562 49.2509C61.8238 48.9684 61.9871 48.7047 62.2898 48.6699C63.9049 48.4858 65.5549 47.1626 65.6535 45.4582C65.7461 43.8664 64.1808 42.1969 62.5308 42.5899C62.4621 42.3421 62.3934 42.0924 62.3256 41.8457C63.5455 41.5711 63.9189 39.9463 63.3622 38.9474C62.5875 37.5456 60.6169 37.472 59.2855 37.9625C58.9868 38.0719 58.7588 37.7495 58.8106 37.4869C58.946 36.7904 58.4272 36.0044 57.7152 35.895C56.9764 35.7826 56.3002 36.3686 56.1797 37.072C56.0951 37.5605 55.3503 37.3536 55.4349 36.867C55.6281 35.7428 56.8021 34.9369 57.9243 35.1498C59.0685 35.3687 59.7765 36.5875 59.5614 37.6908L59.0874 37.2153C60.7802 36.5944 63.2427 36.874 64.1031 38.6848C64.7752 40.1025 64.2126 42.2118 62.5377 42.5879C62.0538 42.6963 61.8467 41.9591 62.3326 41.8437C63.9746 41.4527 65.5738 42.5511 66.1862 44.0494C66.8255 45.6115 66.1315 47.3496 64.8639 48.3694C64.1284 48.9644 63.2374 49.336 62.2968 49.44L62.6303 48.8599C63.4987 50.7204 63.7386 53.1321 62.477 54.8872C61.4334 56.3378 59.4548 57.2103 57.7202 56.5278L58.2091 56.1557C58.2579 58.258 56.6079 59.9573 54.6931 60.5732C52.596 61.2488 50.3983 60.418 48.8439 58.9614C47.9318 58.0946 47.2102 57.0476 46.7249 55.8871L47.161 56.0642C44.5113 57.072 41.4344 56.1517 39.5653 54.0813C38.6791 53.0912 38.0343 51.9095 37.6813 50.6289C37.3189 49.3355 37.1526 47.8013 37.7889 46.5616C38.3963 45.3767 40.0214 44.6235 41.2133 45.4463L40.7453 46.0522C39.2397 44.6703 38.6701 42.4327 39.2108 40.4806C39.7515 38.5286 41.4682 37.0919 43.4568 36.7377C44.5831 36.5268 45.7471 36.6737 46.7856 37.1576L46.2051 37.4899C46.0348 35.8343 47.3005 34.4056 48.7941 33.8803C50.3983 33.3152 52.123 33.9798 53.283 35.1329C53.9575 35.8194 54.4681 36.6493 54.7767 37.5605C54.941 38.0311 54.1942 38.2331 54.0319 37.7655L54.0378 37.7575Z" fill="#400705"/>
<path d="M57.3079 30.5841C56.3009 30.0362 55.2358 29.6024 54.1324 29.2907C53.6554 29.1554 53.8586 28.4102 54.3385 28.5455C55.5054 28.8757 56.6319 29.3345 57.6973 29.9135C58.1344 30.1513 57.7451 30.8179 57.3079 30.5801V30.5841Z" fill="#400705"/>
<path d="M65.2512 51.778L64.7613 54.3956C64.7234 54.6006 64.4755 54.717 64.2863 54.6653C64.1893 54.6354 64.1073 54.5697 64.0571 54.4815C64.007 54.3933 63.9924 54.2892 64.0164 54.1907L64.5064 51.572C64.5452 51.3671 64.7922 51.2507 64.9814 51.3024C65.0786 51.3322 65.1608 51.3981 65.2109 51.4866C65.2611 51.575 65.2755 51.6793 65.2512 51.778Z" fill="#400705"/>
<path d="M66.721 52.9222C66.6662 53.1948 66.6124 53.4674 66.5577 53.74C66.5307 53.8369 66.4672 53.9197 66.3804 53.9708C66.2898 54.0223 66.1825 54.0363 66.0817 54.0096C65.9847 53.9826 65.9019 53.9191 65.8507 53.8325C65.8014 53.7412 65.7876 53.6349 65.8118 53.534C65.8666 53.2614 65.9204 52.9888 65.9751 52.7162C66.0021 52.6192 66.0656 52.5365 66.1524 52.4854C66.243 52.4339 66.3503 52.4199 66.4511 52.4466C66.5483 52.4732 66.6312 52.5368 66.6821 52.6237C66.7314 52.715 66.7452 52.8213 66.721 52.9222Z" fill="#400705"/>
<path d="M59.5345 29.1981C58.7791 28.4934 57.9175 27.9115 56.9814 27.4739C56.7932 27.3853 56.7444 27.1147 56.8429 26.9456C56.8968 26.8595 56.9815 26.7972 57.0798 26.7715C57.1781 26.7458 57.2825 26.7586 57.3717 26.8073C58.365 27.2782 59.2788 27.9009 60.0802 28.6529C60.1526 28.7252 60.1932 28.8232 60.1932 28.9255C60.1932 29.0277 60.1526 29.1258 60.0802 29.1981C60.0078 29.2704 59.9097 29.311 59.8074 29.311C59.705 29.311 59.6069 29.2704 59.5345 29.1981Z" fill="#400705"/>
<path d="M16.6038 10.6168L14.4749 11.762C14.3866 11.8105 14.2828 11.8226 14.1857 11.7958C14.0886 11.7689 14.0059 11.7052 13.9551 11.6183C13.9043 11.5313 13.8895 11.428 13.9139 11.3303C13.9383 11.2327 13.9999 11.1484 14.0855 11.0954L16.2135 9.95422C16.2573 9.92861 16.3057 9.91188 16.356 9.90497C16.4063 9.89806 16.4575 9.90111 16.5066 9.91395C16.5557 9.9268 16.6017 9.94918 16.6422 9.97981C16.6826 10.0105 16.7166 10.0487 16.7423 10.0925C16.7679 10.1363 16.7846 10.1847 16.7916 10.2349C16.7985 10.2851 16.7954 10.3363 16.7826 10.3853C16.7697 10.4344 16.7473 10.4804 16.7167 10.5208C16.686 10.5612 16.6477 10.5952 16.6038 10.6208V10.6168Z" fill="#400705"/>
<path d="M14.0626 9.57517L12.7522 10.8835C12.6792 10.9526 12.582 10.9906 12.4814 10.9892C12.3808 10.9879 12.2847 10.9475 12.2135 10.8765C12.1423 10.8055 12.1017 10.7095 12.1002 10.609C12.0987 10.5085 12.1365 10.4114 12.2055 10.3383L13.5159 9.02896C13.5884 8.95652 13.6868 8.91583 13.7893 8.91583C13.8918 8.91583 13.9901 8.95652 14.0626 9.02896C14.1351 9.10139 14.1758 9.19963 14.1758 9.30207C14.1758 9.4045 14.1351 9.50274 14.0626 9.57517Z" fill="#400705"/>
<path d="M18.5336 37.8938C20.0741 42.4465 21.4383 47.056 22.9787 51.6088C23.1391 52.0804 22.3932 52.2824 22.2339 51.8138C20.6934 47.264 19.3302 42.6515 17.7888 38.0987C17.6295 37.6271 18.3753 37.4251 18.5336 37.8938Z" fill="#400705"/>
<path d="M61.4095 56.085C61.8526 56.7675 61.8417 57.6341 61.525 58.3654C61.2084 59.0967 60.593 59.6309 59.9139 59.9991C59.2676 60.3513 58.5069 60.6498 57.764 60.6895C57.0212 60.7293 56.3898 60.3831 55.9159 59.8349C55.5922 59.4608 56.1359 58.9126 56.4625 59.2897C56.8131 59.6946 57.2153 59.9473 57.764 59.9175C58.3426 59.8866 58.95 59.6349 59.4568 59.3683C59.9965 59.0837 60.4984 58.6937 60.7802 58.1405C61.0481 57.6142 61.068 56.9735 60.7424 56.472C60.4715 56.0532 61.1407 55.6661 61.4095 56.082V56.085Z" fill="#400705"/>
<path d="M35.3621 60.0826C33.4702 56.7357 30.3345 54.0484 26.6043 52.9948C22.92 51.9551 18.9986 52.7629 15.8938 54.9597C14.1711 56.1694 12.7869 57.7994 11.8729 59.6946C11.6588 60.1423 10.9927 59.7513 11.2058 59.3046C12.8986 55.7418 16.337 53.1112 20.1428 52.1541C24.103 51.1591 28.2603 52.17 31.5145 54.5807C33.361 55.9505 34.8991 57.6924 36.0293 59.6936C36.2733 60.1264 35.6061 60.5154 35.3621 60.0826Z" fill="#400705"/>
<path d="M41.6196 61.3551C40.9444 60.1742 39.6001 59.3016 38.2081 59.3742C37.8921 59.3775 37.5856 59.4822 37.3338 59.6727C37.047 59.9075 36.8558 60.1871 36.4744 60.2826C36.1319 60.3672 35.7913 60.2737 35.4498 60.2398C35.1268 60.2046 34.8012 60.277 34.5237 60.4458C33.9551 60.7851 33.6076 61.4089 33.4931 62.0466C33.4282 62.4627 33.4235 62.8859 33.4791 63.3032C33.5309 63.7659 33.6962 64.2166 33.745 64.6752C33.7789 64.9866 33.524 65.1727 33.3746 65.4214C33.2308 65.6664 33.1269 65.9328 33.0669 66.2104C32.9521 66.7461 32.9796 67.3024 33.1466 67.8242C33.3224 68.4214 33.7005 68.9391 34.216 69.2887C34.5615 69.5086 34.9917 69.6867 35.4109 69.5942C35.7266 69.5285 36.0243 69.2738 36.0413 68.9365L36.7612 69.1355C36.4495 69.7195 37.3955 70.2299 37.8227 70.3443C38.4534 70.5008 39.1182 70.4459 39.7147 70.1881C40.347 69.9265 40.8867 69.4738 41.3527 68.9813C41.5978 68.7195 41.8288 68.4448 42.0448 68.1585C42.1115 68.0719 42.6422 67.3526 42.3764 67.3725L42.7099 66.7924C43.0385 67.3615 43.8152 67.261 44.2703 66.9128C44.8528 66.4651 45.1994 65.6791 45.3597 64.9837C45.526 64.2623 45.4682 63.4584 45.0181 62.8465C44.829 62.5749 44.5696 62.3597 44.2676 62.2239C43.9656 62.0881 43.6323 62.0368 43.3034 62.0755C43.0943 62.1023 42.9191 61.8765 42.9171 61.6894C42.9171 61.4576 43.0973 61.3303 43.3034 61.3034C44.2474 61.178 45.1496 61.7014 45.6853 62.4565C46.2828 63.3042 46.3276 64.4285 46.0498 65.4005C45.7849 66.3278 45.2292 67.3496 44.3211 67.7804C43.5334 68.1545 42.4978 67.9704 42.0428 67.1834C41.8874 66.9158 42.0896 66.6253 42.3764 66.6034C42.8523 66.5666 43.2277 67.0014 43.2297 67.459C43.2297 67.9923 42.7996 68.446 42.4889 68.84C41.8426 69.6588 41.0709 70.4319 40.099 70.8587C39.2108 71.2497 38.1623 71.3452 37.2531 70.9582C36.4157 70.607 35.5842 69.6857 36.0881 68.7435C36.2653 68.4102 36.8269 68.5564 36.808 68.9425C36.7582 69.9324 35.8073 70.5025 34.8802 70.3672C34.0139 70.2409 33.2611 69.6499 32.802 68.9226C31.9526 67.5744 32.0323 65.7139 33.1008 64.5111C33.0679 64.6364 33.034 64.7618 33.0012 64.8871C32.7453 63.8007 32.5033 62.6277 32.8249 61.5273C33.0798 60.6607 33.7211 59.8797 34.5874 59.5762C35.0594 59.4111 35.4906 59.5006 35.9716 59.5434C36.2374 59.5673 36.3928 59.5245 36.583 59.3364C36.7455 59.1597 36.9326 59.0072 37.1386 58.8837C37.978 58.4291 39.0654 58.5783 39.9168 58.9206C40.916 59.3177 41.7515 60.0407 42.2877 60.9721C42.5347 61.4039 41.8675 61.7929 41.6206 61.3611L41.6196 61.3551Z" fill="#400705"/>
<path d="M50.689 64.926C50.7916 65.7955 50.7916 66.6741 50.689 67.5436C50.6641 67.7506 50.5287 67.9297 50.3027 67.9297C50.1125 67.9297 49.8914 67.7516 49.9163 67.5436C50.0189 66.6741 50.0189 65.7955 49.9163 64.926C49.8914 64.718 50.1155 64.5399 50.3027 64.5399C50.5317 64.5399 50.6641 64.718 50.689 64.926Z" fill="#400705"/>
<path d="M49.529 64.4962C49.6475 65.269 49.6475 66.0554 49.529 66.8283C49.4981 67.0272 49.2362 67.1566 49.054 67.0979C48.9567 67.068 48.8746 67.0021 48.8244 66.9137C48.7742 66.8253 48.7598 66.721 48.7841 66.6223C48.7841 66.6223 48.8021 66.4989 48.7931 66.5626C48.8001 66.5149 48.805 66.4631 48.81 66.4203C48.819 66.3388 48.8269 66.2562 48.8329 66.1746C48.8459 66.0045 48.8518 65.8333 48.8518 65.6622C48.8518 65.4911 48.8459 65.3339 48.8339 65.1697C48.8289 65.0881 48.821 65.0056 48.813 64.924C48.807 64.8762 48.8021 64.8245 48.7961 64.7817C48.7961 64.7538 48.7961 64.7548 48.7961 64.7817L48.7841 64.7001C48.7533 64.5011 48.8339 64.2753 49.054 64.2255C49.2372 64.1838 49.4961 64.2813 49.529 64.4952V64.4962Z" fill="#400705"/>
<path d="M29.0111 56.6064C28.9309 56.7151 28.8571 56.8284 28.7901 56.9456C28.7572 57.0034 28.7253 57.063 28.6905 57.1237C28.6756 57.1536 28.6616 57.1844 28.6467 57.2153L28.6198 57.277L28.6258 57.262C28.5223 57.5182 28.4481 57.7852 28.4047 58.058C28.2806 57.8961 28.1564 57.7333 28.0323 57.5695L30.0009 57.7744C30.2001 57.7953 30.3992 57.9376 30.3873 58.1605C30.3793 58.3515 30.217 58.5694 30.0009 58.5465L28.0323 58.3415C27.9736 58.3393 27.9161 58.3241 27.864 58.297C27.8119 58.2699 27.7664 58.2317 27.7308 58.185C27.6952 58.1383 27.6704 58.0843 27.6581 58.0269C27.6459 57.9696 27.6465 57.9102 27.6599 57.853C27.7557 57.2619 27.9902 56.7017 28.344 56.2184C28.4625 56.0562 28.6845 55.9597 28.8727 56.0801C29.034 56.1796 29.1386 56.4343 29.0111 56.6084V56.6064Z" fill="#400705"/>
<path d="M17.7191 59.3026C18.086 59.3258 18.4494 59.3871 18.8035 59.4857C18.9749 59.5343 19.1434 59.5925 19.3084 59.6598C19.5025 59.7394 19.6967 59.827 19.8062 60.017C19.8646 60.1205 19.8947 60.2374 19.8935 60.3562C19.8923 60.475 19.8598 60.5913 19.7993 60.6935C19.7005 60.8505 19.5783 60.9915 19.4368 61.1114C19.1646 61.3767 18.8925 61.6391 18.6203 61.8984C18.5479 61.9707 18.4498 62.0113 18.3474 62.0113C18.2451 62.0113 18.147 61.9707 18.0746 61.8984C18.0022 61.8261 17.9616 61.728 17.9616 61.6258C17.9616 61.5235 18.0022 61.4255 18.0746 61.3532L18.7667 60.6856C18.8712 60.5861 18.9827 60.4866 19.0813 60.3782C19.1032 60.3543 19.1331 60.3015 19.1002 60.3573C19.1212 60.3214 19.1371 60.2797 19.1182 60.3413C19.1421 60.2608 19.1311 60.409 19.1241 60.3324C19.1229 60.3624 19.1305 60.3922 19.146 60.418C19.1789 60.4548 19.1849 60.4627 19.165 60.4418C19.145 60.4209 19.154 60.4279 19.1909 60.4577L19.155 60.4349C19.1301 60.4199 19.1042 60.409 19.0783 60.3961C19.0524 60.3831 19.0614 60.3881 19.0982 60.404L19.0495 60.3841L18.933 60.3393C18.7985 60.2906 18.6631 60.2478 18.5247 60.211C18.3863 60.1742 18.2479 60.1434 18.1075 60.1195L18.0019 60.1026C17.9083 60.0876 18.0487 60.1026 17.9631 60.0976C17.8774 60.0926 17.7978 60.0807 17.7151 60.0747C17.6131 60.0732 17.5158 60.032 17.4436 59.9599C17.3715 59.8879 17.3303 59.7906 17.3288 59.6887C17.3377 59.4897 17.499 59.2907 17.7151 59.3026H17.7191Z" fill="#400705"/>
<path d="M25.2352 57.5963C24.6875 56.8123 23.7525 55.8731 22.695 56.2979C21.6922 56.7008 21.6086 58.1385 21.8237 59.033C22.0537 59.9939 22.6467 60.8289 23.4786 61.3631C24.2583 61.8486 25.7032 62.2078 26.218 61.1731C26.7846 60.0358 25.973 58.7007 25.3845 57.7555C25.1217 57.3326 25.7898 56.9446 26.0517 57.3665C26.7697 58.5186 27.5254 59.9533 26.9857 61.3372C26.4191 62.7858 24.6845 62.8177 23.4607 62.2327C22.3235 61.6904 21.4672 60.6049 21.1226 59.4021C20.7701 58.1723 20.9235 56.4859 22.1025 55.7388C22.7089 55.3557 23.4966 55.3537 24.1428 55.6194C24.9016 55.9278 25.4443 56.5506 25.9023 57.2112C26.1871 57.6192 25.518 58.0072 25.2352 57.6003V57.5963Z" fill="#400705"/>
<path d="M25.0509 59.1793L23.5692 59.6479C23.4712 59.6728 23.3673 59.6583 23.2799 59.6075C23.1924 59.5567 23.1284 59.4737 23.1015 59.3762C23.0747 59.2788 23.0871 59.1747 23.1362 59.0864C23.1853 58.998 23.2671 58.9324 23.3641 58.9037L24.8448 58.4351C24.9437 58.4087 25.049 58.4222 25.138 58.4726C25.227 58.523 25.2927 58.6064 25.3208 58.7047C25.3448 58.8033 25.3303 58.9073 25.2801 58.9955C25.23 59.0837 25.148 59.1494 25.0509 59.1793Z" fill="#400705"/>
<path d="M11.5752 60.0558C10.7646 59.2598 9.5976 58.5823 8.43254 58.9375C7.95628 59.0742 7.5487 59.3845 7.2904 59.807C7.01855 60.2796 7.19082 60.9323 6.67401 61.2606C6.26475 61.5233 5.66928 61.5203 5.20426 61.6437C4.73342 61.7589 4.28025 61.9369 3.85698 62.173C2.90602 62.7272 2.51667 63.6713 2.94187 64.72C3.06443 65.0086 3.21731 65.2834 3.39793 65.5398C3.57717 65.8055 3.82312 66.0482 3.95058 66.3447C4.20849 66.9417 3.74645 67.2809 3.49651 67.7665C3.0992 68.5296 3.28043 69.5504 3.81615 70.1981C4.14974 70.602 4.558 70.7413 5.03199 70.9234C5.61949 71.1492 5.94411 71.594 6.41711 71.974C7.19978 72.6008 8.29911 72.7968 9.26501 72.571C9.82481 72.4429 10.3404 72.1682 10.7587 71.775C10.9807 71.5691 11.2157 71.3582 11.5155 71.2776C11.8729 71.1781 12.2215 71.2905 12.5809 71.2855C13.6763 71.2706 14.5804 70.0787 14.3355 69.029C14.3139 68.947 14.3194 68.8602 14.3514 68.7816C14.3834 68.703 14.44 68.637 14.5127 68.5933C15.7534 67.9694 16.2055 66.1328 15.2974 65.0414C15.1699 64.8891 15.1291 64.6434 15.2974 64.4961C15.5529 64.2809 15.7411 63.9968 15.8396 63.6777C15.9381 63.3586 15.9428 63.018 15.853 62.6963C15.6638 62.0665 15.1032 61.6367 14.4709 61.5203C14.0407 61.4407 14.1433 60.7492 14.5705 60.7622C14.5954 60.7622 14.6233 60.6886 14.5964 60.6239C14.5416 60.4935 14.2976 60.4647 14.1871 60.4557C13.7261 60.4199 13.2909 60.5552 12.8259 60.4786C12.336 60.397 12.5441 59.6528 13.031 59.7344C13.4582 59.8061 13.8894 59.6459 14.3195 59.6966C14.6621 59.7364 15.0076 59.8727 15.2157 60.1632C15.5842 60.6866 15.2725 61.5561 14.5745 61.5332C14.609 61.2805 14.6422 61.0278 14.674 60.7751C15.1297 60.8562 15.553 61.0646 15.8949 61.3762C16.2368 61.6879 16.4833 62.0899 16.6059 62.5358C16.7284 62.9817 16.722 63.4532 16.5874 63.8956C16.4527 64.338 16.1953 64.7332 15.8451 65.0354V64.4902C17.0559 65.9398 16.6228 68.3893 14.9041 69.2539C14.9631 69.1086 15.0222 68.9634 15.0813 68.8181C15.3472 69.9553 14.7537 71.1482 13.75 71.7213C13.5121 71.8598 13.2526 71.957 12.9822 72.0088C12.6237 72.0735 12.3111 72.0039 11.9546 71.9999C11.5981 71.9959 11.4398 72.1989 11.1998 72.4158C10.9768 72.6161 10.7312 72.7897 10.4679 72.9331C9.95201 73.2072 9.38516 73.3721 8.80267 73.4176C8.22018 73.4632 7.63455 73.3883 7.08228 73.1978C6.5253 73.0021 6.01907 72.6846 5.60057 72.2685C5.36159 72.0317 5.1475 71.7999 4.83084 71.6716C4.53211 71.5462 4.21546 71.4726 3.93465 71.3044C3.03846 70.7711 2.51966 69.7125 2.52165 68.6868C2.51436 68.1799 2.64515 67.6805 2.90004 67.2421C2.97572 67.1188 3.07132 67.0133 3.15397 66.8949C3.26748 66.7337 3.2635 66.6671 3.145 66.4969C2.92494 66.1815 2.68197 65.891 2.49078 65.5547C1.86146 64.4484 1.7559 63.1231 2.65907 62.1372C3.40689 61.3203 4.57493 60.9602 5.62945 60.7552C5.7828 60.7254 5.94312 60.7094 6.09448 60.6696C6.2777 60.6209 6.29861 60.5522 6.32848 60.3712C6.38325 60.0309 6.443 59.7265 6.61925 59.422C6.96628 58.8554 7.50502 58.4319 8.1378 58.2281C9.58863 57.7306 11.0932 58.5186 12.1209 59.5215C12.4774 59.8687 11.9317 60.4169 11.5752 60.0677V60.0558Z" fill="#400705"/>
<path d="M6.77759 64.7429C6.71286 64.7777 6.64913 64.8146 6.58839 64.8553C6.55377 64.8723 6.52215 64.8948 6.49479 64.922C6.50674 64.9031 6.56549 64.8653 6.5157 64.9061L6.47487 64.9389C6.41911 64.9867 6.36534 65.0384 6.31455 65.0892C6.29065 65.114 6.26676 65.1399 6.24385 65.1658C6.2158 65.1922 6.19106 65.2219 6.17017 65.2543C6.18012 65.2324 6.22394 65.1827 6.1861 65.2344L6.15623 65.2762C6.13531 65.3051 6.11639 65.3339 6.09747 65.3638C6.05831 65.4254 6.02246 65.4891 5.98993 65.5548C5.96887 65.5854 5.95243 65.6189 5.94114 65.6543C5.94114 65.6334 5.97699 65.5687 5.95209 65.6294L5.93417 65.6782C5.90757 65.7501 5.88529 65.8235 5.86745 65.898C5.83934 65.9968 5.77339 66.0805 5.68391 66.131C5.59443 66.1814 5.48863 66.1946 5.38948 66.1677C5.29243 66.1378 5.21045 66.0721 5.1603 65.9839C5.11014 65.8957 5.09559 65.7916 5.11963 65.6931C5.20817 65.3515 5.36625 65.0317 5.58401 64.7539C5.80178 64.4761 6.07453 64.2461 6.38525 64.0783C6.47372 64.0266 6.57913 64.0121 6.6783 64.038C6.77746 64.064 6.86224 64.1282 6.91401 64.2166C6.96577 64.305 6.98027 64.4103 6.95431 64.5094C6.92835 64.6085 6.86407 64.6932 6.77559 64.7449L6.77759 64.7429Z" fill="#400705"/>
<path d="M40.9673 63.549C41.1455 63.9911 41.1848 64.4769 41.0799 64.9419C41.0522 65.0403 40.9868 65.1238 40.8978 65.1742C40.8089 65.2247 40.7036 65.2381 40.6049 65.2115C40.5078 65.1817 40.4259 65.1159 40.3757 65.0277C40.3255 64.9395 40.311 64.8355 40.335 64.7369C40.346 64.6882 40.3539 64.6374 40.3609 64.5907L40.347 64.6902C40.3694 64.5148 40.3694 64.3373 40.347 64.1619C40.347 64.1967 40.3559 64.2305 40.3609 64.2614C40.3368 64.0861 40.2896 63.9148 40.2205 63.7519C40.2067 63.7021 40.2032 63.6499 40.21 63.5986C40.2169 63.5474 40.234 63.498 40.2603 63.4535C40.2859 63.4097 40.3198 63.3714 40.3601 63.3408C40.4005 63.3102 40.4465 63.2878 40.4955 63.2749C40.5445 63.2621 40.5956 63.259 40.6458 63.2659C40.696 63.2728 40.7444 63.2896 40.7881 63.3152L40.8668 63.3749C40.9139 63.4226 40.9481 63.4815 40.9664 63.546L40.9673 63.549Z" fill="#400705"/>
<path d="M37.9103 56.6004L37.1546 56.493C37.0576 56.4663 36.975 56.4027 36.9245 56.3158C36.8986 56.2722 36.8816 56.2238 36.8746 56.1735C36.8675 56.1232 36.8705 56.072 36.8834 56.0228C36.8963 55.9737 36.9187 55.9276 36.9496 55.8872C36.9804 55.8468 37.0189 55.8129 37.0629 55.7875L37.1546 55.7487C37.222 55.7298 37.2933 55.7298 37.3607 55.7487L38.1135 55.8562C38.2108 55.8826 38.2938 55.9462 38.3445 56.0333C38.396 56.1217 38.4104 56.227 38.3845 56.326C38.3585 56.425 38.2944 56.5097 38.2061 56.5616L38.1135 56.6004C38.0464 56.6193 37.9754 56.6193 37.9084 56.6004H37.9103Z" fill="#400705"/>
<path d="M37.6903 54.7857L36.8289 54.6782C36.7273 54.6744 36.6304 54.6342 36.5561 54.5648C36.4839 54.4924 36.4431 54.3945 36.4426 54.2922C36.4443 54.19 36.4853 54.0924 36.5571 54.0196C36.5923 53.983 36.6348 53.954 36.6817 53.9345C36.7286 53.915 36.7791 53.9054 36.8299 53.9062L37.6913 54.0136C37.7429 54.0111 37.7942 54.0228 37.8396 54.0475C37.8876 54.0622 37.9306 54.0897 37.9641 54.127C38.0001 54.1628 38.0287 54.2054 38.0483 54.2523C38.0678 54.2991 38.0778 54.3494 38.0778 54.4002C38.0778 54.4509 38.0678 54.5012 38.0483 54.5481C38.0287 54.5949 38.0001 54.6375 37.9641 54.6733C37.9288 54.7097 37.8863 54.7385 37.8394 54.7579C37.7925 54.7772 37.742 54.7867 37.6913 54.7857H37.6903Z" fill="#400705"/>
<path d="M37.7869 70.5702C37.8057 71.693 37.5311 72.8014 36.9902 73.7858C36.7513 74.2216 36.0841 73.8326 36.3231 73.3958C36.7961 72.5303 37.034 71.5561 37.0131 70.5702C37.0032 70.0727 37.7759 70.0727 37.7859 70.5702H37.7869Z" fill="#400705"/>
<path d="M78.9361 54.4275C79.4181 57.3307 79.8841 60.3304 79.201 63.2425C78.9112 64.4763 78.4163 65.6871 77.6715 66.7188C76.9196 67.7358 75.9601 68.5816 74.8564 69.2002C73.5988 69.9275 72.2236 70.4259 70.8614 70.9144C70.3924 71.0826 70.1902 70.3374 70.6562 70.1702C72.8928 69.3673 75.2746 68.4958 76.8111 66.5825C78.3815 64.6255 78.8345 62.0118 78.7698 59.5673C78.725 57.9077 78.4621 56.2671 78.1913 54.6324C78.1096 54.1469 78.8544 53.936 78.9361 54.4275Z" fill="#400705"/>
<path d="M70.8982 70.6677C71.1262 71.972 71.0575 73.4943 69.9512 74.4016C69.4742 74.7926 68.8708 75.0284 68.2475 74.9508C67.6768 74.8672 67.1566 74.5773 66.7857 74.136C66.3475 73.6385 66.0518 73.0416 65.7899 72.4446C65.7072 72.2536 65.7331 72.0307 65.9283 71.9173C66.0916 71.8178 66.3734 71.8636 66.4571 72.0556C66.8404 72.9421 67.5225 74.4434 68.7473 74.1718C69.3328 74.0395 69.8068 73.5748 70.0309 73.0286C70.3077 72.3511 70.2768 71.584 70.1524 70.8756C70.1283 70.777 70.1429 70.673 70.193 70.5848C70.2432 70.4966 70.3252 70.4308 70.4222 70.401C70.6094 70.3503 70.8614 70.4637 70.8982 70.6706V70.6677Z" fill="#400705"/>
<path d="M65.6336 72.2795C60.0827 73.1229 54.4792 73.5741 48.8648 73.6296C47.2596 73.6442 45.6541 73.6263 44.0483 73.5759C43.5504 73.56 43.5504 72.7889 44.0483 72.8038C49.6255 72.9776 55.208 72.7582 60.7543 72.1472C62.3157 71.9747 63.8734 71.7704 65.4275 71.5343C65.9134 71.4617 66.1245 72.2049 65.6326 72.2795H65.6336Z" fill="#400705"/>
<path d="M44.1957 73.2843C43.8969 74.6772 42.7598 75.9577 41.2223 75.6533C40.4924 75.509 40.0363 74.9986 39.7794 74.328C39.6579 74.0126 39.5733 73.6435 39.2815 73.4326C39.1566 73.3451 39.012 73.2898 38.8606 73.2714C38.7091 73.253 38.5555 73.2721 38.4132 73.3271C37.9432 73.4913 37.7411 72.7461 38.2081 72.5829C38.5155 72.4783 38.8468 72.4652 39.1616 72.545C39.4764 72.6248 39.7612 72.7942 39.9815 73.0326C40.2205 73.3003 40.344 73.6296 40.4645 73.9639C40.5641 74.2464 40.6746 74.53 40.9285 74.7121C41.3816 75.0374 42.0239 74.9867 42.4779 74.6961C43.0296 74.3409 43.3194 73.7012 43.4508 73.0844C43.5504 72.5988 44.2992 72.8048 44.1957 73.2893V73.2843Z" fill="#400705"/>
<path d="M36.0592 74.733C35.2905 75.3459 34.4739 76.0055 33.4871 76.2124C32.6178 76.3955 31.6848 76.2373 31.0355 75.6026L31.6947 75.3299C31.6748 76.2821 30.9459 77.1338 29.985 77.2382C29.04 77.3377 28.1289 76.6413 27.9287 75.7259C27.8232 75.2424 28.568 75.0354 28.6736 75.521C28.7951 76.0742 29.3069 76.5268 29.8954 76.4751C30.4679 76.4244 30.9111 75.8881 30.922 75.3299C30.9242 75.2546 30.9481 75.1816 30.9909 75.1195C31.0336 75.0574 31.0934 75.009 31.1631 74.9801C31.2327 74.9512 31.3092 74.9431 31.3834 74.9566C31.4576 74.9701 31.5263 75.0047 31.5812 75.0563C32.7871 76.2343 34.5108 74.9867 35.5125 74.1868C35.8969 73.8793 36.4475 74.4226 36.0592 74.733Z" fill="#400705"/>
<path d="M27.7943 76.3627C25.1705 76.6093 22.5243 76.2921 20.0333 75.4324C19.5663 75.2713 19.7664 74.5261 20.2384 74.6882C22.6634 75.5259 25.2401 75.8337 27.7943 75.5906C28.2922 75.5439 28.2862 76.3159 27.7943 76.3627Z" fill="#400705"/>
<path d="M19.5981 75.0225C19.1152 75.3926 18.6213 75.7558 18.0348 75.9438C17.4977 76.1227 16.9126 76.0914 16.3977 75.8562C16.1613 75.743 15.9589 75.5695 15.8109 75.3533C15.6628 75.1371 15.5743 74.8857 15.5543 74.6245C15.5269 74.3825 15.5684 74.1377 15.6741 73.9182C15.7798 73.6987 15.9454 73.5135 16.1518 73.3839C16.5819 73.1311 16.9703 73.7977 16.5421 74.0505C16.5198 74.0625 16.4982 74.0758 16.4774 74.0903C16.5003 74.0723 16.5023 74.0713 16.4774 74.0903C16.4525 74.1092 16.3868 74.1897 16.4276 74.137C16.4059 74.1666 16.3866 74.1979 16.3698 74.2305C16.3181 74.33 16.3838 74.1728 16.3499 74.2753C16.337 74.3181 16.326 74.3599 16.3171 74.4037C16.3121 74.4315 16.3121 74.4285 16.3171 74.3957C16.3139 74.4211 16.3122 74.4467 16.3121 74.4723C16.3121 74.5111 16.3121 74.5489 16.3121 74.5877C16.3121 74.6872 16.2932 74.54 16.3191 74.6395C16.329 74.6773 16.337 74.7151 16.3489 74.7529C16.3609 74.7907 16.3649 74.8016 16.3748 74.8265C16.3639 74.7996 16.3639 74.7986 16.3748 74.8265C16.398 74.8861 16.4337 74.94 16.4794 74.9847C16.5928 75.105 16.7377 75.1911 16.8976 75.2334C17.259 75.3273 17.6417 75.2946 17.982 75.1409C18.4271 74.9578 18.8174 74.6434 19.1948 74.3569C19.3611 74.2295 19.628 74.331 19.7236 74.4952C19.8401 74.6942 19.7515 74.8932 19.5852 75.0235L19.5981 75.0225Z" fill="#400705"/>
<path d="M16.1139 74.1211C14.9631 73.6558 13.9432 72.9171 13.1426 71.9691C13.0728 71.8952 13.034 71.7975 13.034 71.696C13.034 71.5944 13.0728 71.4967 13.1426 71.4229C13.28 71.2856 13.5538 71.2627 13.6882 71.4229C14.395 72.2767 15.298 72.9471 16.3201 73.3769C16.5122 73.4565 16.6497 73.6336 16.5899 73.8515C16.5391 74.0336 16.3081 74.2007 16.1139 74.1211Z" fill="#400705"/>
<path d="M15.8152 34.9269C14.7776 36.0422 12.7154 35.5438 12.2354 34.131C12.2219 34.0821 12.2181 34.0311 12.2243 33.9807C12.2305 33.9304 12.2466 33.8818 12.2716 33.8377C12.2966 33.7936 12.3301 33.7548 12.3701 33.7236C12.4101 33.6924 12.4559 33.6694 12.5048 33.6559C12.5537 33.6424 12.6048 33.6386 12.6551 33.6448C12.7055 33.651 12.7541 33.6671 12.7983 33.6921C12.8424 33.7171 12.8812 33.7505 12.9125 33.7905C12.9437 33.8304 12.9667 33.8762 12.9802 33.925C12.9912 33.9569 13.0021 33.9887 13.0151 34.0245C12.9812 33.9439 13.031 34.0514 13.04 34.0673C13.0694 34.1248 13.1027 34.1803 13.1396 34.2334C13.1555 34.2563 13.1515 34.2514 13.1286 34.2205C13.1416 34.2374 13.1565 34.2543 13.1704 34.2703C13.1844 34.2862 13.2142 34.319 13.2371 34.3419C13.2834 34.3885 13.3326 34.432 13.3845 34.4722C13.3317 34.4314 13.3915 34.4722 13.4124 34.4901L13.496 34.5429C13.5538 34.5767 13.6135 34.6056 13.6723 34.6364C13.753 34.6762 13.6255 34.6215 13.7032 34.6493L13.7978 34.6832C13.8665 34.705 13.9372 34.7239 14.0079 34.7399C14.0407 34.7468 14.0746 34.7528 14.1075 34.7578C14.1403 34.7628 14.1294 34.7578 14.0875 34.7578L14.1373 34.7637C14.21 34.7687 14.2817 34.7737 14.3544 34.7727C14.421 34.7719 14.4874 34.7675 14.5536 34.7598C14.4839 34.7677 14.5536 34.7598 14.5814 34.7538C14.6093 34.7478 14.6462 34.7399 14.681 34.7319C14.7447 34.716 14.8065 34.6951 14.8682 34.6732C14.9519 34.6444 14.8244 34.6991 14.8961 34.6603C14.925 34.6454 14.9549 34.6314 14.9827 34.6155C15.0405 34.5839 15.0957 34.548 15.148 34.5081C15.0803 34.5598 15.1709 34.4842 15.1839 34.4722C15.2128 34.4454 15.2396 34.4175 15.2665 34.3887C15.3401 34.3273 15.4339 34.2955 15.5297 34.2993C15.6255 34.3032 15.7164 34.3425 15.7848 34.4096C15.8532 34.4767 15.8942 34.5668 15.8998 34.6624C15.9054 34.758 15.8753 34.8523 15.8152 34.9269Z" fill="#400705"/>
</g>
<defs>
<filter id="filter0_d_1810_827" x="0" y="0" width="87.5448" height="86.2477" filterUnits="userSpaceOnUse" color-interpolation-filters="sRGB">
<feFlood flood-opacity="0" result="BackgroundImageFix"/>
<feColorMatrix in="SourceAlpha" type="matrix" values="0 0 0 0 0 0 0 0 0 0 0 0 0 0 0 0 0 0 127 0" result="hardAlpha"/>
<feOffset dx="3" dy="4"/>
<feGaussianBlur stdDeviation="2.5"/>
<feComposite in2="hardAlpha" operator="out"/>
<feColorMatrix type="matrix" values="0 0 0 0 0 0 0 0 0 0 0 0 0 0 0 0 0 0 0.25 0"/>
<feBlend mode="normal" in2="BackgroundImageFix" result="effect1_dropShadow_1810_827"/>
<feBlend mode="normal" in="SourceGraphic" in2="effect1_dropShadow_1810_827" result="shape"/>
</filter>
</defs>
</svg>
