<svg width="73" height="53" viewBox="0 0 73 53" fill="none" xmlns="http://www.w3.org/2000/svg">
<g clip-path="url(#clip0_56_140)">
<path d="M44.685 53H26.8564L28.515 28.7177C25.5165 27.5499 24.5549 24.9347 24.5549 21.0969L24.2739 8.40478C31.146 5.83894 38.1208 5.93763 45.8249 6.25014V14.5453L49.4501 14.4466C49.3906 14.7975 48.2183 22.3689 48.0724 22.9555C47.7719 24.0751 47.2448 25.1188 46.5249 26.0203C45.8049 26.9217 44.9078 27.6612 43.8908 28.1914L42.6644 28.7397L44.685 53Z" fill="#F2CEB3"/>
<path d="M36.5 18.3831C48.9483 18.3831 59.0397 15.575 59.0397 12.111C59.0397 8.64704 48.9483 5.83894 36.5 5.83894C24.0517 5.83894 13.9603 8.64704 13.9603 12.111C13.9603 15.575 24.0517 18.3831 36.5 18.3831Z" fill="#3D4545"/>
<path d="M16.0587 22.2137C21.5559 19.903 24.1663 13.5075 21.8893 7.92895C19.6123 2.35041 13.3101 -0.298711 7.8129 2.012C2.31572 4.32271 -0.294741 10.7182 1.98227 16.2968C4.25927 21.8753 10.5615 24.5244 16.0587 22.2137Z" fill="#3D4545"/>
<path d="M65.8519 21.9034C71.5617 19.4471 74.2282 12.7587 71.8078 6.96442C69.3873 1.17012 62.7965 -1.5359 57.0867 0.920385C51.3769 3.37667 48.7103 10.0651 51.1308 15.8594C53.5513 21.6537 60.1421 24.3597 65.8519 21.9034Z" fill="#3D4545"/>
<path d="M7.88008 9.73835C6.02158 11.9314 4.88703 12.0629 3.89295 11.4379C2.67196 10.6704 2.59633 8.74599 4.33597 6.77775C6.0756 4.80951 7.99353 4.52441 8.99842 5.68123C9.73317 6.52555 9.5765 7.73721 7.88008 9.73835Z" fill="white"/>
<path d="M57.881 7.73835C56.0225 9.93138 54.8825 10.0629 53.8884 9.43793C52.6728 8.67037 52.5972 6.74599 54.3368 4.77775C56.0765 2.80951 57.9944 2.52441 58.9939 3.68124C59.7341 4.52555 59.5774 5.73721 57.881 7.73835Z" fill="white"/>
<path d="M41.1408 9.63285C41.1278 10.4031 41.4161 11.1472 41.9427 11.7022C42.4693 12.2571 43.1912 12.5776 43.9502 12.5934H44.4904C44.866 12.6018 45.2394 12.5344 45.589 12.3951C45.9387 12.2558 46.2576 12.0474 46.5272 11.782C47.0725 11.2459 47.3871 10.5129 47.4024 9.7425L47.5051 3.86521C47.5054 3.15128 47.2312 2.46537 46.7408 1.95343C46.2505 1.44149 45.5827 1.14391 44.8794 1.12392H43.7989C43.4711 1.11811 43.1454 1.17788 42.8404 1.29984C42.5353 1.42179 42.257 1.60353 42.0212 1.83467C41.7854 2.06582 41.5968 2.34182 41.4661 2.64695C41.3354 2.95208 41.2653 3.28035 41.2597 3.613L41.1408 9.63285Z" fill="#F2CEB3"/>
<path d="M34.8846 10.3182C34.8716 10.7032 34.9344 11.0869 35.0691 11.447C35.2039 11.8071 35.408 12.1364 35.6695 12.4155C35.9311 12.6947 36.2448 12.9183 36.5924 13.0731C36.9399 13.2279 37.3144 13.3108 37.694 13.3172H38.2342C38.986 13.3306 39.7129 13.044 40.2585 12.519C40.8041 11.994 41.1248 11.2726 41.1516 10.5101L41.3893 3.09766C41.4021 2.73859 41.3441 2.38055 41.2189 2.04448C41.0936 1.70841 40.9036 1.40105 40.66 1.14037C40.1648 0.615808 39.4847 0.312148 38.7691 0.296071H37.6886C37.0334 0.282742 36.3995 0.531915 35.9242 0.989624C35.4489 1.44733 35.1705 2.07668 35.1493 2.74128L34.8846 10.3182Z" fill="#F2CEB3"/>
<path d="M28.8336 10.8664C28.8258 11.248 28.8923 11.6273 29.0294 11.9827C29.1665 12.338 29.3716 12.6623 29.6326 12.937C29.8937 13.2116 30.2058 13.4311 30.5508 13.583C30.8958 13.7348 31.267 13.8158 31.643 13.8215H32.1832C32.5595 13.8295 32.9336 13.7621 33.284 13.623C33.6345 13.4839 33.9544 13.2759 34.2255 13.011C34.4966 12.7462 34.7134 12.4295 34.8636 12.0794C35.0138 11.7292 35.0943 11.3524 35.1007 10.9706L35.2033 5.0933C35.212 4.37685 34.9405 3.68609 34.4484 3.1723C33.9563 2.65851 33.2836 2.36357 32.5776 2.35202H31.4971C31.1691 2.34548 30.8431 2.40474 30.5378 2.52643C30.2324 2.64812 29.9538 2.82985 29.7178 3.06113C29.4819 3.29242 29.2933 3.56872 29.1629 3.87418C29.0325 4.17964 28.9628 4.50823 28.9579 4.84109L28.8336 10.8664Z" fill="#F2CEB3"/>
<path d="M23.8147 10.543C23.8203 10.8476 23.885 11.148 24.0051 11.4272C24.1252 11.7064 24.2983 11.9588 24.5145 12.1701C24.7307 12.3814 24.9859 12.5474 25.2653 12.6586C25.5448 12.7698 25.8431 12.824 26.1432 12.8182H26.5808C26.8806 12.8345 27.1806 12.7907 27.4637 12.6893C27.7468 12.5879 28.0074 12.4308 28.2306 12.2272C28.4539 12.0235 28.6354 11.7772 28.7649 11.5024C28.8943 11.2275 28.9691 10.9294 28.985 10.6252L29.0606 6.11306C29.0424 5.54388 28.8067 5.00422 28.4034 4.60823C28.0001 4.21225 27.4608 3.99101 26.8996 3.99131H26.0082C25.747 3.97651 25.4855 4.01417 25.2387 4.10211C24.9919 4.19005 24.7646 4.32655 24.5699 4.5038C24.3751 4.68104 24.2168 4.89552 24.1039 5.13497C23.991 5.37443 23.9258 5.63415 23.9119 5.89923L23.8147 10.543Z" fill="#F2CEB3"/>
<path d="M35.0845 33.9919L35.1439 27.994C34.1823 18.9258 42.3888 17.3523 42.3888 17.3523L42.5617 16.3545C42.603 16.1127 42.5905 15.8647 42.525 15.6285C42.4596 15.3922 42.3429 15.1739 42.1835 14.9894L40.244 12.7141C39.9113 12.3227 39.6583 11.8683 39.4996 11.3771C39.3409 10.8859 39.2796 10.3677 39.3193 9.85239C39.3589 9.33706 39.4988 8.83482 39.7308 8.37463C39.9627 7.91445 40.2822 7.50543 40.6708 7.17121L41.1246 6.77648C41.493 6.45925 41.9699 6.30256 42.4516 6.34055C42.9332 6.37855 43.3806 6.60815 43.6962 6.97933L45.8033 9.42453L48.926 13.0595C49.2603 13.4407 49.4398 13.9364 49.4284 14.4466C49.369 14.7975 48.1966 22.3689 48.0507 22.9555C47.7502 24.0751 47.2232 25.1188 46.5032 26.0203C45.7833 26.9217 44.8862 27.6612 43.8691 28.1914L42.6427 28.7396L44.6849 52.9836H35.0683L35.0845 33.9919Z" fill="#FADAC4"/>
</g>
<defs>
<clipPath id="clip0_56_140">
<rect width="73" height="53" fill="white"/>
</clipPath>
</defs>
</svg>
