<svg width="43" height="60" viewBox="0 0 43 60" fill="none" xmlns="http://www.w3.org/2000/svg">
<g clip-path="url(#clip0_56_122)">
<path d="M20.5777 -5.34058e-05L39.5264 18.9832C39.5264 18.9832 44.3493 22.0337 42.6271 30.8471C42.6271 30.8471 38.8394 59.6573 41.9403 59.9952H15.4063C15.4063 59.9952 15.0629 46.4372 17.8203 42.711C17.8203 42.711 19.8858 36.2674 11.6185 32.8791C11.6185 32.8791 7.48237 30.1665 2.65935 29.8286C2.65935 29.8286 -3.19894 29.4908 2.65935 12.8775C2.65935 12.8775 8.16928 0.337812 20.5777 -5.34058e-05Z" fill="#F7D5BF"/>
<path d="M0.681945 19.6396C0.681945 19.6396 21.289 27.4539 17.9919 39.1489C17.9919 39.1489 17.8937 33.3569 1.66323 29.3943C1.66323 29.3943 -1.29535 26.4066 0.681945 19.6396Z" fill="#EDC9B0"/>
<path d="M21.446 33.0481C21.446 33.0481 26.6174 36.4267 32.4757 31.3539C32.4757 31.3539 37.9856 27.9752 34.5412 21.522C34.5412 21.522 10.0778 7.6261 8.35566 5.2514C8.35566 5.2514 3.54727 9.91877 2.5022 13.3505C2.5022 13.3505 22.4813 19.1424 21.446 29.3218C21.446 29.3218 20.4058 32.7102 21.446 33.0481Z" fill="#F3F2E8"/>
<path d="M36.9455 20.8463C36.9455 20.8463 42.7988 23.8968 40.7332 27.6036C40.7332 27.6036 39.6979 29.9783 37.9757 29.9783C37.9757 29.9783 35.7385 28.7909 38.1475 25.4026C38.1279 25.4219 35.0467 21.691 36.9455 20.8463Z" fill="#F2F3E5"/>
<path d="M23.5067 40.1674C23.5067 40.1674 26.2593 53.7253 25.9159 59.9951H29.0166C29.0166 59.9951 26.6076 46.2683 29.0166 43.5557C29.0166 43.5557 32.4512 58.8126 30.9155 59.9951H38.7658C38.7658 59.9951 40.061 39.8295 38.6823 37.1169C38.6823 37.1169 38.334 31.6917 30.0667 34.0664C30.052 34.0664 19.7141 35.4228 23.5067 40.1674Z" fill="#F3F2E8"/>
</g>
<defs>
<clipPath id="clip0_56_122">
<rect width="43" height="60" fill="white"/>
</clipPath>
</defs>
</svg>
