<svg width="60" height="47" viewBox="0 0 60 47" fill="none" xmlns="http://www.w3.org/2000/svg">
<g clip-path="url(#clip0_56_230)">
<path d="M30.4509 25.9844H30.2629C31.4223 28.8092 31.4223 31.8375 31.4223 34.5956C31.4223 31.8375 31.4223 28.8092 30.2629 25.9844C18.8812 26.0406 9.68262 31.2058 9.68262 37.5642C9.68262 43.9226 20.2043 41.5294 31.6765 41.5294C43.1487 41.5294 51.2227 43.9612 51.2227 37.5642C51.2227 31.1672 41.9231 25.9844 30.4509 25.9844Z" fill="#C43041"/>
<path d="M30.0122 26.2616C30.0122 26.2616 31.861 28.4021 31.0567 34.1885" stroke="black" stroke-width="2" stroke-miterlimit="10" stroke-linecap="round"/>
<path d="M54.0011 11.9407C48.2911 4.22084 42.1285 -3.80432 29.9983 1.96453C17.868 -3.80432 11.7055 4.21382 5.99549 11.9407C0.790355 18.9869 0 25.4294 0 29.8368C0 34.2441 7.53439 46.9854 30.0122 46.9854C52.49 46.9854 60.0105 34.1704 60.0105 29.8087C60.0105 25.447 59.2062 18.9869 54.0011 11.9407ZM30.0122 34.1389C16.7435 33.8441 5.19122 30.2789 5.19122 30.2789C5.19122 30.2789 13.0494 12.2811 30.0122 12.0319C46.975 12.2881 54.8332 30.2789 54.8332 30.2789C54.8332 30.2789 43.267 33.8441 30.0122 34.1389Z" fill="#EC4956"/>
<path d="M36.1331 3.65993C39.1621 3.02831 43.6222 5.18636 45.8122 8.32695L36.1331 3.65993Z" fill="#EC4956"/>
<path d="M45.8122 9.20419C45.6723 9.20426 45.5345 9.17051 45.4103 9.10579C45.2862 9.04107 45.1792 8.94726 45.0984 8.83223C43.1069 5.97237 38.995 3.95819 36.3071 4.51963C36.0809 4.56616 35.8456 4.52021 35.653 4.39189C35.4604 4.26357 35.3262 4.06338 35.28 3.83537C35.2339 3.60736 35.2795 3.3702 35.4068 3.17607C35.5341 2.98194 35.7327 2.84674 35.959 2.8002C39.3049 2.0984 44.141 4.40032 46.5259 7.82163C46.6171 7.95194 46.6712 8.10482 46.6826 8.26383C46.694 8.42284 46.6622 8.58198 46.5906 8.72414C46.519 8.86631 46.4103 8.98611 46.2762 9.07069C46.1421 9.15527 45.9877 9.20143 45.8296 9.20419H45.8122Z" fill="white"/>
</g>
<defs>
<clipPath id="clip0_56_230">
<rect width="60" height="47" fill="white"/>
</clipPath>
</defs>
</svg>
