<svg width="53" height="53" viewBox="0 0 53 53" fill="none" xmlns="http://www.w3.org/2000/svg">
<g clip-path="url(#clip0_60_274)">
<path d="M51.4351 35.2601L51.3849 35.3858C51.2929 35.6623 51.1842 35.9221 51.0754 36.2238C50.9667 36.5254 50.8747 36.7768 50.7576 37.0617C48.2914 42.7374 43.9123 47.3643 38.3859 50.1336C38.1015 50.2677 37.8338 50.4102 37.5494 50.5359C37.265 50.6616 36.9889 50.7872 36.7129 50.8962C31.0128 53.3013 24.6505 53.6246 18.7367 51.8095L17.9002 51.5162L17.0638 51.2313L16.9383 51.1895C10.8129 48.8297 5.78286 44.2718 2.82669 38.4024C2.67612 38.1259 2.54229 37.8577 2.40845 37.5645C2.27461 37.2712 2.17423 37.003 2.05712 36.7265C-0.50431 30.6719 -0.722024 23.8784 1.44648 17.6717C1.47047 17.6301 1.48744 17.5848 1.49668 17.5376C1.59706 17.2778 1.70579 17.0097 1.81453 16.7499C1.92328 16.4902 2.0153 16.1969 2.1324 15.912C3.58543 12.5419 5.71854 9.50925 8.39772 7.00462L8.98326 6.4851C9.47679 6.04099 9.99541 5.64715 10.5308 5.2198L11.1163 4.79245C11.7102 4.37348 12.3292 3.95451 12.9733 3.60257C13.1682 3.47329 13.3723 3.35846 13.584 3.25901C13.8684 3.09142 14.1695 2.93221 14.479 2.773L15.2486 2.38755H15.2988L15.7672 2.17807L16.1436 2.01885C16.7208 1.77585 17.3063 1.55799 17.8835 1.36526C18.0675 1.28984 18.2265 1.23119 18.4105 1.17253C19.1382 0.93791 19.8911 0.736802 20.6356 0.569213C20.8196 0.527316 21.0036 0.485414 21.1793 0.460276C22.1479 0.251544 23.1284 0.103224 24.1154 0.0161665C24.3245 0.0161665 24.5252 0.0161665 24.7344 0.0161665C25.7539 -0.0466079 26.7764 -0.0466079 27.7959 0.0161665H28.5153C30.4194 0.17478 32.3011 0.537156 34.1281 1.09711C34.4042 1.1809 34.6802 1.28985 34.9646 1.38202C35.249 1.47419 35.5084 1.55798 35.8011 1.65853L35.935 1.70882C38.3368 2.62942 40.5913 3.89695 42.6269 5.47118L43.1957 5.92368C43.9819 6.56993 44.7278 7.26394 45.4291 8.00178C45.5818 8.1394 45.7243 8.28782 45.8557 8.44589C46.5324 9.17741 47.1638 9.94976 47.7462 10.7586C47.8549 10.8927 47.9637 11.0435 48.0724 11.1943C48.5158 11.8312 48.9089 12.4848 49.3104 13.1551C49.4108 13.3143 49.5028 13.4819 49.5949 13.6495C49.6869 13.8171 49.896 14.211 50.0382 14.4875C50.172 14.764 50.3142 15.0405 50.4397 15.3254L50.5903 15.6857C50.6572 15.8449 50.7241 15.9958 50.791 16.1717V16.222C51.0336 16.8002 51.2511 17.3784 51.4435 17.9649C51.5188 18.1912 51.5941 18.409 51.6777 18.6269C51.8785 19.3308 52.0709 20.043 52.2298 20.7553C52.2883 20.9983 52.3302 21.2329 52.372 21.4759C52.5142 22.1295 52.6062 22.7831 52.6899 23.4367C52.6899 23.7049 52.7484 23.9646 52.7484 24.2328C53.0796 27.9541 52.6089 31.7033 51.3682 35.2266L51.4351 35.2601Z" fill="#00A659"/>
<path opacity="0.3" d="M52.975 24.2501C50.2731 26.7639 40.185 25.5238 28.7168 21.0827C17.2485 16.6416 8.94213 10.7508 8.64099 7.08062C8.83338 6.89627 9.02577 6.73706 9.22653 6.5611C8.5657 9.7788 17.399 16.0885 28.9426 20.5631C40.4862 25.0378 51.302 26.3115 52.975 23.4625C52.9915 23.7247 52.9915 23.9878 52.975 24.2501Z" fill="white"/>
<path opacity="0.3" d="M52.6236 21.4933C50.1894 23.9652 40.6032 22.8005 29.6954 18.5856C18.7876 14.3708 10.9162 8.7649 10.7656 5.29581L11.3512 4.86008C10.6653 7.88506 18.9967 13.8428 29.8962 18.0577C40.7956 22.2726 50.959 23.4876 52.4814 20.781C52.5407 21.0159 52.5882 21.2536 52.6236 21.4933Z" fill="white"/>
<path opacity="0.3" d="M51.921 18.6526C49.8465 21.0659 40.8793 20.0352 30.6658 16.0801C20.4522 12.1251 13.0995 6.86275 13.2082 3.67856C13.4049 3.54963 13.6087 3.43212 13.8189 3.32663C13.066 5.78181 19.6743 11.2201 30.8665 15.5606C42.0588 19.9012 50.6077 20.3118 51.6951 17.9907L51.921 18.6526Z" fill="white"/>
<path opacity="0.3" d="M51.0427 16.2394C48.5332 18.0326 40.62 16.9852 31.6528 13.5161C22.6856 10.047 16.0523 5.43827 15.4751 2.43843H15.5169L15.9937 2.22894C16.2698 4.67574 22.2256 9.27606 31.887 13.0049C41.5485 16.7338 48.9933 17.3455 50.8586 15.7198C50.9339 15.8791 51.0008 16.0383 51.0677 16.2059L51.0427 16.2394Z" fill="white"/>
<path opacity="0.3" d="M49.7879 13.692C47.3202 15.3009 39.5994 13.8093 32.5896 11.0944C25.5798 8.37945 18.8545 4.2819 18.11 1.4245L18.637 1.23178C19.1389 3.41044 24.4171 7.34039 32.7904 10.5749C41.1636 13.8093 47.6632 14.4545 49.5202 13.1976C49.6289 13.3568 49.6958 13.5244 49.7879 13.692Z" fill="white"/>
<path opacity="0.3" d="M48.2739 11.2368C46.0488 12.5608 39.4322 11.2368 33.4178 8.94924C27.4035 6.66165 21.6568 3.13389 20.8705 0.636817C21.0491 0.588498 21.2308 0.552116 21.4142 0.527893C22.0416 2.42165 26.567 5.70639 33.6186 8.42971C40.6702 11.153 46.2161 11.7815 47.9477 10.7927L48.2739 11.2368Z" fill="white"/>
<path opacity="0.3" d="M46.1408 8.52189C43.8572 9.27604 39.3234 8.65597 34.3714 6.73708C29.4194 4.81819 25.6301 2.22055 24.4423 0.11731C24.6514 0.11731 24.8521 0.11731 25.0529 0.11731C26.2156 1.90213 29.6034 4.30704 34.5722 6.25107C39.5409 8.1951 43.6397 8.65597 45.7142 8.11131C45.8657 8.23818 46.0082 8.37536 46.1408 8.52189Z" fill="white"/>
<path opacity="0.3" d="M43.3971 5.9578C41.6739 6.39353 38.2359 5.64776 35.1493 4.45788C32.0627 3.268 29.0178 1.49155 28.0308 0.0251465H28.7418C29.7205 1.12285 32.0877 2.63954 35.35 3.90483C38.6124 5.17013 41.3728 5.631 42.8283 5.48017L43.3971 5.9578Z" fill="white"/>
<path opacity="0.9" d="M13.3921 13.4825C10.9998 16.8343 9.377 17.2114 7.85459 16.4572C5.98922 15.5271 5.62116 12.787 7.85459 9.75367C10.088 6.72031 12.8735 6.04157 14.4545 7.54987C15.6507 8.6392 15.5838 10.3905 13.3921 13.4825Z" fill="white"/>
<path opacity="0.7" d="M17.951 5.93265C16.6545 6.72869 16.0522 6.61139 15.6423 6.13376C15.2324 5.65613 15.4165 4.5668 16.621 3.86292C17.8256 3.15905 18.8461 3.31826 19.1723 4.06403C19.4149 4.6087 19.1389 5.19526 17.951 5.93265Z" fill="white"/>
</g>
<defs>
<clipPath id="clip0_60_274">
<rect width="53" height="53" fill="white"/>
</clipPath>
</defs>
</svg>
