<svg width="63" height="62" viewBox="0 0 63 62" fill="none" xmlns="http://www.w3.org/2000/svg">
<g filter="url(#filter0_d_56_182)">
<path d="M45.9319 45.131H16.2946V49.2219H45.9319V45.131Z" fill="#4B5454"/>
<path d="M54.5565 49.2219H54.2893L9.90593 45.6347C9.02404 45.5639 8.20626 45.1442 7.63232 44.4681C7.05838 43.7919 6.77525 42.9145 6.84516 42.0287C6.89958 41.1768 7.27295 40.3772 7.89028 39.7904C8.5076 39.2036 9.32315 38.8731 10.1731 38.8653H10.4403L54.8143 42.4477C55.677 42.5262 56.4767 42.9345 57.0483 43.588C57.62 44.2416 57.9199 45.0907 57.8862 45.96C57.8525 46.8293 57.4878 47.6524 56.8673 48.2594C56.2468 48.8664 55.4179 49.2109 54.5518 49.2219H54.5565Z" fill="#B3B3B3"/>
<path d="M16.2946 51.8534H9.57776L16.2946 2.11368L23.0161 3.21524L16.2946 51.8534Z" fill="#3D4545"/>
<path d="M28.097 6.94729L15.5587 2.31981C15.2653 2.20971 15.0273 1.98753 14.8964 1.70178C14.7656 1.41603 14.7526 1.08992 14.8603 0.794582C14.9131 0.648067 14.9943 0.513482 15.0991 0.398591C15.2039 0.2837 15.3303 0.190804 15.471 0.125173C15.6117 0.0595423 15.764 0.022459 15.919 0.0161623C16.074 0.00986551 16.2287 0.0344492 16.3743 0.0884531L28.9126 4.71593C29.206 4.82603 29.444 5.04821 29.5749 5.33396C29.7057 5.61971 29.7187 5.94583 29.611 6.24116C29.5033 6.53629 29.2834 6.77645 28.9995 6.90884C28.7156 7.04124 28.3911 7.05505 28.097 6.94729Z" fill="#6B7878"/>
<path d="M54.594 48.205H8.38259C7.45435 48.2063 6.56449 48.5772 5.90812 49.2364C5.25176 49.8956 4.88247 50.7893 4.88123 51.7216V54H58.0954V51.7216C58.0954 50.7889 57.7265 49.8945 57.0699 49.235C56.4132 48.5755 55.5226 48.205 54.594 48.205Z" fill="#6B7878"/>
<path d="M59 52.3994H4V54H59V52.3994Z" fill="#3D4545"/>
</g>
<defs>
<filter id="filter0_d_56_182" x="0" y="0" width="63" height="62" filterUnits="userSpaceOnUse" color-interpolation-filters="sRGB">
<feFlood flood-opacity="0" result="BackgroundImageFix"/>
<feColorMatrix in="SourceAlpha" type="matrix" values="0 0 0 0 0 0 0 0 0 0 0 0 0 0 0 0 0 0 127 0" result="hardAlpha"/>
<feOffset dy="4"/>
<feGaussianBlur stdDeviation="2"/>
<feComposite in2="hardAlpha" operator="out"/>
<feColorMatrix type="matrix" values="0 0 0 0 0 0 0 0 0 0 0 0 0 0 0 0 0 0 0.25 0"/>
<feBlend mode="normal" in2="BackgroundImageFix" result="effect1_dropShadow_56_182"/>
<feBlend mode="normal" in="SourceGraphic" in2="effect1_dropShadow_56_182" result="shape"/>
</filter>
</defs>
</svg>
