<svg width="29" height="29" viewBox="0 0 29 29" fill="none" xmlns="http://www.w3.org/2000/svg">
<path d="M14.5 29C22.5081 29 29 22.5081 29 14.5C29 6.49187 22.5081 0 14.5 0C6.49187 0 0 6.49187 0 14.5C0 22.5081 6.49187 29 14.5 29Z" fill="#BBBBBB"/>
<path d="M15.5829 13.8759L11.8184 17.0471C11.7323 17.1202 11.6257 17.1649 11.5132 17.1751C11.4008 17.1854 11.2879 17.1607 11.1899 17.1045L6.81014 14.5772C6.72005 14.5247 6.64678 14.4476 6.5989 14.3549C6.55102 14.2623 6.53051 14.1579 6.53976 14.0541C6.54902 13.9502 6.58765 13.8511 6.65115 13.7684C6.71466 13.6857 6.8004 13.6228 6.89835 13.587L19.9098 8.87421C20.0077 8.83887 20.1137 8.83211 20.2153 8.8547C20.317 8.8773 20.4101 8.92832 20.4838 9.00184C20.5576 9.07535 20.6089 9.16832 20.6318 9.26989C20.6547 9.37146 20.6483 9.47745 20.6133 9.5755L15.9203 22.5141C15.884 22.6144 15.8192 22.7019 15.734 22.766C15.6487 22.83 15.5466 22.8679 15.4402 22.8749C15.3338 22.8819 15.2277 22.8578 15.1347 22.8055C15.0418 22.7532 14.9661 22.6749 14.9169 22.5803L12.5727 18.0616C12.5232 17.9655 12.5032 17.857 12.5149 17.7495C12.5267 17.6421 12.5698 17.5405 12.6388 17.4573L15.605 13.8979C15.6079 13.895 15.6095 13.8911 15.6095 13.8869C15.6095 13.8828 15.6079 13.8788 15.605 13.8759C15.602 13.873 15.5981 13.8713 15.5939 13.8713C15.5898 13.8713 15.5858 13.873 15.5829 13.8759Z" fill="white"/>
<path d="M14.5 29C22.5081 29 29 22.5081 29 14.5C29 6.49187 22.5081 0 14.5 0C6.49187 0 0 6.49187 0 14.5C0 22.5081 6.49187 29 14.5 29Z" fill="#5CB405"/>
<path d="M15.5829 13.8759L11.8184 17.0471C11.7323 17.1202 11.6257 17.1649 11.5132 17.1751C11.4008 17.1854 11.2879 17.1607 11.1899 17.1045L6.81014 14.5772C6.72005 14.5247 6.64678 14.4476 6.5989 14.3549C6.55102 14.2623 6.53051 14.1579 6.53976 14.0541C6.54902 13.9502 6.58765 13.8511 6.65115 13.7684C6.71466 13.6857 6.8004 13.6228 6.89835 13.587L19.9098 8.87421C20.0077 8.83887 20.1137 8.83211 20.2153 8.8547C20.317 8.8773 20.4101 8.92832 20.4838 9.00184C20.5576 9.07535 20.6089 9.16832 20.6318 9.26989C20.6547 9.37146 20.6483 9.47745 20.6133 9.5755L15.9203 22.5141C15.884 22.6144 15.8192 22.7019 15.734 22.766C15.6487 22.83 15.5466 22.8679 15.4402 22.8749C15.3338 22.8819 15.2277 22.8578 15.1347 22.8055C15.0418 22.7532 14.9661 22.6749 14.9169 22.5803L12.5727 18.0616C12.5232 17.9655 12.5032 17.857 12.5149 17.7495C12.5267 17.6421 12.5698 17.5405 12.6388 17.4573L15.605 13.8979C15.6079 13.895 15.6095 13.8911 15.6095 13.8869C15.6095 13.8828 15.6079 13.8788 15.605 13.8759C15.602 13.873 15.5981 13.8713 15.5939 13.8713C15.5898 13.8713 15.5858 13.873 15.5829 13.8759Z" fill="white"/>
</svg>
