
<svg xmlns="http://www.w3.org/2000/svg" viewBox="0 0 160.2 157.78"><defs><style>.cls-1{fill:#79c629;}.cls-2{fill:#314052;}</style></defs><g id="Layer_2" data-name="Layer 2"><g id="Layer_3" data-name="Layer 3"><path class="cls-1" d="M136.54,62.78h-36.2A5.34,5.34,0,0,1,95,57.44V21.24a5.48,5.48,0,0,0-5.46-5.46H52.46A5.48,5.48,0,0,0,47,21.24V62.78H5.46A5.48,5.48,0,0,0,0,68.24v37.07a5.48,5.48,0,0,0,5.46,5.47h36.2A5.34,5.34,0,0,1,47,116.12v36.19a5.48,5.48,0,0,0,5.46,5.47H89.54A5.48,5.48,0,0,0,95,152.31V116.12a5.34,5.34,0,0,1,5.34-5.34h36.2a5.48,5.48,0,0,0,5.46-5.47V68.24A5.48,5.48,0,0,0,136.54,62.78Z"/></g><g id="Layer_2-2" data-name="Layer 2"><path class="cls-2" d="M110,149.28H62a2.49,2.49,0,0,1-2.5-2.5v-46.5H14.32a2.5,2.5,0,0,1-2.5-2.5v-47a2.5,2.5,0,0,1,2.5-2.5H59.23V2.5A2.5,2.5,0,0,1,61.73,0H110a2.5,2.5,0,0,1,2.5,2.5V34.78a2.5,2.5,0,0,1-5,0V5H64.23V50.78a2.5,2.5,0,0,1-2.5,2.5H16.82v42H62a2.5,2.5,0,0,1,2.5,2.5v46.5h43V97.78a2.5,2.5,0,0,1,2.5-2.5h45.2v-43h-44c-10.24,0-18.06,2.25-26.15,7.51A43.8,43.8,0,0,0,66.41,85.46a2.5,2.5,0,1,1-4.82-1.36A48.7,48.7,0,0,1,82.27,55.6c9-5.83,17.6-8.32,28.88-8.32H157.7a2.5,2.5,0,0,1,2.5,2.5v48a2.5,2.5,0,0,1-2.5,2.5H112.5v46.5A2.49,2.49,0,0,1,110,149.28Z"/></g></g></svg>
