<svg width="65" height="64" viewBox="0 0 65 64" fill="none" xmlns="http://www.w3.org/2000/svg">
<path d="M55.2304 25.3946H40.5875C40.0147 25.3946 39.4652 25.167 39.0602 24.7619C38.6551 24.3568 38.4275 23.8074 38.4275 23.2345V8.59163C38.4254 8.00653 38.192 7.44601 37.7783 7.03229C37.3645 6.61856 36.804 6.38519 36.2189 6.38306H21.2201C20.635 6.38519 20.0745 6.61856 19.6607 7.03229C19.247 7.44601 19.0136 8.00653 19.0115 8.59163V25.3946H2.20857C1.62348 25.3967 1.06296 25.6301 0.64923 26.0438C0.235504 26.4575 0.00213151 27.018 0 27.6031L0 42.5979C0.00106507 43.1837 0.233967 43.7453 0.647808 44.1599C1.06165 44.5745 1.62278 44.8084 2.20857 44.8106H16.8515C17.1351 44.8106 17.416 44.8664 17.6781 44.975C17.9401 45.0835 18.1783 45.2426 18.3788 45.4432C18.5794 45.6438 18.7385 45.8819 18.8471 46.144C18.9556 46.406 19.0115 46.6869 19.0115 46.9706V61.6094C19.0126 62.1952 19.2455 62.7568 19.6593 63.1714C20.0731 63.586 20.6343 63.8199 21.2201 63.8221H36.2189C36.8047 63.8199 37.3659 63.586 37.7797 63.1714C38.1935 62.7568 38.4264 62.1952 38.4275 61.6094V46.9706C38.4275 46.6869 38.4834 46.406 38.5919 46.144C38.7005 45.8819 38.8596 45.6438 39.0602 45.4432C39.2607 45.2426 39.4989 45.0835 39.7609 44.975C40.023 44.8664 40.3039 44.8106 40.5875 44.8106H55.2304C55.8162 44.8084 56.3774 44.5745 56.7912 44.1599C57.205 43.7453 57.4379 43.1837 57.439 42.5979V27.6031C57.4369 27.018 57.2035 26.4575 56.7898 26.0438C56.376 25.6301 55.8155 25.3967 55.2304 25.3946Z" fill="#7AC819"/>
<path d="M44.4947 60.3838H25.0787C24.9458 60.3843 24.814 60.3585 24.6911 60.3079C24.5682 60.2572 24.4565 60.1828 24.3625 60.0888C24.2685 59.9948 24.194 59.8831 24.1434 59.7601C24.0927 59.6372 24.0669 59.5055 24.0675 59.3725V40.5633H5.79217C5.52397 40.5633 5.26676 40.4567 5.07711 40.2671C4.88746 40.0774 4.78092 39.8202 4.78092 39.552V20.5405C4.78092 20.2723 4.88746 20.0151 5.07711 19.8255C5.26676 19.6358 5.52397 19.5293 5.79217 19.5293H23.9583V1.01125C23.9583 0.74305 24.0648 0.485834 24.2545 0.296188C24.4441 0.106542 24.7013 0 24.9695 0L44.4947 0C44.7629 0 45.0201 0.106542 45.2098 0.296188C45.3994 0.485834 45.506 0.74305 45.506 1.01125V14.0685C45.506 14.3367 45.3994 14.5939 45.2098 14.7836C45.0201 14.9732 44.7629 15.0798 44.4947 15.0798C44.2265 15.0798 43.9693 14.9732 43.7797 14.7836C43.59 14.5939 43.4835 14.3367 43.4835 14.0685V2.0225H25.9808V20.5405C25.9808 20.8087 25.8742 21.0659 25.6846 21.2556C25.4949 21.4452 25.2377 21.5518 24.9695 21.5518H6.80342V38.5408H25.0787C25.3469 38.5408 25.6041 38.6473 25.7938 38.837C25.9834 39.0266 26.09 39.2838 26.09 39.552V58.3613H43.4835V39.552C43.4835 39.2838 43.59 39.0266 43.7797 38.837C43.9693 38.6473 44.2265 38.5408 44.4947 38.5408H62.7781V21.1473H44.9801C40.8381 21.1473 37.6749 22.0574 34.4025 24.1851C30.68 26.5825 27.9901 30.2868 26.8626 34.5686C26.8265 34.6966 26.7655 34.8162 26.6831 34.9207C26.6007 35.0251 26.4986 35.1123 26.3826 35.1773C26.2665 35.2423 26.1388 35.2838 26.0067 35.2994C25.8746 35.315 25.7407 35.3045 25.6127 35.2684C25.4847 35.2322 25.365 35.1713 25.2606 35.0889C25.1561 35.0065 25.0689 34.9044 25.0039 34.7883C24.9389 34.6723 24.8975 34.5445 24.8818 34.4124C24.8662 34.2803 24.8768 34.1465 24.9129 34.0185C26.1658 29.2669 29.1493 25.1551 33.2779 22.4902C36.9184 20.132 40.3971 19.1248 44.9599 19.1248H63.7894C64.0576 19.1248 64.3148 19.2313 64.5044 19.4209C64.6941 19.6106 64.8006 19.8678 64.8006 20.136V39.552C64.8006 39.8202 64.6941 40.0774 64.5044 40.2671C64.3148 40.4567 64.0576 40.5633 63.7894 40.5633H45.506V59.3725C45.5065 59.5055 45.4807 59.6372 45.4301 59.7601C45.3795 59.8831 45.305 59.9948 45.211 60.0888C45.117 60.1828 45.0053 60.2572 44.8824 60.3079C44.7594 60.3585 44.6277 60.3843 44.4947 60.3838Z" fill="#314052"/>
</svg>
