<svg width="47" height="48" viewBox="0 0 47 48" fill="none" xmlns="http://www.w3.org/2000/svg">
<path d="M45.5 24C45.5 36.4563 35.6207 46.5 23.5 46.5C11.3793 46.5 1.5 36.4563 1.5 24C1.5 11.5437 11.3793 1.5 23.5 1.5C35.6207 1.5 45.5 11.5437 45.5 24Z" fill="white" stroke="#A9A9A9" stroke-width="3"/>
<g clip-path="url(#clip0_1348_827)">
<path d="M22.5591 33C18.4252 33 15 29.4507 15 25.014C15 24.2535 15.4724 23.7464 16.1811 23.7464C16.8898 23.7464 17.3622 24.2535 17.3622 25.014C17.3622 28.0563 19.7244 30.5915 22.5591 30.5915C25.3937 30.5915 27.7559 28.0563 27.7559 25.014C27.7559 21.9718 25.3937 19.4366 22.5591 19.4366C21.8504 19.4366 21.378 18.9295 21.378 18.169C21.378 17.4084 21.8504 16.9014 22.5591 16.9014C26.6929 16.9014 30.1181 20.5774 30.1181 25.014C30.1181 29.4507 26.6929 33 22.5591 33Z" fill="#A9A9A9"/>
<path d="M22.2047 19.3097C21.8503 19.3097 21.496 19.1829 21.2598 18.8026C20.7873 18.2956 20.9054 17.535 21.496 17.028L23.622 15.2533C24.0944 14.8731 24.9212 14.9998 25.2755 15.5069C25.6299 16.0139 25.6299 16.9012 25.0393 17.2815L22.9133 19.0562C22.6771 19.3097 22.4409 19.3097 22.2047 19.3097Z" fill="#A9A9A9"/>
<path d="M23.8582 21.845C23.5038 21.845 23.1495 21.7182 22.9133 21.338L21.2597 19.0563C20.9054 18.4225 21.0235 17.6619 21.496 17.2816C21.9684 16.7746 22.7952 16.9013 23.1495 17.5351L24.803 19.8168C25.1574 20.3239 25.1574 21.2112 24.5668 21.5915C24.4487 21.7182 24.0944 21.845 23.8582 21.845Z" fill="#A9A9A9"/>
</g>
<defs>
<clipPath id="clip0_1348_827">
<rect width="15" height="18" fill="white" transform="translate(15 15)"/>
</clipPath>
</defs>
</svg>
