<svg width="72" height="72" viewBox="0 0 72 72" fill="none" xmlns="http://www.w3.org/2000/svg">
<circle cx="36" cy="36" r="36" fill="#72B91A"/>
<path d="M43.6034 47.1721H42.0517C40.7217 47.1721 39.7241 46.0751 39.7241 44.8684V25.8897C39.7241 24.683 40.8325 23.5859 42.0517 23.5859H43.6034C44.9335 23.5859 45.931 24.683 45.931 25.8897V44.7587C45.931 46.0751 44.9335 47.1721 43.6034 47.1721Z" fill="white"/>
<path d="M29.9482 47.1726H28.3964C27.0664 47.1726 26.0688 46.0756 26.0688 44.8689V25.8902C26.0688 24.6835 27.1772 23.5864 28.3964 23.5864H29.9482C31.2782 23.5864 32.2757 24.6835 32.2757 25.8902V44.7592C32.2757 46.0756 31.2782 47.1726 29.9482 47.1726Z" fill="white"/>
</svg>
