<svg width="114" height="64" viewBox="0 0 114 64" fill="none" xmlns="http://www.w3.org/2000/svg">
<rect y="1.52588e-05" width="113.623" height="64" fill="#C4C4C4"/>
<g clip-path="url(#clip0_910_580)">
<path d="M64.4336 31.405L64.3023 31.3277H64.2405L53.6155 25.2155C53.4795 25.1064 53.3107 25.0465 53.1364 25.0455C52.9314 25.0455 52.7349 25.1269 52.59 25.2718C52.4451 25.4167 52.3636 25.6132 52.3636 25.8182V38.1818C52.3636 38.3868 52.4451 38.5833 52.59 38.7282C52.7349 38.8731 52.9314 38.9545 53.1364 38.9545C53.3116 38.9513 53.4805 38.8887 53.6155 38.7768V38.7768L64.2405 32.7032H64.3023L64.4336 32.6259C64.5211 32.5534 64.5916 32.4625 64.6399 32.3596C64.6883 32.2568 64.7133 32.1446 64.7133 32.0309C64.7133 31.9173 64.6883 31.805 64.6399 31.7022C64.5916 31.5993 64.5211 31.5084 64.4336 31.4359V31.405ZM53.9091 36.8605V27.1395L62.4091 32L53.9091 36.8605ZM57 15C53.6377 15 50.3509 15.997 47.5553 17.865C44.7597 19.733 42.5807 22.388 41.2941 25.4944C40.0074 28.6007 39.6707 32.0189 40.3267 35.3165C40.9826 38.6142 42.6017 41.6433 44.9792 44.0208C47.3567 46.3983 50.3858 48.0174 53.6835 48.6733C56.9811 49.3293 60.3993 48.9926 63.5056 47.706C66.612 46.4193 69.267 44.2403 71.135 41.4447C73.003 38.6491 74 35.3623 74 32C74 27.4913 72.2089 23.1673 69.0208 19.9792C65.8327 16.7911 61.5087 15 57 15V15ZM57 47.4545C53.9434 47.4545 50.9554 46.5482 48.4139 44.85C45.8724 43.1518 43.8916 40.7381 42.7219 37.9142C41.5522 35.0903 41.2461 31.9829 41.8424 28.985C42.4387 25.9871 43.9106 23.2333 46.072 21.072C48.2334 18.9106 50.9871 17.4387 53.985 16.8424C56.9829 16.2461 60.0903 16.5521 62.9142 17.7219C65.7382 18.8916 68.1518 20.8724 69.85 23.4139C71.5482 25.9554 72.4546 28.9434 72.4546 32C72.4546 36.0988 70.8263 40.0297 67.928 42.928C65.0297 45.8263 61.0988 47.4545 57 47.4545Z" fill="#FAFDFF"/>
</g>
<defs>
<clipPath id="clip0_910_580">
<rect width="34" height="34" fill="white" transform="translate(40 15)"/>
</clipPath>
</defs>
</svg>
