<svg width="30" height="29" viewBox="0 0 30 29" fill="none" xmlns="http://www.w3.org/2000/svg">
<path d="M16.4266 2.00861L18.5657 8.5922C18.9004 9.62226 19.8603 10.3197 20.9434 10.3197H27.8658C29.3188 10.3197 29.923 12.1791 28.7474 13.0332L23.1471 17.1021C22.2709 17.7387 21.9042 18.8671 22.2389 19.8972L24.3781 26.4807C24.8271 27.8627 23.2454 29.0119 22.0698 28.1578L16.4695 24.0889C15.5932 23.4523 14.4068 23.4523 13.5305 24.0889L7.9302 28.1578C6.75463 29.0119 5.17291 27.8627 5.62194 26.4807L7.76108 19.8972C8.09576 18.8671 7.72911 17.7387 6.8529 17.1021L1.25256 13.0332C0.0769877 12.1791 0.681151 10.3197 2.13424 10.3197H9.05664C10.1397 10.3197 11.0996 9.62226 11.4343 8.5922L13.5734 2.00861C14.0224 0.626643 15.9776 0.626643 16.4266 2.00861Z" stroke="#828282"/>
</svg>
