<svg width="25" height="25" viewBox="0 0 25 25" fill="none" xmlns="http://www.w3.org/2000/svg">
<path d="M20.4545 0C19.2045 0 18.0682 0.511364 17.2159 1.30682L1.875 16.6477L0 25L8.35227 23.125L23.6932 7.78409C24.4886 6.93182 25 5.79545 25 4.54545C25 2.04545 22.9545 0 20.4545 0ZM7.38636 22.0455L3.40909 22.9545V21.5909H2.04545L2.95455 17.6136H7.38636V22.0455ZM8.52273 21.3068V17.0455C8.52273 16.7045 8.29545 16.4773 7.95455 16.4773H3.69318L15.9659 4.26136L20.7955 9.09091L8.52273 21.3068ZM22.8409 6.93182L21.5341 8.23864L16.7045 3.40909L18.0114 2.10227C18.0114 2.10227 18.9205 1.07955 20.3977 1.07955C22.2727 1.07955 23.8068 2.61364 23.8068 4.48864C23.8636 5.51136 23.4659 6.36364 22.8409 6.93182Z" fill="#5CB405"/>
</svg>
