<svg width="25" height="25" viewBox="0 0 25 25" fill="none" xmlns="http://www.w3.org/2000/svg">
<path d="M12.5 0C10.0277 0 7.61099 0.733114 5.55538 2.10663C3.49976 3.48015 1.89761 5.43238 0.951513 7.71646C0.00541765 10.0005 -0.242126 12.5139 0.240189 14.9386C0.722504 17.3634 1.91301 19.5907 3.66117 21.3388C5.40933 23.087 7.63661 24.2775 10.0614 24.7598C12.4861 25.2421 14.9995 24.9946 17.2835 24.0485C19.5676 23.1024 21.5199 21.5002 22.8934 19.4446C24.2669 17.389 25 14.9723 25 12.5C25 9.18479 23.683 6.00538 21.3388 3.66117C18.9946 1.31697 15.8152 0 12.5 0ZM23.8636 11.9318H13.8693L20.9148 4.88637C22.6836 6.82275 23.7258 9.31281 23.8636 11.9318ZM12.5 23.8636C10.6535 23.8674 8.83395 23.4212 7.19872 22.5636C5.56349 21.706 4.16187 20.4628 3.11517 18.9417C2.06847 17.4205 1.40821 15.6672 1.19154 13.8335C0.974861 11.9998 1.2083 10.1409 1.87164 8.41765C2.53499 6.69444 3.60826 5.15884 4.99857 3.94372C6.38889 2.7286 8.05436 1.87058 9.85087 1.44391C11.6474 1.01725 13.5208 1.03479 15.309 1.49501C17.0972 1.95524 18.7463 2.8443 20.1136 4.08523L12.0966 12.0966C12.0165 12.1761 11.9618 12.2776 11.9396 12.3882C11.9174 12.4989 11.9287 12.6137 11.972 12.7179C12.0152 12.8221 12.0886 12.9111 12.1826 12.9735C12.2767 13.0359 12.3871 13.0688 12.5 13.0682H23.8636C23.7177 15.9824 22.4564 18.7289 20.3409 20.7386C18.2254 22.7483 15.4179 23.8673 12.5 23.8636Z" fill="#5CB405"/>
</svg>
