<svg width="20" height="20" viewBox="0 0 20 20" fill="none" xmlns="http://www.w3.org/2000/svg">
<path fill-rule="evenodd" clip-rule="evenodd" d="M10 0C4.48 0 0 4.48 0 10C0 15.52 4.48 20 10 20C15.52 20 20 15.52 20 10C20 4.48 15.52 0 10 0ZM10.0001 17.9999C5.58008 17.9999 2.00008 14.4199 2.00008 9.99988C2.00008 5.57988 5.58008 1.99988 10.0001 1.99988C14.4201 1.99988 18.0001 5.57988 18.0001 9.99988C18.0001 14.4199 14.4201 17.9999 10.0001 17.9999ZM5.00004 10C5.00004 7.23858 7.23862 5 10 5C12.7615 5 15 7.23858 15 10C15 12.7614 12.7615 15 10 15C7.23862 15 5.00004 12.7614 5.00004 10Z" fill="#BBBBBB"/>
</svg>
