<svg width="38" height="25" viewBox="0 0 38 25" fill="none" xmlns="http://www.w3.org/2000/svg">
<path d="M7.36963 24.2648C3.33201 24.2648 0 20.9328 0 16.856C0 12.7791 3.33201 9.48633 7.36963 9.48633C11.4072 9.48633 14.7785 12.7791 14.7785 16.856C14.7785 20.9328 11.4464 24.2648 7.36963 24.2648ZM7.36963 11.4463C4.39042 11.4463 1.96001 13.8767 1.96001 16.856C1.96001 19.8352 4.39042 22.2656 7.36963 22.2656C10.3488 22.2656 12.7793 19.8352 12.7793 16.856C12.7793 13.8767 10.388 11.4463 7.36963 11.4463Z" fill="#316200"/>
<path d="M30.4978 24.5C26.421 24.5 23.1282 21.168 23.1282 17.1304C23.1282 13.0928 26.4602 9.76074 30.4978 9.76074C34.5354 9.76074 37.8674 13.0928 37.8674 17.1304C37.8674 21.168 34.5746 24.5 30.4978 24.5ZM30.4978 11.7208C27.5186 11.7208 25.0882 14.1512 25.0882 17.1304C25.0882 20.1096 27.5186 22.54 30.4978 22.54C33.477 22.54 35.9074 20.1096 35.9074 17.1304C35.9074 14.1512 33.477 11.7208 30.4978 11.7208Z" fill="#316200"/>
<path d="M7.36961 17.8361C7.21281 17.8361 7.09521 17.7969 6.93841 17.7577C6.468 17.5225 6.2328 16.9345 6.468 16.4641L13.328 1.96001H10.3488C9.80002 1.96001 9.36881 1.52881 9.36881 0.980004C9.36881 0.431202 9.80002 0 10.3488 0H14.896C15.2488 0 15.5624 0.156801 15.7192 0.470402C15.9152 0.744803 15.9152 1.0976 15.7976 1.41121L8.27121 17.2873C8.11441 17.6401 7.76161 17.8361 7.36961 17.8361Z" fill="#316200"/>
<path d="M27.0089 4.50786H22.2265C21.6777 4.50786 21.2465 4.07666 21.2465 3.52786C21.2465 2.97905 21.6777 2.54785 22.2265 2.54785H27.0481C27.5969 2.54785 28.0281 2.97905 28.0281 3.52786C28.0281 4.07666 27.5577 4.50786 27.0089 4.50786Z" fill="#316200"/>
<path d="M30.4978 18.1104H19.0121C18.6985 18.1104 18.3849 17.9536 18.2281 17.7184L11.1329 7.83996C10.9369 7.52636 10.8977 7.17356 11.0545 6.82076C11.2113 6.46796 11.5641 6.27196 11.9169 6.27196L23.7554 6.03675V3.91995C23.7554 3.37114 24.1866 2.93994 24.7354 2.93994C25.2842 2.93994 25.7154 3.37114 25.7154 3.91995V7.25196L31.321 16.6208C31.517 16.9344 31.517 17.2872 31.321 17.6008C31.1642 17.9144 30.8506 18.1104 30.4978 18.1104ZM20.6978 16.1504H28.773L24.5786 9.13357L20.6978 16.1504ZM13.8377 8.19276L18.9337 15.3272L22.9714 7.99676L13.8377 8.19276Z" fill="#316200"/>
</svg>
