<svg width="24" height="24" viewBox="0 0 24 24" fill="none" xmlns="http://www.w3.org/2000/svg">
<circle cx="12" cy="12" r="12" fill="#C4C4C4"/>
<path d="M12.0832 12.198C12.3725 11.8993 12.6012 11.638 12.7692 11.414C12.9372 11.19 13.0632 10.9893 13.1472 10.812C13.2312 10.6347 13.2825 10.4713 13.3012 10.322C13.3198 10.1727 13.3292 10.028 13.3292 9.888V9.776C13.3292 9.50533 13.2172 9.26267 12.9932 9.048C12.7785 8.824 12.4098 8.712 11.8872 8.712C11.7005 8.712 11.5138 8.73067 11.3272 8.768C11.1498 8.80533 10.9725 8.87533 10.7952 8.978C10.6178 9.08067 10.4405 9.22533 10.2632 9.412C10.0952 9.59867 9.92718 9.83667 9.75918 10.126L8.41518 9.244C8.53651 9.02933 8.68585 8.796 8.86318 8.544C9.04985 8.292 9.27851 8.06333 9.54918 7.858C9.82918 7.64333 10.1558 7.466 10.5292 7.326C10.9118 7.186 11.3598 7.116 11.8732 7.116C12.4425 7.116 12.9325 7.186 13.3432 7.326C13.7538 7.466 14.0898 7.65733 14.3512 7.9C14.6218 8.13333 14.8178 8.40867 14.9392 8.726C15.0698 9.034 15.1352 9.36067 15.1352 9.706V9.846C15.1352 10.3967 15.0092 10.924 14.7572 11.428C14.5145 11.9227 14.1552 12.408 13.6792 12.884L10.7112 15.88H15.5132V17.364H8.37318V16.02L12.0832 12.198Z" fill="white"/>
</svg>
