<svg width="139" height="137" viewBox="0 0 139 137" fill="none" xmlns="http://www.w3.org/2000/svg">
<path d="M117.846 54.1848H86.6023C85.38 54.1848 84.2077 53.6992 83.3434 52.8349C82.479 51.9706 81.9935 50.7983 81.9935 49.5759V18.3321C81.9889 17.0837 81.491 15.8877 80.6082 15.0049C79.7254 14.1221 78.5294 13.6242 77.281 13.6196H45.2776C44.0292 13.6242 42.8332 14.1221 41.9505 15.0049C41.0677 15.8877 40.5697 17.0837 40.5652 18.3321V54.1848H4.71247C3.46404 54.1894 2.26805 54.6873 1.38527 55.5701C0.502499 56.4529 0.00454804 57.6489 0 58.8973L0 90.892C0.00227256 92.1419 0.499219 93.3401 1.38224 94.2247C2.26526 95.1094 3.46255 95.6085 4.71247 95.6131H35.9563C36.5615 95.6131 37.1609 95.7323 37.72 95.9639C38.2792 96.1955 38.7873 96.535 39.2153 96.963C39.6432 97.391 39.9827 97.8991 40.2144 98.4582C40.446 99.0174 40.5652 99.6167 40.5652 100.222V131.457C40.5675 132.707 41.0644 133.905 41.9474 134.79C42.8304 135.675 44.0277 136.174 45.2776 136.178H77.281C78.5309 136.174 79.7282 135.675 80.6112 134.79C81.4942 133.905 81.9912 132.707 81.9935 131.457V100.222C81.9935 99.6167 82.1127 99.0174 82.3443 98.4582C82.5759 97.8991 82.9154 97.391 83.3434 96.963C83.7713 96.535 84.2794 96.1955 84.8386 95.9639C85.3978 95.7323 85.9971 95.6131 86.6023 95.6131H117.846C119.096 95.6085 120.293 95.1094 121.176 94.2247C122.059 93.3401 122.556 92.1419 122.559 90.892V58.8973C122.554 57.6489 122.056 56.4529 121.173 55.5701C120.291 54.6873 119.095 54.1894 117.846 54.1848V54.1848Z" fill="#59A60B"/>
<path d="M94.9392 128.842H53.5109C53.2273 128.843 52.9462 128.788 52.6839 128.68C52.4216 128.572 52.1832 128.413 51.9827 128.212C51.7821 128.012 51.6232 127.774 51.5151 127.511C51.4071 127.249 51.3521 126.968 51.3532 126.684V86.5506H12.3589C11.7866 86.5506 11.2378 86.3232 10.8331 85.9186C10.4285 85.5139 10.2011 84.9651 10.2011 84.3928V43.8277C10.2011 43.2554 10.4285 42.7066 10.8331 42.3019C11.2378 41.8973 11.7866 41.6699 12.3589 41.6699H51.1202V2.15772C51.1202 1.58546 51.3475 1.03663 51.7522 0.631982C52.1568 0.227331 52.7056 0 53.2779 0L94.9392 0C95.5115 0 96.0603 0.227331 96.465 0.631982C96.8696 1.03663 97.0969 1.58546 97.0969 2.15772V30.0182C97.0969 30.5905 96.8696 31.1393 96.465 31.544C96.0603 31.9486 95.5115 32.176 94.9392 32.176C94.3669 32.176 93.8181 31.9486 93.4135 31.544C93.0088 31.1393 92.7815 30.5905 92.7815 30.0182V4.31544H55.4356V43.8277C55.4356 44.3999 55.2083 44.9487 54.8037 45.3534C54.399 45.758 53.8502 45.9854 53.2779 45.9854H14.5166V82.2351H53.5109C54.0832 82.2351 54.632 82.4624 55.0367 82.8671C55.4413 83.2717 55.6687 83.8206 55.6687 84.3928V124.526H92.7815V84.3928C92.7815 83.8206 93.0088 83.2717 93.4135 82.8671C93.8181 82.4624 94.3669 82.2351 94.9392 82.2351H133.951V45.1223H95.9749C87.1369 45.1223 80.3875 47.0642 73.4051 51.6041C65.4624 56.7195 59.723 64.6236 57.3172 73.7596C57.2401 74.0327 57.11 74.288 56.9342 74.5109C56.7585 74.7338 56.5406 74.9198 56.2929 75.0585C56.0453 75.1971 55.7728 75.2857 55.4909 75.319C55.209 75.3523 54.9234 75.3298 54.6502 75.2527C54.3771 75.1757 54.1218 75.0455 53.8989 74.8698C53.676 74.6941 53.49 74.4761 53.3513 74.2285C53.2127 73.9808 53.1241 73.7083 53.0908 73.4265C53.0575 73.1446 53.08 72.8589 53.1571 72.5858C55.8304 62.4472 62.1964 53.6739 71.0058 47.9877C78.7736 42.9559 86.1961 40.8068 95.9318 40.8068H136.109C136.681 40.8068 137.23 41.0342 137.634 41.4388C138.039 41.8435 138.266 42.3923 138.266 42.9646V84.3928C138.266 84.9651 138.039 85.5139 137.634 85.9186C137.23 86.3232 136.681 86.5506 136.109 86.5506H97.0969V126.684C97.0981 126.968 97.043 127.249 96.935 127.511C96.827 127.774 96.6681 128.012 96.4675 128.212C96.2669 128.413 96.0286 128.572 95.7663 128.68C95.504 128.788 95.2229 128.843 94.9392 128.842Z" fill="#314052"/>
</svg>
