<svg width="24" height="24" viewBox="0 0 24 24" fill="none" xmlns="http://www.w3.org/2000/svg">
<circle cx="12" cy="12" r="12" fill="#DA9B73"/>
<path d="M8.58318 8.572C8.91918 8.13333 9.32051 7.78333 9.78718 7.522C10.2538 7.25133 10.8512 7.116 11.5792 7.116C12.0552 7.116 12.4845 7.17667 12.8672 7.298C13.2498 7.41933 13.5765 7.592 13.8472 7.816C14.1178 8.03067 14.3278 8.29667 14.4772 8.614C14.6265 8.922 14.7012 9.26267 14.7012 9.636V9.776C14.7012 9.972 14.6778 10.1867 14.6312 10.42C14.5938 10.644 14.5192 10.8633 14.4072 11.078C14.2952 11.2833 14.1458 11.4747 13.9592 11.652C13.7725 11.8293 13.5345 11.974 13.2452 12.086C13.9172 12.2073 14.4118 12.4733 14.7292 12.884C15.0465 13.2947 15.2052 13.7893 15.2052 14.368V14.578C15.2052 14.9607 15.1305 15.3293 14.9812 15.684C14.8318 16.0387 14.6032 16.3513 14.2952 16.622C13.9965 16.8927 13.6138 17.1073 13.1472 17.266C12.6898 17.434 12.1532 17.518 11.5372 17.518C10.9492 17.518 10.3798 17.4247 9.82918 17.238C9.28785 17.0607 8.77918 16.7807 8.30318 16.398L9.18518 14.998C9.42785 15.1753 9.64718 15.3247 9.84318 15.446C10.0485 15.5673 10.2445 15.6653 10.4312 15.74C10.6178 15.8053 10.7998 15.852 10.9772 15.88C11.1545 15.908 11.3458 15.922 11.5512 15.922C12.1858 15.922 12.6525 15.796 12.9512 15.544C13.2498 15.292 13.3992 14.942 13.3992 14.494V14.312C13.3992 13.8173 13.2545 13.458 12.9652 13.234C12.6758 13.0007 12.2092 12.884 11.5652 12.884H10.2072V11.344H11.4112C11.7285 11.344 11.9852 11.3113 12.1812 11.246C12.3865 11.1713 12.5452 11.0733 12.6572 10.952C12.7692 10.8213 12.8438 10.6673 12.8812 10.49C12.9278 10.3033 12.9512 10.1027 12.9512 9.888V9.776C12.9512 9.39333 12.8252 9.118 12.5732 8.95C12.3305 8.77267 11.9992 8.684 11.5792 8.684C11.1498 8.684 10.7998 8.76333 10.5292 8.922C10.2678 9.08067 10.0252 9.28133 9.80118 9.524L8.58318 8.572Z" fill="white"/>
</svg>
