<svg width="68" height="68" viewBox="0 0 68 68" fill="none" xmlns="http://www.w3.org/2000/svg">
<g filter="url(#filter0_d_824_506)">
<path d="M33 62C49.0163 62 62 49.0163 62 33C62 16.9837 49.0163 4 33 4C16.9837 4 4 16.9837 4 33C4 49.0163 16.9837 62 33 62Z" fill="#C20000"/>
<path d="M35.9932 41.0373C36.0593 41.04 36.1254 41.0296 36.1874 41.0065C36.2495 40.9834 36.3063 40.9481 36.3545 40.9028C36.4027 40.8574 36.4414 40.8029 36.4683 40.7424C36.4952 40.6819 36.5097 40.6167 36.511 40.5505L37.2464 28.5155C37.2492 28.4488 37.2388 28.3823 37.2158 28.3196C37.1928 28.257 37.1578 28.1995 37.1125 28.1504C37.0673 28.1014 37.0129 28.0617 36.9523 28.0337C36.8918 28.0057 36.8263 27.9899 36.7596 27.9873C36.6935 27.9845 36.6274 27.995 36.5654 28.018C36.5034 28.0411 36.4465 28.0764 36.3983 28.1217C36.3501 28.1671 36.3114 28.2216 36.2845 28.2821C36.2576 28.3426 36.2431 28.4079 36.2418 28.474L35.5168 40.5194C35.5138 40.6506 35.5618 40.7778 35.6507 40.8743C35.7395 40.9709 35.8622 41.0293 35.9932 41.0373ZM33 41.0373C33.0661 41.0373 33.1316 41.0241 33.1926 40.9984C33.2537 40.9728 33.3089 40.9353 33.3552 40.888C33.4015 40.8407 33.4379 40.7847 33.4623 40.7232C33.4867 40.6617 33.4985 40.5959 33.4971 40.5298V28.4844C33.4971 28.3471 33.4426 28.2153 33.3454 28.1182C33.2483 28.0211 33.1166 27.9665 32.9793 27.9665C32.8419 27.9665 32.7102 28.0211 32.6131 28.1182C32.516 28.2153 32.4614 28.3471 32.4614 28.4844V40.5298C32.4597 40.5995 32.4727 40.6689 32.4996 40.7333C32.5265 40.7978 32.5667 40.8558 32.6175 40.9037C32.6683 40.9515 32.7286 40.9882 32.7945 41.0112C32.8604 41.0342 32.9304 41.0431 33 41.0373ZM30.0068 41.0373C30.0734 41.0346 30.1389 41.0188 30.1995 40.9908C30.26 40.9628 30.3145 40.9231 30.3597 40.8741C30.4049 40.825 30.44 40.7675 30.463 40.7049C30.4859 40.6423 30.4963 40.5757 30.4935 40.509L29.7478 28.474C29.7478 28.3367 29.6933 28.205 29.5962 28.1079C29.499 28.0107 29.3673 27.9562 29.23 27.9562C29.0926 27.9562 28.9609 28.0107 28.8638 28.1079C28.7667 28.205 28.7121 28.3367 28.7121 28.474L29.4578 40.509C29.4529 40.5815 29.4639 40.6541 29.49 40.7219C29.5161 40.7896 29.5568 40.8508 29.6091 40.9012C29.6614 40.9515 29.7241 40.9898 29.7928 41.0133C29.8615 41.0368 29.9346 41.045 30.0068 41.0373ZM41.5343 24.963H36.511V22.9537C36.511 22.679 36.4019 22.4156 36.2077 22.2213C36.0135 22.0271 35.75 21.918 35.4753 21.918H30.4935C30.2189 21.918 29.9554 22.0271 29.7612 22.2213C29.567 22.4156 29.4578 22.679 29.4578 22.9537V24.963H24.4657C24.3311 24.963 24.202 25.0164 24.1068 25.1116C24.0117 25.2068 23.9582 25.3359 23.9582 25.4705C23.9582 25.5366 23.9714 25.6021 23.997 25.6631C24.0226 25.7241 24.0602 25.7794 24.1074 25.8257C24.1547 25.872 24.2107 25.9084 24.2723 25.9328C24.3338 25.9571 24.3995 25.969 24.4657 25.9676H25.5014L26.5371 42.0419C26.5646 42.5659 26.7851 43.0612 27.1561 43.4322C27.5271 43.8032 28.0224 44.0237 28.5464 44.0512H37.5778C38.0995 44.0171 38.591 43.7945 38.9607 43.4248C39.3304 43.0551 39.553 42.5636 39.5871 42.0419L40.6228 25.9676H41.6586C41.7247 25.969 41.7905 25.9571 41.852 25.9328C41.9135 25.9084 41.9695 25.872 42.0168 25.8257C42.0641 25.7794 42.1016 25.7241 42.1272 25.6631C42.1529 25.6021 42.1661 25.5366 42.166 25.4705C42.1685 25.3919 42.1526 25.3139 42.1197 25.2426C42.0868 25.1712 42.0379 25.1085 41.9766 25.0593C41.9154 25.0101 41.8435 24.9758 41.7668 24.9591C41.69 24.9424 41.6104 24.9437 41.5343 24.963ZM30.4935 22.9537H35.5064V24.963H30.4935V22.9537ZM38.5203 42.0419C38.5203 42.3166 38.4112 42.58 38.217 42.7743C38.0227 42.9685 37.7593 43.0776 37.4846 43.0776H28.4843C28.2096 43.0776 27.9461 42.9685 27.7519 42.7743C27.5577 42.58 27.4485 42.3166 27.4485 42.0419L26.4128 25.9676H39.525L38.5203 42.0419Z" fill="white"/>
<path d="M35.9932 41.0373C36.0593 41.04 36.1254 41.0296 36.1874 41.0065C36.2495 40.9834 36.3063 40.9481 36.3545 40.9028C36.4027 40.8574 36.4414 40.8029 36.4683 40.7424C36.4952 40.6819 36.5097 40.6167 36.511 40.5505L37.2464 28.5155C37.2492 28.4488 37.2388 28.3823 37.2158 28.3196C37.1928 28.257 37.1578 28.1995 37.1125 28.1504C37.0673 28.1014 37.0129 28.0617 36.9523 28.0337C36.8918 28.0057 36.8263 27.9899 36.7596 27.9873C36.6935 27.9845 36.6274 27.995 36.5654 28.018C36.5034 28.0411 36.4465 28.0764 36.3983 28.1217C36.3501 28.1671 36.3114 28.2216 36.2845 28.2821C36.2576 28.3426 36.2431 28.4079 36.2418 28.474L35.5168 40.5194C35.5138 40.6506 35.5618 40.7778 35.6507 40.8743C35.7395 40.9709 35.8622 41.0293 35.9932 41.0373V41.0373ZM33 41.0373C33.0661 41.0373 33.1316 41.0241 33.1926 40.9984C33.2537 40.9728 33.3089 40.9353 33.3552 40.888C33.4015 40.8407 33.4379 40.7847 33.4623 40.7232C33.4867 40.6617 33.4985 40.5959 33.4971 40.5298V28.4844C33.4971 28.3471 33.4426 28.2153 33.3454 28.1182C33.2483 28.0211 33.1166 27.9665 32.9793 27.9665C32.8419 27.9665 32.7102 28.0211 32.6131 28.1182C32.516 28.2153 32.4614 28.3471 32.4614 28.4844V40.5298C32.4597 40.5995 32.4727 40.6689 32.4996 40.7333C32.5265 40.7978 32.5667 40.8558 32.6175 40.9037C32.6683 40.9515 32.7286 40.9882 32.7945 41.0112C32.8604 41.0342 32.9304 41.0431 33 41.0373V41.0373ZM30.0068 41.0373C30.0734 41.0346 30.1389 41.0188 30.1995 40.9908C30.26 40.9628 30.3145 40.9231 30.3597 40.8741C30.4049 40.825 30.44 40.7675 30.463 40.7049C30.4859 40.6423 30.4963 40.5757 30.4935 40.509L29.7478 28.474C29.7478 28.3367 29.6933 28.205 29.5962 28.1079C29.499 28.0107 29.3673 27.9562 29.23 27.9562C29.0926 27.9562 28.9609 28.0107 28.8638 28.1079C28.7667 28.205 28.7121 28.3367 28.7121 28.474L29.4578 40.509C29.4529 40.5815 29.4639 40.6541 29.49 40.7219C29.5161 40.7896 29.5568 40.8508 29.6091 40.9012C29.6614 40.9515 29.7241 40.9898 29.7928 41.0133C29.8615 41.0368 29.9346 41.045 30.0068 41.0373ZM41.5343 24.963H36.511V22.9537C36.511 22.679 36.4019 22.4156 36.2077 22.2213C36.0135 22.0271 35.75 21.918 35.4753 21.918H30.4935C30.2189 21.918 29.9554 22.0271 29.7612 22.2213C29.567 22.4156 29.4578 22.679 29.4578 22.9537V24.963H24.4657C24.3311 24.963 24.202 25.0164 24.1068 25.1116C24.0117 25.2068 23.9582 25.3359 23.9582 25.4705C23.9582 25.5366 23.9714 25.6021 23.997 25.6631C24.0226 25.7241 24.0602 25.7794 24.1074 25.8257C24.1547 25.872 24.2107 25.9084 24.2723 25.9328C24.3338 25.9571 24.3995 25.969 24.4657 25.9676H25.5014L26.5371 42.0419C26.5646 42.5659 26.7851 43.0612 27.1561 43.4322C27.5271 43.8032 28.0224 44.0237 28.5464 44.0512H37.5778C38.0995 44.0171 38.591 43.7945 38.9607 43.4248C39.3304 43.0551 39.553 42.5636 39.5871 42.0419L40.6228 25.9676H41.6586C41.7247 25.969 41.7905 25.9571 41.852 25.9328C41.9135 25.9084 41.9695 25.872 42.0168 25.8257C42.0641 25.7794 42.1016 25.7241 42.1272 25.6631C42.1529 25.6021 42.1661 25.5366 42.166 25.4705C42.1685 25.3919 42.1526 25.3139 42.1197 25.2426C42.0868 25.1712 42.0379 25.1085 41.9766 25.0593C41.9154 25.0101 41.8435 24.9758 41.7668 24.9591C41.69 24.9424 41.6104 24.9437 41.5343 24.963V24.963ZM30.4935 22.9537H35.5064V24.963H30.4935V22.9537ZM38.5203 42.0419C38.5203 42.3166 38.4112 42.58 38.217 42.7743C38.0227 42.9685 37.7593 43.0776 37.4846 43.0776H28.4843C28.2096 43.0776 27.9461 42.9685 27.7519 42.7743C27.5577 42.58 27.4485 42.3166 27.4485 42.0419L26.4128 25.9676H39.525L38.5203 42.0419Z" stroke="white" stroke-width="0.5" stroke-miterlimit="10"/>
</g>
<defs>
<filter id="filter0_d_824_506" x="0" y="0" width="68" height="68" filterUnits="userSpaceOnUse" color-interpolation-filters="sRGB">
<feFlood flood-opacity="0" result="BackgroundImageFix"/>
<feColorMatrix in="SourceAlpha" type="matrix" values="0 0 0 0 0 0 0 0 0 0 0 0 0 0 0 0 0 0 127 0" result="hardAlpha"/>
<feOffset dx="1" dy="1"/>
<feGaussianBlur stdDeviation="2.5"/>
<feComposite in2="hardAlpha" operator="out"/>
<feColorMatrix type="matrix" values="0 0 0 0 0 0 0 0 0 0 0 0 0 0 0 0 0 0 0.25 0"/>
<feBlend mode="normal" in2="BackgroundImageFix" result="effect1_dropShadow_824_506"/>
<feBlend mode="normal" in="SourceGraphic" in2="effect1_dropShadow_824_506" result="shape"/>
</filter>
</defs>
</svg>
